<svg width="32" height="32" viewBox="0 0 32 32" fill="none" xmlns="http://www.w3.org/2000/svg">
<path d="M7.10519 7.3017L6.40192 6.59077L7.10519 7.3017ZM16 8.40153L15.4897 9.2615C15.8016 9.44657 16.1892 9.44831 16.5027 9.26602L16 8.40153ZM24.8948 7.3017L25.5981 6.59079L25.598 6.59066L24.8948 7.3017ZM16 26L16 25C15.6601 25 15.1226 24.8642 14.4117 24.5286C13.7206 24.2022 12.9433 23.7243 12.1484 23.1345C10.5525 21.9503 8.97073 20.3793 7.93438 18.8414L7.10511 19.4003L6.27584 19.9591C7.46315 21.721 9.21694 23.4498 10.9566 24.7406C11.8295 25.3883 12.7201 25.9416 13.5578 26.3371C14.3757 26.7233 15.228 27 16 27L16 26ZM7.10511 19.4003L7.93438 18.8414C6.91236 17.3249 6.1452 15.2941 6.01845 13.2879C5.89242 11.293 6.39908 9.40682 7.80845 8.01263L7.10519 7.3017L6.40192 6.59077C4.47574 8.4962 3.87053 11.0095 4.02243 13.414C4.17363 15.8073 5.0742 18.176 6.27584 19.9591L7.10511 19.4003ZM24.8948 7.3017L24.1915 8.01261C25.6009 9.4069 26.1076 11.2931 25.9815 13.288C25.8548 15.2942 25.0876 17.3249 24.0656 18.8414L24.8948 19.4003L25.7241 19.9592C26.9258 18.176 27.8264 15.8073 27.9776 13.4141C28.1295 11.0096 27.5243 8.4963 25.5981 6.59079L24.8948 7.3017ZM24.8948 19.4003L24.0656 18.8414C23.0291 20.3793 21.4474 21.9503 19.8515 23.1344C19.0566 23.7242 18.2793 24.2022 17.5882 24.5285C16.8774 24.8642 16.3399 25 16 25L16 26L16 27C16.772 27 17.6243 26.7233 18.4422 26.337C19.2799 25.9415 20.1704 25.3882 21.0433 24.7406C22.7829 23.4498 24.5367 21.721 25.7241 19.9592L24.8948 19.4003ZM7.10519 7.3017L7.80845 8.01263C8.60876 7.22095 9.98982 6.73941 11.2393 7.15152L11.5526 6.20184L11.8658 5.25217C9.77971 4.56414 7.63761 5.3684 6.40192 6.59077L7.10519 7.3017ZM11.5526 6.20184L11.2393 7.15152C11.9843 7.39725 13.0301 7.91039 13.9316 8.39058C14.373 8.62568 14.7641 8.84432 15.0448 9.00415C15.185 9.08398 15.2972 9.14892 15.3739 9.19362C15.4123 9.21597 15.4417 9.23325 15.4614 9.24479C15.4712 9.25056 15.4785 9.25489 15.4833 9.2577C15.4857 9.25911 15.4874 9.26014 15.4885 9.26077C15.489 9.26109 15.4894 9.26131 15.4896 9.26143C15.4897 9.26149 15.4897 9.26153 15.4898 9.26154C15.4898 9.26154 15.4897 9.26153 15.4898 9.26154C15.4897 9.26152 15.4897 9.2615 16 8.40153C16.5104 7.54156 16.5103 7.54153 16.5103 7.54149C16.5102 7.54146 16.5101 7.54141 16.5101 7.54137C16.5099 7.54128 16.5097 7.54117 16.5095 7.54103C16.509 7.54075 16.5084 7.54037 16.5076 7.53989C16.506 7.53894 16.5037 7.53759 16.5007 7.53586C16.4949 7.5324 16.4864 7.5274 16.4755 7.52095C16.4535 7.50806 16.4217 7.48936 16.3807 7.46553C16.299 7.41787 16.181 7.34963 16.0345 7.26621C15.7419 7.09956 15.3338 6.87141 14.8718 6.62535C13.9666 6.14321 12.7886 5.55652 11.8658 5.25217L11.5526 6.20184ZM16 8.40153C16.5027 9.26602 16.5026 9.26604 16.5026 9.26605C16.5026 9.26605 16.5026 9.26606 16.5026 9.26605C16.5027 9.26603 16.5027 9.266 16.5028 9.26593C16.5031 9.2658 16.5034 9.26558 16.504 9.26526C16.5051 9.26462 16.5069 9.2636 16.5093 9.2622C16.5141 9.25941 16.5215 9.25513 16.5314 9.24943C16.5511 9.23804 16.5807 9.22102 16.6192 9.199C16.6962 9.15496 16.8088 9.09099 16.9493 9.01224C17.2306 8.85459 17.6227 8.63848 18.0652 8.40479C18.9666 7.92888 20.0208 7.41051 20.7777 7.14563L20.4475 6.20175L20.1172 5.25787C19.2064 5.57658 18.0369 6.1581 17.1314 6.63619C16.6706 6.87949 16.2635 7.1039 15.9715 7.26752C15.8254 7.34941 15.7078 7.41627 15.6263 7.46289C15.5855 7.4862 15.5537 7.50447 15.532 7.51704C15.5211 7.52333 15.5126 7.52819 15.5068 7.53155C15.5039 7.53323 15.5017 7.53454 15.5001 7.53545C15.4993 7.53591 15.4987 7.53627 15.4982 7.53654C15.498 7.53667 15.4978 7.53678 15.4977 7.53686C15.4976 7.5369 15.4975 7.53695 15.4975 7.53697C15.4974 7.53701 15.4974 7.53704 16 8.40153ZM20.4475 6.20175L20.7777 7.14563C21.3672 6.93937 22.0302 6.96353 22.6702 7.15454C23.3159 7.34724 23.8638 7.68852 24.1917 8.01274L24.8948 7.3017L25.598 6.59066C25.0182 6.01736 24.1764 5.51687 23.2422 5.23807C22.3024 4.95759 21.1955 4.88053 20.1172 5.25787L20.4475 6.20175Z" fill="#444444"/>
</svg>
