<svg width="180" height="80" viewBox="0 0 180 80" fill="none" xmlns="http://www.w3.org/2000/svg">
<path d="M164.546 0.5C168.365 0.499862 172.037 1.91601 174.812 4.45508C177.582 6.99024 179.247 10.453 179.474 14.1348H179.475L179.5 15.0146V24.085C179.488 25.3438 179.138 26.5787 178.483 27.668C177.828 28.7574 176.891 29.6635 175.762 30.2959L175.229 30.5771C173.485 31.4092 172.004 32.6831 170.941 34.2666C169.878 35.8525 169.274 37.6895 169.196 39.583C169.119 41.4766 169.57 43.355 170.501 45.0186C171.432 46.682 172.807 48.0688 174.48 49.0332L174.49 49.0391L174.499 49.0439L175.221 49.4189L175.228 49.4219L175.235 49.4258C177.34 50.4354 179.193 52.5075 179.465 55.2139L179.5 55.915V65L179.496 65.3457C179.409 68.9152 177.964 72.3355 175.431 74.9434C172.897 77.5513 169.458 79.1558 165.78 79.4512L165.424 79.4756L164.532 79.5H15.4541C11.6353 79.5001 7.96287 78.084 5.18848 75.5449C2.41742 73.0088 0.750449 69.5446 0.524414 65.8613L0.5 64.9854V55.915C0.5 53.2759 1.98006 51.1677 3.86523 49.9336L4.24707 49.6982L4.78125 49.418C6.52002 48.5858 7.99831 47.3139 9.05859 45.7334C10.1224 44.1475 10.7259 42.3105 10.8037 40.417C10.8814 38.5234 10.4299 36.645 9.49902 34.9814C8.56819 33.318 7.19271 31.9312 5.51953 30.9668L5.50977 30.9609L5.50098 30.9561L4.7793 30.5811L4.77246 30.5781L4.76465 30.5742L4.37305 30.3721C2.4343 29.3025 0.788405 27.3227 0.53418 24.7852L0.5 24.0898V15C0.499788 11.3061 1.95326 7.74854 4.56836 5.05664C7.18388 2.36431 10.7639 0.741878 14.5762 0.524414L14.5752 0.523438L15.4678 0.5H164.546Z" fill="#EDF1FD" stroke="#2F4F9E"/>
</svg>
