<svg xmlns="http://www.w3.org/2000/svg" width="116" height="20" viewBox="0 0 116 20" fill="none">
  <g clip-path="url(#clip0_3358_1480)">
    <path fill-rule="evenodd" clip-rule="evenodd" d="M43.0508 13.1822C43.2479 13.1843 43.3304 13.3018 43.334 13.4811C43.3407 13.8239 43.3275 14.1673 43.3437 14.5094C43.3611 14.8728 43.1893 15.3212 43.4326 15.5797C43.7091 15.8734 44.1823 15.6898 44.5664 15.691C48.2554 15.7013 51.9447 15.6975 55.6338 15.6979C55.8706 15.6979 56.1079 15.6996 56.3447 15.7047C56.4978 15.7079 56.5943 15.7911 56.5947 15.944C56.599 16.8927 56.599 17.8419 56.5966 18.7906C56.5963 18.9473 56.4982 19.0239 56.3476 19.0279C56.1373 19.0335 55.9265 19.0357 55.7158 19.0358C53.081 19.0361 50.4453 19.0358 47.8105 19.0358C45.2017 19.0358 42.5922 19.0352 39.9834 19.0348C39.7726 19.0348 39.5623 19.0313 39.3515 19.025C39.191 19.0203 39.1218 18.921 39.1142 18.7711C39.1091 18.6659 39.1074 18.5599 39.1074 18.4547C39.107 16.8989 39.1062 15.3425 39.1074 13.7867C39.1074 13.6557 39.1128 13.523 39.1299 13.3932C39.145 13.2799 39.2237 13.2069 39.3359 13.191C39.4395 13.1764 39.5461 13.1783 39.6513 13.1783C40.7055 13.1775 41.7593 13.1775 42.8134 13.1783C42.8926 13.1783 42.9716 13.1814 43.0508 13.1822ZM17.4082 0.382433C17.5942 0.386092 17.7023 0.481649 17.7119 0.666612C17.7226 0.876823 17.7207 1.08882 17.7207 1.29942V18.1422C17.7207 18.3264 17.7233 18.5111 17.7158 18.6949C17.7043 18.9732 17.6603 19.0257 17.3974 19.0309C16.9761 19.0396 16.5545 19.0348 16.1328 19.0348C15.3956 19.0348 14.658 19.0392 13.9209 19.0328C13.5395 19.0297 13.5056 18.9921 13.4922 18.6442C13.4862 18.4864 13.4892 18.3283 13.4892 18.1705V1.24767C13.4892 0.308295 13.4317 0.377946 14.3271 0.37755H17.0127C17.1444 0.37755 17.2768 0.380057 17.4082 0.382433ZM37.5156 15.0856C37.6701 15.0899 37.7629 15.1777 37.7666 15.3268C37.7765 15.7482 37.7761 16.17 37.7773 16.5914C37.7785 17.1713 37.7819 17.7517 37.7744 18.3317C37.7696 18.6951 37.7429 18.7139 37.3525 18.7242C37.1422 18.7298 36.9314 18.7262 36.7207 18.7262C33.9023 18.7262 31.083 18.7272 28.2646 18.7272H19.6504C19.4661 18.7272 19.2815 18.7308 19.0976 18.7233C18.8124 18.7118 18.7645 18.6742 18.7617 18.4059C18.7542 17.668 18.7574 16.9293 18.7578 16.191C18.7578 15.9013 18.758 15.6112 18.7695 15.3219C18.7755 15.1703 18.8715 15.0885 19.0234 15.0846C19.2076 15.0794 19.3919 15.0777 19.5761 15.0777H36.9629C37.1471 15.0777 37.3314 15.0804 37.5156 15.0856ZM3.6904 0.802355C4.01622 0.804334 4.05402 0.843049 4.05563 1.17247C4.06117 2.33303 4.05994 3.49434 4.05954 4.65489C4.05954 5.2951 4.02473 5.37802 4.59567 5.37169V5.37071H6.35349C6.55046 5.35 6.75507 5.39114 6.95212 5.36095C7.10194 5.33795 7.18954 5.25526 7.19626 5.10607C7.20613 4.89558 7.20602 4.68471 7.20602 4.47423C7.20721 3.39349 7.20342 2.31181 7.20895 1.23107C7.21094 0.830041 7.2337 0.804335 7.5947 0.802355C8.70113 0.796812 9.8076 0.797789 10.914 0.803331C11.1795 0.804519 11.2393 0.869649 11.2519 1.12657C11.261 1.31065 11.2558 1.49581 11.2558 1.68028V17.7359C11.2558 17.9204 11.2614 18.1056 11.2519 18.2897C11.2369 18.5785 11.1698 18.6478 10.8593 18.649C9.4503 18.6536 8.04089 18.6525 6.63181 18.649V18.652H4.57516V18.6481C3.1804 18.6527 1.78536 18.6533 0.390594 18.6481C0.0795825 18.6468 0.0196892 18.5795 0.00582873 18.2789C-0.00365879 18.0685 0.00191559 17.857 0.00192248 17.6461V9.73009H0.000945916C0.000946038 6.98641 0.00194715 4.24233 -3.06467e-05 1.49864C-0.000427969 0.777842 -0.00577405 0.795094 0.68454 0.797472C1.68654 0.800639 2.6884 0.796021 3.6904 0.802355ZM4.91891 9.1715C4.65865 9.1819 4.31066 9.12712 4.14938 9.29552C3.9425 9.51998 4.0668 9.85173 4.06442 10.1344C4.05374 11.4268 4.05875 12.7195 4.05954 14.0123C4.05954 14.1968 4.05937 14.3824 4.07321 14.566C4.08191 14.6804 4.15885 14.7544 4.27634 14.7643C4.38105 14.7728 4.48654 14.7731 4.59177 14.776H6.17184C6.1725 14.7748 6.17314 14.7733 6.1738 14.7721C6.40473 14.7721 6.66614 14.7756 6.92673 14.7721C7.12006 14.7697 7.203 14.6597 7.20309 14.4723C7.20309 13.8658 7.20563 13.2594 7.20602 12.6529C7.20642 11.651 7.21 10.649 7.20407 9.64708C7.20169 9.23688 7.17713 9.2237 6.74606 9.2047C6.56296 9.19639 6.37994 9.18572 6.19724 9.17345C6.19554 9.17333 6.19404 9.17175 6.19235 9.1715H4.91891ZM30.206 0.00352649C30.555 0.00514705 30.5967 0.0569523 30.6054 0.427355C30.6141 0.796165 30.6099 1.16499 30.6162 1.5338C30.6189 1.68852 30.7083 1.77059 30.8613 1.77501C31.0717 1.78095 31.2833 1.78282 31.4941 1.78282C33.0221 1.78361 34.5501 1.78301 36.0781 1.7838C36.2624 1.7838 36.4473 1.7842 36.6308 1.79845C36.7454 1.80724 36.8149 1.8875 36.834 2.0006C36.847 2.07779 36.8525 2.15756 36.8525 2.23595C36.8537 3.07951 36.8573 3.92363 36.8506 4.7672C36.847 5.21626 36.8268 5.23436 36.3418 5.23595C35.1298 5.2407 33.9176 5.2379 32.706 5.2379H30.5107V5.23888C30.4607 5.46085 30.4189 5.63661 30.3828 5.80431C30.4937 5.92037 30.6654 6.0983 30.8574 6.28087L31.1982 6.59044L31.7011 6.94103C32.1919 7.29622 32.6554 7.6544 33.1806 7.91661C33.8875 8.26932 34.6064 8.59383 35.3711 8.79454C36.1281 8.99325 36.8943 9.1575 37.7597 9.36095C37.2039 10.5327 36.6899 11.6264 36.167 12.7154C36.0263 13.0089 35.964 13.0367 35.5966 12.9762C34.766 12.8392 33.9469 12.647 33.1562 12.3561C31.9615 11.9169 30.8486 11.3325 29.8203 10.5533L29.3847 10.2076L28.6377 9.42735C28.1942 9.92422 27.678 10.3723 27.0888 10.7701C26.0091 11.4992 24.8126 11.9761 23.5742 12.3541C22.6665 12.6312 21.7362 12.8137 20.7988 12.9586C20.3826 13.0227 20.3444 13.0084 20.1845 12.6529C19.7313 11.6452 19.2869 10.6336 18.8466 9.64122C18.9814 9.37863 19.2082 9.40167 19.4043 9.37169C20.3683 9.22363 21.3205 9.02172 22.2509 8.72521C22.8049 8.54869 23.339 8.32469 23.8388 8.02989C24.7348 7.50179 25.373 6.75573 25.6855 5.7506C25.7325 5.59955 25.7727 5.44665 25.6963 5.28771C25.4427 5.19824 25.1771 5.24162 24.916 5.24083C23.4145 5.23608 21.9126 5.2379 20.4111 5.2379C20.2794 5.2379 20.1469 5.2413 20.0156 5.23497C19.747 5.2223 19.6832 5.1714 19.6797 4.91368C19.671 4.28114 19.6738 3.64778 19.6738 3.01525C19.6738 2.69916 19.6721 2.38269 19.6816 2.067C19.6871 1.88015 19.7976 1.78673 19.9863 1.78673C20.3022 1.78673 20.6182 1.7842 20.9345 1.7838C22.3574 1.7838 23.7802 1.78322 25.2031 1.78282C25.3608 1.78282 25.519 1.78055 25.6767 1.77501C25.8312 1.76984 25.916 1.68562 25.9189 1.53185C25.9248 1.21555 25.9239 0.898928 25.9287 0.582628C25.9307 0.451197 25.9248 0.315754 25.9521 0.189073C25.9658 0.127451 26.0386 0.0620494 26.1006 0.0328234C26.1678 0.00115319 26.2547 0.00157336 26.333 0.00157336C27.624 -1.02393e-05 28.915 -0.00201514 30.206 0.00352649ZM49.8037 0.358019C50.7613 0.356251 51.7192 0.355308 52.6767 0.366808C53.0699 0.371573 53.4687 0.413625 53.8535 0.492784C55.1604 0.761996 56.0184 1.53742 56.3554 2.84142C56.5773 3.69915 56.5802 4.56926 56.3496 5.4254C55.9813 6.7922 55.0687 7.5642 53.6816 7.78478C53.186 7.86356 52.6863 7.89149 52.1836 7.88634C51.4981 7.87922 50.8123 7.8847 50.1269 7.89025C49.9506 7.89183 49.8265 7.97041 49.8232 8.17052C49.8216 8.27622 49.8185 8.3822 49.8193 8.4879C49.8233 9.00015 49.8312 9.01699 50.3564 9.01818C52.3869 9.02213 54.4177 9.01934 56.4482 9.02013C57.2954 9.02052 57.222 8.96097 57.2236 9.77696C57.2252 10.4894 57.2268 11.2022 57.2197 11.9147C57.2169 12.1831 57.1642 12.2288 56.8896 12.2399C56.6788 12.2482 56.468 12.2438 56.2568 12.2438H47.7138C44.8392 12.2438 41.9645 12.244 39.0898 12.2428C38.853 12.2428 38.6155 12.2399 38.3799 12.2174C38.3229 12.2119 38.254 12.1311 38.2275 12.069C38.1982 12.0005 38.2064 11.9134 38.206 11.8346C38.2052 11.0164 38.2026 10.1986 38.209 9.38048C38.2117 9.05706 38.2446 9.03021 38.584 9.0211C38.8474 9.01438 39.1112 9.01955 39.375 9.01915C41.1681 9.01915 42.9618 9.01857 44.7549 9.01818C44.9392 9.01818 45.1242 9.01472 45.3086 9.01036C45.4679 9.00636 45.5563 8.90594 45.5595 8.76232C45.5833 7.79329 45.6621 7.8949 44.7549 7.88146C43.7801 7.8672 42.8041 7.93262 41.831 7.8004C40.2814 7.58973 39.3001 6.66691 38.997 5.14025C38.8392 4.34624 38.8629 3.5629 39.0713 2.78868C39.413 1.51792 40.262 0.765913 41.5322 0.494737C41.9161 0.412871 42.3154 0.37118 42.708 0.366808C43.8062 0.353878 44.9047 0.356205 46.0029 0.358019L46.0039 0.357042H49.8037V0.358019ZM46.2675 3.44786C45.9352 3.44841 45.6028 3.45008 45.2705 3.45079C44.7693 3.45198 44.2678 3.45309 43.7666 3.45665C43.5064 3.45871 43.3054 3.56176 43.2109 3.817C43.1023 4.11023 43.1247 4.39228 43.3418 4.62853C43.4074 4.69966 43.5159 4.75366 43.6123 4.76915C43.7931 4.79805 43.9797 4.8004 44.164 4.8004C46.5374 4.80199 48.9108 4.80177 51.2841 4.80138C51.4159 4.80138 51.5491 4.80449 51.6797 4.79064C52.0701 4.74986 52.2781 4.49426 52.2607 4.08849C52.2449 3.71597 52.0487 3.47951 51.6855 3.46446C51.1593 3.44232 50.6315 3.45316 50.1045 3.45079C49.8673 3.44977 49.6297 3.44862 49.3925 3.44786H46.2675Z" fill="#E51E25"/>
    <path fill-rule="evenodd" clip-rule="evenodd" d="M68.8308 11.6076H71.9939V11.6086C73.2587 11.6086 74.524 11.6042 75.7888 11.6106C76.1856 11.6125 76.2437 11.6703 76.2448 12.0725C76.2508 13.8134 76.2491 15.5542 76.2488 17.2951C76.2488 17.8226 76.252 18.3497 76.2409 18.8772C76.2358 19.132 76.159 19.2011 75.9109 19.217C75.8321 19.2222 75.7527 19.2243 75.6736 19.2248H65.4968L65.4958 19.2238H62.5202L62.5212 19.2248C61.3614 19.2248 60.2006 19.2256 59.0407 19.2248C58.8565 19.2248 58.671 19.228 58.488 19.2102C58.3452 19.1963 58.2485 19.1065 58.239 18.9533C58.2291 18.796 58.2238 18.6378 58.2234 18.4797V12.2268C58.2368 11.6298 58.2476 11.6094 58.8542 11.6086C61.038 11.6051 63.2219 11.6072 65.406 11.6086V11.6076H68.322C68.4914 11.6065 68.6612 11.6076 68.8308 11.6076ZM93.8132 10.0246C94.7902 10.0246 94.7066 9.95662 94.7077 10.9182C94.7093 12.2633 94.7089 13.6082 94.7077 14.9533C94.7077 15.1377 94.7048 15.3229 94.6882 15.5061C94.6779 15.6213 94.5924 15.6952 94.4792 15.7024C94.2433 15.717 94.0066 15.7229 93.7702 15.7229C90.2916 15.7241 86.8124 15.7244 83.3337 15.7248C83.1229 15.7248 82.9117 15.7224 82.7009 15.7287C82.5696 15.7327 82.4288 15.7421 82.3864 15.9035C82.3398 16.0824 82.3148 16.2698 82.4275 16.4309C82.4646 16.4839 82.5609 16.5173 82.6325 16.5217C82.869 16.5355 83.1066 16.5344 83.3435 16.5344C86.9273 16.5352 90.5116 16.5368 94.0954 16.5344C95.092 16.5336 95.0079 16.5158 95.0095 17.4231C95.0103 17.8977 95.0153 18.3736 95.0046 18.8479C94.9982 19.1385 94.921 19.2067 94.6189 19.2209C94.4085 19.2308 94.1968 19.2248 93.9861 19.2248H78.5691C78.3583 19.2248 78.1468 19.2272 77.9372 19.2102C77.7967 19.1986 77.6951 19.1171 77.6823 18.9611C77.676 18.8824 77.6697 18.8026 77.6697 18.7238C77.6689 17.1416 77.6689 15.559 77.6697 13.9768C77.6697 13.8715 77.672 13.7651 77.6882 13.6613C77.7056 13.5474 77.7857 13.4691 77.8972 13.4611C78.1327 13.4445 78.3698 13.4397 78.6062 13.4397C82.0584 13.4385 85.5114 13.4387 88.9636 13.4387C89.1744 13.4387 89.3856 13.4433 89.5964 13.4358C89.9573 13.4225 90.1353 13.1214 89.9763 12.7834C89.9486 12.7242 89.8641 12.6606 89.8005 12.6545C89.5652 12.6331 89.3271 12.6291 89.0905 12.6291C85.6383 12.6279 82.1853 12.6293 78.7331 12.6281C77.5348 12.6282 77.677 12.7153 77.6687 11.5725C77.6659 11.1771 77.6636 10.7809 77.6755 10.386C77.6835 10.1251 77.7584 10.0485 78.0007 10.0334C78.1056 10.0269 78.2109 10.0253 78.3161 10.0246H93.8132ZM108.099 12.5354C108.408 12.5366 108.463 12.5977 108.469 12.9133C108.479 13.3614 108.47 13.8105 108.475 14.259C108.482 14.8815 108.485 14.8823 109.073 14.8918C109.257 14.895 109.442 14.8918 109.627 14.8918C111.313 14.8918 113.001 14.8924 114.687 14.8928C114.898 14.8928 115.109 14.8913 115.318 14.9055C115.467 14.9158 115.549 15.0133 115.561 15.1633C115.567 15.2421 115.571 15.3218 115.571 15.4006C115.571 16.3762 115.575 17.3518 115.567 18.3274C115.565 18.6429 115.499 18.7047 115.206 18.719C114.995 18.7289 114.784 18.7244 114.573 18.7248H105.955V18.7258H97.4948C97.2842 18.7258 97.0732 18.7298 96.863 18.7199C96.6007 18.7077 96.514 18.6378 96.5124 18.3986C96.5057 17.3437 96.5051 16.2885 96.5114 15.2336C96.5131 14.9821 96.5961 14.9101 96.8464 14.8986C97.0566 14.8888 97.2676 14.8928 97.4782 14.8928H102.618C102.829 14.8928 103.04 14.8974 103.251 14.8879C103.514 14.876 103.582 14.8126 103.595 14.5656C103.607 14.3551 103.601 14.1438 103.602 13.9328C103.604 13.5901 103.598 13.2468 103.608 12.9045C103.617 12.5962 103.67 12.536 103.988 12.5344C105.358 12.5285 106.729 12.5294 108.099 12.5354ZM63.778 14.758C63.4881 14.758 63.1979 14.7605 62.9079 14.7629C62.7227 14.7646 62.6066 14.8515 62.6013 15.0432C62.5946 15.3067 62.5946 15.571 62.6013 15.8342C62.6064 16.0254 62.726 16.116 62.9079 16.1184C63.2767 16.1235 63.6456 16.1225 64.0144 16.1233C64.4781 16.1242 64.9422 16.1255 65.406 16.1262V16.1242H68.655V16.1291C68.9567 16.1276 69.2587 16.1251 69.5603 16.1242C70.2453 16.1219 70.9309 16.1225 71.6159 16.1174C71.7997 16.1161 71.9127 16.0186 71.9167 15.8283C71.9219 15.5647 71.9221 15.3009 71.9157 15.0373C71.9106 14.839 71.7796 14.7673 71.6013 14.7629C71.417 14.7585 71.2319 14.758 71.0476 14.758C70.45 14.7578 69.8523 14.7573 69.2546 14.757V14.758H65.4616L65.4607 14.7561C64.8998 14.7567 64.3388 14.7575 63.778 14.758ZM107.692 0.617397C108.489 0.618645 109.286 0.622845 110.083 0.636928C110.773 0.64921 111.438 0.809355 112.076 1.07052C113.071 1.47748 113.796 2.16595 114.229 3.15841C114.399 3.54716 114.527 3.95136 114.593 4.36544C114.787 5.56919 114.801 6.77345 114.545 7.97482C114.118 9.97018 112.863 11.0961 110.739 11.4299C110.453 11.4746 110.166 11.5229 109.878 11.5324C109.378 11.5491 108.878 11.5373 108.378 11.5373V11.5481C107.902 11.5481 107.426 11.5528 106.951 11.5471V11.549L105.261 11.5461C105.26 11.5461 105.258 11.5471 105.257 11.5471C103.967 11.5285 102.673 11.6452 101.39 11.4338C101.053 11.3784 100.713 11.3185 100.389 11.2141C99.0473 10.7818 98.1218 9.91658 97.6921 8.55099C97.5335 8.04634 97.4098 7.53665 97.3864 7.00509C97.3421 6.00277 97.3188 5.00369 97.5632 4.01681C97.9912 2.28807 99.0665 1.22131 100.795 0.810756C101.231 0.707036 101.672 0.62872 102.123 0.629116C102.597 0.629511 103.071 0.629116 103.546 0.629116L103.545 0.617397C103.909 0.617397 104.274 0.617951 104.638 0.618373V0.615444H107.693L107.692 0.617397ZM71.6462 0.378139C71.9923 0.382098 72.0601 0.45254 72.0613 0.80685C72.0672 2.36173 72.0642 3.91701 72.0642 5.47189H72.0661V9.58419C72.0661 9.76844 72.0707 9.95308 72.0652 10.1369C72.0525 10.5688 72.0233 10.609 71.6257 10.6125C70.7828 10.6196 69.9403 10.6191 69.0974 10.6115C68.7547 10.6084 68.6928 10.546 68.6853 10.1838C68.673 9.57772 68.68 8.97056 68.6784 8.36447C68.6777 8.12749 68.6827 7.89011 68.6716 7.65353C68.6582 7.35588 68.6003 7.30784 68.278 7.29318C68.1993 7.28962 68.1199 7.28985 68.0407 7.29025C67.7287 7.29241 67.5243 7.43427 67.4275 7.71505C67.3935 7.8147 67.3663 7.91716 67.3327 8.01681C66.8446 9.47192 65.795 10.2345 64.3122 10.4436C64.0341 10.4829 63.7486 10.4783 63.4655 10.4787L63.4665 10.4846H61.53V10.4797C61.3244 10.4754 61.1189 10.467 60.9167 10.4387C59.5892 10.253 58.6166 9.58036 58.113 8.3088C57.9782 7.96807 57.8425 7.61753 57.782 7.259C57.5621 5.95087 57.5499 4.64066 57.8532 3.34005C57.9434 2.95368 58.097 2.58882 58.2829 2.24044C58.7121 1.43657 59.3637 0.901195 60.2341 0.623256C60.7627 0.454497 60.8809 0.470198 61.4167 0.421108L61.4177 0.420131C61.4177 0.420131 62.3377 0.370375 62.6345 0.370327C62.9275 0.370327 63.4148 0.380846 63.4255 0.381069L63.8581 0.413295C64.2904 0.45029 64.7198 0.508486 65.1355 0.651577C66.0813 0.976988 66.7756 1.5799 67.1736 2.50705C67.2357 2.65192 67.2917 2.8006 67.3435 2.94943C67.599 3.67964 67.6647 3.72145 68.3952 3.63595C68.5905 3.61292 68.6625 3.49131 68.6697 3.31759C68.6783 3.10713 68.6771 2.89622 68.6775 2.68576C68.6794 2.05327 68.6724 1.42078 68.6843 0.788295C68.6906 0.445523 68.7612 0.379373 69.1179 0.376186C69.9603 0.368665 70.8034 0.368247 71.6462 0.378139ZM73.7077 0.37228C74.3923 0.372675 75.0769 0.366322 75.7614 0.374233C76.2025 0.379379 76.2448 0.420607 76.2468 0.888881C76.2527 2.41725 76.2484 3.94645 76.2488 5.47482C76.2488 6.87187 76.2491 8.26917 76.2488 9.66623C76.2488 9.8771 76.2484 10.0876 76.2409 10.2981C76.235 10.4749 76.1595 10.6055 75.9636 10.6057C75.0158 10.6069 74.0676 10.6054 73.1198 10.5998C72.9625 10.599 72.8911 10.4859 72.8835 10.341C72.8736 10.1571 72.8747 9.97223 72.8747 9.7883C72.8743 6.91542 72.8745 4.04204 72.8738 1.16915C72.8737 0.325999 72.8335 0.371884 73.7077 0.37228ZM83.7947 0.383022C83.8333 0.379432 83.8771 0.378542 83.9265 0.379116C84.0209 0.380156 84.1153 0.383728 84.2097 0.385952L84.3376 0.386928L84.3366 0.388881C84.9897 0.408964 85.6398 0.465372 86.2761 0.636928C87.7262 1.02727 88.8174 1.9234 89.0564 3.79025C89.1754 4.72293 89.1365 5.63026 88.8845 6.53048C88.6198 7.47526 88.0351 8.15097 87.1491 8.56857C86.5961 8.82945 86.0203 9.01159 85.4079 9.05197C84.9188 9.0844 84.429 9.10935 83.9392 9.12619V9.13498L82.3493 9.134L81.5593 9.11447C80.7716 9.08043 79.9932 8.9859 79.2458 8.66916C78.2043 8.22777 77.5274 7.47845 77.2517 6.37521C76.9708 5.25136 76.9786 4.13177 77.2947 3.01583C77.562 2.07135 78.1534 1.4021 79.0232 0.965053C79.4029 0.77424 79.8016 0.627501 80.2165 0.557827C80.7079 0.475418 81.2022 0.405875 81.6999 0.383022L81.698 0.370327L83.7947 0.383022ZM93.9861 0.373256C94.1439 0.373256 94.303 0.378906 94.4597 0.394741C94.6121 0.410324 94.6942 0.514479 94.697 0.660366C94.7065 1.16155 94.7011 1.66309 94.7126 2.16427C94.7205 2.5227 94.7606 2.55947 95.1355 2.56857C95.5306 2.57806 95.9269 2.56862 96.322 2.57931C96.5622 2.58572 96.6392 2.67204 96.655 2.92013C96.6633 3.05143 96.6609 3.18395 96.6609 3.31564C96.6613 4.15985 96.6591 5.00405 96.6618 5.84787C96.6646 6.67802 96.6748 6.64495 95.9011 6.64376C95.6112 6.64337 95.3205 6.6397 95.031 6.65158C94.7808 6.66151 94.7207 6.72599 94.7136 6.99826C94.7037 7.367 94.7103 7.73654 94.7087 8.10568C94.7079 8.31668 94.7084 8.52846 94.7029 8.73947C94.6976 8.93244 94.5836 9.02006 94.4001 9.0256C94.2421 9.03034 94.0841 9.03106 93.9265 9.03146C93.4519 9.03225 92.9772 9.03146 92.5027 9.03146V9.02951L92.5017 9.03048C91.9479 9.03048 91.3943 9.03587 90.8405 9.02755C90.5154 9.0228 90.4656 8.96834 90.4489 8.67111C90.443 8.56592 90.4441 8.46028 90.4441 8.3547C90.4441 5.92728 90.4423 3.4999 90.445 1.07247C90.4458 0.380086 90.4519 0.376027 91.1394 0.373256C92.0881 0.369299 93.0373 0.371277 93.9861 0.373256ZM103.572 4.42111C103.282 4.42309 102.99 4.41314 102.703 4.43966C102.078 4.49752 101.672 4.85038 101.552 5.45431C101.47 5.86998 101.464 6.29764 101.563 6.71212C101.683 7.21116 101.982 7.54646 102.505 7.66915C102.765 7.73042 103.025 7.74356 103.288 7.74435C103.81 7.74529 104.333 7.7447 104.855 7.74826L104.856 7.74728H107.345L107.344 7.74826C107.826 7.74627 108.308 7.74714 108.79 7.74337C109 7.7418 109.213 7.74578 109.419 7.71017C110.068 7.59692 110.453 7.21156 110.539 6.5588C110.58 6.24853 110.579 5.92552 110.545 5.61447C110.464 4.89205 110.025 4.4758 109.298 4.43576C108.773 4.40686 108.244 4.43523 107.718 4.41622C107.473 4.40726 107.225 4.44228 106.979 4.43087V4.43185L104.906 4.41622L104.905 4.41427C104.461 4.41621 104.016 4.41807 103.572 4.42111ZM62.6843 3.96994C62.3992 3.96997 62.1634 4.0003 61.989 4.03439C61.6813 4.10429 61.3778 4.17334 61.1863 4.46603C60.987 4.77079 60.9853 5.11295 60.9802 5.45529C60.9782 5.58672 60.9804 5.71918 60.9939 5.84982C61.0507 6.40122 61.2518 6.65344 61.7605 6.8088C61.8917 6.84922 62.309 6.97183 62.6169 6.97189C62.9421 6.97189 63.2763 6.8685 63.3523 6.84396C64.11 6.64731 64.3086 6.40189 64.3435 5.65646C64.351 5.4989 64.3493 5.33901 64.3366 5.18185C64.2983 4.71686 64.1435 4.35349 63.7556 4.16134C63.7091 4.14127 63.2932 3.96994 62.6843 3.96994ZM82.2663 3.54708C82.1123 3.57482 81.9581 3.60476 81.8083 3.64767C81.4134 3.76135 81.1902 4.03815 81.1364 4.44064C81.1124 4.62218 81.1093 4.80967 81.1247 4.9924C81.1667 5.49711 81.3767 5.75438 81.864 5.89572C82.0031 5.93599 82.1447 5.968 82.2947 6.00021L82.5837 6.0383C82.7447 6.05749 82.9385 6.07735 83.07 6.07736C83.2612 6.07736 83.6336 6.03507 83.823 6.0129C83.9962 5.97648 84.1603 5.94169 84.321 5.89474C84.807 5.75345 85.0183 5.49589 85.0564 4.98947C85.0718 4.78124 85.0648 4.56544 85.03 4.35958C84.9734 4.02269 84.7649 3.7895 84.446 3.66915C84.3357 3.6276 84.2205 3.58927 84.1042 3.56759L83.988 3.55197L83.6384 3.52755C83.4515 3.51548 83.2404 3.50414 83.1433 3.50412C82.9885 3.50412 82.4692 3.53478 82.2663 3.54708Z" fill="#1B1B1B"/>
  </g>
  <defs>
    <clipPath id="clip0_3358_1480">
      <rect width="115.572" height="19.2266" fill="white"/>
    </clipPath>
  </defs>
</svg>