<svg width="124" height="32" viewBox="0 0 124 32" fill="none" xmlns="http://www.w3.org/2000/svg">
<path fill-rule="evenodd" clip-rule="evenodd" d="M17.8506 4.4707H21.1983C21.3622 4.47071 21.5261 4.47361 21.6895 4.47656C21.9215 4.481 22.0564 4.60048 22.0684 4.83105C22.0817 5.09295 22.0791 5.35675 22.0791 5.61914C22.0796 9.13308 22.0801 12.6472 22.0801 16.1611V26.6045C22.0801 26.8342 22.0836 27.0647 22.0743 27.2939C22.06 27.6406 22.0044 27.7065 21.6768 27.7129C21.152 27.7237 20.6269 27.7178 20.1016 27.7178C19.1829 27.7178 18.2635 27.7227 17.3448 27.7148C16.8698 27.7109 16.8283 27.6647 16.8116 27.2314C16.8042 27.0348 16.8076 26.8373 16.8077 26.6406V5.55566C16.8077 4.38475 16.735 4.47118 17.8506 4.4707ZM53.6397 20.4258C53.8856 20.4282 53.9888 20.5744 53.9932 20.7978C54.0016 21.2249 53.9847 21.653 54.0049 22.0791C54.0264 22.5318 53.8133 23.0901 54.1162 23.4121C54.4608 23.7781 55.0498 23.5503 55.5284 23.5518C60.1249 23.5646 64.7218 23.5591 69.3184 23.5596C69.6135 23.5596 69.9091 23.562 70.2041 23.5684C70.3949 23.5723 70.5161 23.6758 70.5166 23.8662C70.5221 25.0485 70.5206 26.2317 70.5176 27.4141C70.517 27.609 70.3955 27.704 70.208 27.709C69.9458 27.7159 69.6827 27.7187 69.42 27.7187C66.1369 27.7192 62.8534 27.7178 59.5704 27.7178C56.3198 27.7178 53.069 27.7183 49.8184 27.7178C49.5559 27.7178 49.2938 27.713 49.0313 27.7051C48.8312 27.6992 48.7448 27.5755 48.7354 27.3887C48.729 27.2575 48.7266 27.1253 48.7266 26.9941C48.7261 25.0558 48.7251 23.117 48.7266 21.1787C48.7266 21.0154 48.7337 20.8503 48.7549 20.6885C48.7737 20.547 48.8719 20.4563 49.0118 20.4365C49.1408 20.4183 49.2733 20.4199 49.4043 20.4199C50.7179 20.4189 52.0312 20.4189 53.3448 20.4199C53.4432 20.4199 53.5412 20.4248 53.6397 20.4258ZM46.7432 22.7959C46.9359 22.8013 47.0513 22.9117 47.0557 23.0977C47.068 23.623 47.0679 24.1485 47.0694 24.6738C47.0709 25.3964 47.0748 26.1193 47.0655 26.8418C47.0595 27.2942 47.0274 27.3182 46.5411 27.3311C46.2788 27.338 46.0157 27.333 45.753 27.333C42.2413 27.333 38.7285 27.334 35.2168 27.334H24.4844C24.2547 27.334 24.0242 27.3385 23.795 27.3291C23.4396 27.3148 23.3804 27.268 23.377 26.9336C23.3676 26.0143 23.3706 25.0946 23.3711 24.1748C23.3711 23.8137 23.3715 23.4514 23.3858 23.0908C23.3933 22.9022 23.514 22.8008 23.7032 22.7959C23.9327 22.7895 24.1621 22.7861 24.3916 22.7861H46.0547C46.2842 22.7861 46.5137 22.7895 46.7432 22.7959ZM0.853553 4.99512C2.10194 4.99906 3.35029 4.99308 4.59867 5.00098C5.00438 5.00348 5.05178 5.05119 5.05375 5.46191C5.06065 6.90804 5.05815 8.35466 5.05765 9.80078C5.05765 10.5983 5.01482 10.7012 5.72562 10.6934V10.6924H5.82133C5.84469 10.6919 5.86878 10.692 5.89359 10.6914C5.90061 10.6912 5.90805 10.6924 5.91508 10.6924H7.9141C8.16022 10.666 8.41588 10.7174 8.66215 10.6797C8.8487 10.6511 8.9583 10.5489 8.96683 10.3633C8.97915 10.1009 8.97855 9.83757 8.97855 9.57519C8.98003 8.22872 8.97458 6.88163 8.98148 5.53516C8.98395 5.03501 9.01295 5.00247 9.46293 5C10.8415 4.99309 12.2201 4.99407 13.5987 5.00098C13.9294 5.00246 14.0038 5.08417 14.0196 5.4043C14.0309 5.6336 14.0254 5.86395 14.0254 6.09375V26.0986C14.0254 26.3285 14.0314 26.5597 14.0196 26.7891C14.0008 27.1488 13.9171 27.2348 13.5303 27.2363C11.7749 27.242 10.0191 27.2416 8.26371 27.2373V27.2402H5.70121V27.2353C3.96325 27.2412 2.2253 27.2419 0.487342 27.2353C0.0994779 27.2339 0.0251093 27.1502 0.00784982 26.7754C-0.00397936 26.513 0.00199044 26.2492 0.00199044 25.9863V16.124H0.00101388C0.00101401 12.7054 0.00250162 9.28676 3.73172e-05 5.86816C-0.000455928 4.96953 -0.006994 4.99216 0.853553 4.99512ZM6.13871 15.4277C5.81349 15.4425 5.37397 15.3712 5.17094 15.583C4.91316 15.8627 5.06647 16.2757 5.06351 16.6279C5.05021 18.2383 5.05765 19.8491 5.05863 21.46C5.05863 21.6898 5.05799 21.9206 5.07523 22.1494C5.08608 22.292 5.18178 22.3842 5.32816 22.3965C5.46399 22.4076 5.60088 22.4071 5.73734 22.4111H7.68949C7.69037 22.4096 7.69154 22.4078 7.69242 22.4062C7.98024 22.4062 8.30611 22.4097 8.6309 22.4053C8.87191 22.4023 8.97562 22.266 8.97562 22.0322C8.97562 21.2766 8.97806 20.5213 8.97855 19.7656C8.97905 18.5172 8.98399 17.2689 8.9766 16.0205C8.97363 15.5094 8.94241 15.4924 8.40531 15.4687C8.17725 15.4584 7.94929 15.445 7.72172 15.4297C7.72001 15.4296 7.71853 15.428 7.71683 15.4277H6.13871ZM37.6358 4.00391C38.0707 4.00589 38.123 4.07088 38.1338 4.53223C38.1447 4.99194 38.1396 5.4524 38.1475 5.91211C38.1511 6.1047 38.2626 6.20649 38.4532 6.21191C38.7152 6.2193 38.9777 6.22265 39.2403 6.22266C41.1442 6.22364 43.0483 6.22265 44.9522 6.22363C45.1818 6.22363 45.4121 6.22348 45.6407 6.24121C45.7836 6.25206 45.8709 6.35215 45.8946 6.49316C45.9108 6.58932 45.917 6.6885 45.917 6.78613C45.9185 7.83726 45.9235 8.8893 45.9151 9.94043C45.9106 10.4999 45.885 10.5224 45.2803 10.5244C43.7704 10.5303 42.2605 10.5264 40.751 10.5264H38.0157V10.5273C37.9532 10.8045 37.9016 11.0241 37.8565 11.2334C37.9949 11.3782 38.2091 11.5997 38.4483 11.8271L38.8731 12.2119L39.1905 12.4287C39.9204 12.9396 40.5795 13.4832 41.3428 13.8643C42.2234 14.3036 43.1189 14.7079 44.0713 14.958C45.0146 15.2056 45.9696 15.4106 47.0479 15.6641C46.3554 17.124 45.715 18.4859 45.0635 19.8428C44.8881 20.2087 44.8111 20.2433 44.3536 20.168C43.3185 19.9973 42.2978 19.758 41.3125 19.3955C39.6111 18.7701 38.0422 17.9095 36.6123 16.7187L35.6817 15.7471C35.1292 16.366 34.486 16.9243 33.752 17.4199C32.4065 18.3284 30.9152 18.9225 29.3721 19.3936C28.241 19.7388 27.0821 19.9669 25.9141 20.1475C25.3959 20.2273 25.3485 20.2085 25.1495 19.7656C24.5846 18.5099 24.031 17.2492 23.4825 16.0127C23.6505 15.6857 23.9335 15.7152 24.1778 15.6777C25.3789 15.4933 26.5645 15.2415 27.7237 14.8721C28.4141 14.6521 29.0802 14.3733 29.7032 14.0059C30.8195 13.3479 31.6136 12.4182 32.003 11.166C32.0616 10.9776 32.1132 10.7862 32.0176 10.5879C31.7017 10.4764 31.3702 10.5312 31.045 10.5303C29.1741 10.5244 27.3026 10.5273 25.4317 10.5273C25.2675 10.5273 25.1022 10.5313 24.9385 10.5234C24.6042 10.5076 24.524 10.444 24.5196 10.123C24.5141 9.72892 24.5132 9.33467 24.5127 8.94043V7.16699C24.5137 6.96974 24.5166 6.77214 24.5225 6.57519C24.5296 6.34265 24.6674 6.22656 24.9024 6.22656C25.2961 6.22656 25.6898 6.22315 26.084 6.22266C27.8569 6.22266 29.6295 6.22315 31.4024 6.22266C31.5988 6.22265 31.7958 6.21881 31.9922 6.21191C32.1848 6.20551 32.2914 6.10077 32.295 5.90918C32.3024 5.51512 32.3008 5.12061 32.3067 4.72656C32.3091 4.5628 32.302 4.39417 32.336 4.23633C32.3529 4.15962 32.4434 4.07854 32.5205 4.04199C32.6043 4.00256 32.7121 4.00293 32.8096 4.00293C34.4184 4.00096 36.027 3.997 37.6358 4.00391ZM62.0537 4.44629C63.2471 4.44409 64.4406 4.4427 65.6338 4.45703C66.1236 4.46295 66.6202 4.51664 67.0996 4.61523C68.728 4.95062 69.7968 5.91551 70.2168 7.54004C70.4933 8.60892 70.4983 9.69383 70.211 10.7607C69.7521 12.4638 68.6142 13.4255 66.8858 13.7002C66.2682 13.7984 65.646 13.8336 65.0196 13.8271C64.1656 13.8183 63.3111 13.8251 62.4571 13.832C62.2374 13.834 62.0823 13.9314 62.0782 14.1807C62.0762 14.3124 62.0723 14.4445 62.0733 14.5762C62.0782 15.2145 62.0888 15.2348 62.7432 15.2363C65.273 15.2413 67.8033 15.2383 70.333 15.2393C71.3888 15.2397 71.2979 15.1656 71.2998 16.1826C71.3018 17.0705 71.3038 17.9588 71.295 18.8467C71.2915 19.1806 71.2255 19.2371 70.8838 19.251C70.6211 19.2613 70.358 19.2559 70.0948 19.2559H59.4502C55.8685 19.2559 52.2869 19.2564 48.7051 19.2549C48.41 19.2549 48.114 19.2517 47.8204 19.2236C47.7494 19.2167 47.6629 19.1155 47.6299 19.0381C47.5935 18.9528 47.605 18.8442 47.6045 18.7461C47.6035 17.7266 47.5996 16.707 47.6075 15.6875C47.6109 15.285 47.6525 15.2526 48.0752 15.2412C48.4034 15.2328 48.732 15.2378 49.0606 15.2373C51.2948 15.2373 53.5295 15.2378 55.7637 15.2373C55.9933 15.2373 56.2235 15.232 56.4532 15.2266C56.6518 15.2216 56.7617 15.097 56.7657 14.918C56.7952 13.7107 56.894 13.838 55.7637 13.8213C54.5493 13.8035 53.3336 13.8844 52.1211 13.7197C50.19 13.4573 48.9674 12.3068 48.5899 10.4043C48.3933 9.41497 48.4229 8.43927 48.6827 7.47461C49.1085 5.89138 50.1655 4.95505 51.7481 4.61719C52.2266 4.51512 52.7246 4.46343 53.2139 4.45801C54.5821 4.4419 55.9502 4.44403 57.3184 4.44629L57.3194 4.44433H62.0537V4.44629ZM57.4405 8.29687C57.0955 8.29687 56.7503 8.29906 56.4053 8.2998C55.7809 8.30128 55.1567 8.30318 54.5323 8.30762C54.2081 8.31017 53.9576 8.43784 53.8399 8.75586C53.7043 9.12136 53.7324 9.4731 54.003 9.76758C54.0848 9.85628 54.2207 9.92316 54.3409 9.94238C54.5659 9.97832 54.7979 9.98242 55.0274 9.98242C57.9847 9.98439 60.9422 9.98389 63.8995 9.9834C64.0635 9.9834 64.229 9.986 64.3916 9.96875C64.8781 9.91795 65.1379 9.60025 65.1162 9.09473C65.0965 8.63057 64.8519 8.33515 64.3995 8.3164C63.7435 8.28879 63.0856 8.30276 62.4287 8.2998C62.1987 8.29882 61.9684 8.29759 61.7383 8.29687H57.4405Z" fill="#E51E25"/>
<path d="M123.504 4.52539C123.65 4.52548 123.769 4.6449 123.769 4.79102V27.2266C123.769 27.3726 123.65 27.4911 123.504 27.4912H118.383C118.237 27.4911 118.118 27.3725 118.118 27.2266V4.79102C118.118 4.64492 118.236 4.52552 118.383 4.52539H123.504Z" fill="black"/>
<path fill-rule="evenodd" clip-rule="evenodd" d="M108.884 4.86816C111.007 4.86817 113.202 4.93494 114.677 6.73828C115.729 8.02531 116.306 10.0312 116.306 12.9121V19.1543C116.306 22.0349 115.729 24.0403 114.677 25.3271C113.616 26.6243 112.109 27.1494 110.36 27.1494H107.434C105.684 27.1494 104.177 26.6243 103.116 25.3271C102.064 24.0403 101.487 22.0351 101.487 19.1543V12.9121C101.487 10.0311 102.065 8.02531 103.116 6.73828C104.591 4.935 106.761 4.86816 108.884 4.86816ZM108.373 9.91602C108.146 9.94033 108.006 9.95964 107.872 10.0488C107.738 10.1388 107.608 10.2922 107.494 10.5527C107.262 11.0871 107.126 12.0089 107.126 13.5283V18.4541C107.126 19.9738 107.262 20.8964 107.494 21.4307C107.608 21.6908 107.738 21.8447 107.872 21.9346C108.006 22.0235 108.186 22.0566 108.386 22.1006C108.557 22.1377 109.629 22.1252 109.865 22.1006C110.031 22.0831 110.252 22.0235 110.385 21.9346C110.519 21.8446 110.65 21.6912 110.764 21.4307C110.996 20.8965 111.132 19.974 111.132 18.4541V13.5283C111.132 12.0093 110.996 11.0871 110.764 10.5527C110.651 10.2923 110.519 10.1388 110.385 10.0488C110.252 9.95974 110.092 9.91607 109.885 9.91602L109.136 9.89062L108.373 9.91602Z" fill="black"/>
<path d="M94.1255 4.22656C94.27 4.2267 94.3873 4.34389 94.3873 4.48842V26.6525C94.3872 26.797 94.2699 26.9142 94.1255 26.9144H90.1259C89.9814 26.9143 89.8642 26.797 89.8641 26.6525V18.1206H88.3676C88.223 18.1206 88.1057 18.0033 88.1057 17.8587V13.0409C88.1057 12.8962 88.223 12.779 88.3676 12.779H89.8641V4.48842C89.8641 4.34384 89.9814 4.22663 90.1259 4.22656H94.1255Z" fill="black"/>
<path d="M99.4138 4.23014C99.5583 4.23038 99.6757 4.34753 99.6757 4.492V26.6561C99.6756 26.8005 99.5582 26.9177 99.4138 26.918H95.3662C95.2217 26.918 95.1045 26.8007 95.1044 26.6561V4.492C95.1044 4.34738 95.2216 4.23014 95.3662 4.23014H99.4138Z" fill="black"/>
<path d="M81.2892 9.49845C81.4058 9.52195 81.4947 9.62363 81.4988 9.74701L81.8517 21.335H82.2128L82.5893 9.74599C82.5945 9.6053 82.7103 9.49439 82.8511 9.49436H86.7299C86.8014 9.49437 86.8698 9.52353 86.9192 9.57516C86.9684 9.62678 86.995 9.69619 86.9918 9.76747L86.5223 21.335H88.7661C88.9106 21.3352 89.028 21.4524 89.028 21.5969V26.1743C89.0279 26.3187 88.9105 26.436 88.7661 26.4362H75.5634C75.4188 26.4362 75.3016 26.3189 75.3015 26.1743V21.5969C75.3015 21.4522 75.4188 21.335 75.5634 21.335H77.5433L77.0963 9.76645C77.0934 9.69527 77.1196 9.62557 77.1689 9.57414C77.2183 9.52268 77.2869 9.49442 77.3582 9.49436H81.237L81.2892 9.49845Z" fill="black"/>
<path d="M88.5247 4.95333C88.6693 4.95333 88.7866 5.07057 88.7866 5.21519V9.79163C88.7866 9.93625 88.6693 10.0535 88.5247 10.0535H75.8048C75.6602 10.0535 75.5429 9.93625 75.5429 9.79163V5.21519C75.5429 5.07057 75.6602 4.95333 75.8048 4.95333H88.5247Z" fill="black"/>
</svg>
