<svg width="144" height="24" viewBox="0 0 144 24" fill="none" xmlns="http://www.w3.org/2000/svg">
<g clip-path="url(#clip0_226_8254)">
<path d="M17.8506 0.470291H21.1982C21.3621 0.470295 21.526 0.473194 21.6894 0.476151C21.9214 0.480587 22.0564 0.600069 22.0683 0.830643C22.0816 1.09254 22.0791 1.35633 22.0791 1.61873C22.0796 5.13267 22.08 8.64678 22.08 12.1607V22.6041C22.08 22.8338 22.0835 23.0643 22.0742 23.2935C22.0599 23.6402 22.0043 23.706 21.6767 23.7125C21.1519 23.7233 20.6269 23.7174 20.1015 23.7174C19.1828 23.7174 18.2634 23.7223 17.3447 23.7144C16.8697 23.7105 16.8283 23.6643 16.8115 23.231C16.8041 23.0344 16.8076 22.8369 16.8076 22.6402V1.55525C16.8076 0.38434 16.7349 0.470774 17.8506 0.470291ZM53.6396 16.4254C53.8856 16.4278 53.9887 16.574 53.9931 16.7974C54.0015 17.2245 53.9846 17.6526 54.0049 18.0787C54.0264 18.5314 53.8133 19.0897 54.1162 19.4117C54.4607 19.7777 55.0497 19.5499 55.5283 19.5513C60.1249 19.5642 64.7217 19.5587 69.3183 19.5592C69.6134 19.5592 69.909 19.5615 70.2041 19.5679C70.3948 19.5719 70.5161 19.6754 70.5166 19.8658C70.522 21.0481 70.5205 22.2313 70.5175 23.4137C70.5169 23.6086 70.3955 23.7035 70.208 23.7086C69.9458 23.7155 69.6826 23.7183 69.4199 23.7183C66.1369 23.7188 62.8533 23.7174 59.5703 23.7174C56.3197 23.7174 53.0689 23.7179 49.8183 23.7174C49.5558 23.7174 49.2938 23.7126 49.0312 23.7047C48.8312 23.6987 48.7447 23.5751 48.7353 23.3883C48.7289 23.2571 48.7265 23.1249 48.7265 22.9937C48.726 21.0554 48.7251 19.1166 48.7265 17.1783C48.7265 17.015 48.7337 16.8499 48.7549 16.6881C48.7736 16.5466 48.8718 16.4559 49.0117 16.4361C49.1407 16.4179 49.2733 16.4195 49.4043 16.4195C50.7178 16.4185 52.0312 16.4185 53.3447 16.4195C53.4432 16.4195 53.5411 16.4244 53.6396 16.4254ZM46.7431 18.7955C46.9359 18.8009 47.0512 18.9113 47.0556 19.0972C47.068 19.6226 47.0678 20.1481 47.0693 20.6734C47.0708 21.396 47.0748 22.1188 47.0654 22.8414C47.0595 23.2938 47.0273 23.3178 46.541 23.3306C46.2788 23.3375 46.0156 23.3326 45.7529 23.3326C42.2413 23.3326 38.7284 23.3336 35.2168 23.3336H24.4843C24.2547 23.3336 24.0241 23.3381 23.7949 23.3287C23.4395 23.3144 23.3804 23.2676 23.3769 22.9332C23.3676 22.0139 23.3706 21.0942 23.3711 20.1744C23.3711 19.8133 23.3714 19.451 23.3857 19.0904C23.3933 18.9018 23.514 18.8004 23.7031 18.7955C23.9326 18.7891 24.1621 18.7857 24.3916 18.7857H46.0547C46.2841 18.7857 46.5136 18.7891 46.7431 18.7955ZM0.853485 0.994705C2.10187 0.99865 3.35022 0.992673 4.5986 1.00056C5.00431 1.00306 5.05171 1.05078 5.05368 1.4615C5.06058 2.90763 5.05808 4.35424 5.05759 5.80037C5.05759 6.59784 5.01476 6.70077 5.72556 6.69295V6.69197H5.82126C5.84462 6.69148 5.86871 6.69163 5.89352 6.69099C5.90054 6.69082 5.90798 6.69204 5.91501 6.69197H7.91403C8.16016 6.66559 8.41581 6.71701 8.66208 6.67928C8.84863 6.65066 8.95823 6.54848 8.96677 6.36287C8.97909 6.1005 8.97849 5.83716 8.97849 5.57478C8.97996 4.22831 8.97452 2.88122 8.98141 1.53474C8.98388 1.0346 9.01289 1.00206 9.46286 0.999588C10.8414 0.992683 12.22 0.993659 13.5986 1.00056C13.9293 1.00204 14.0037 1.08376 14.0195 1.40388C14.0308 1.63319 14.0254 1.86354 14.0254 2.09334V22.0982C14.0254 22.3281 14.0313 22.5593 14.0195 22.7887C14.0007 23.1484 13.917 23.2344 13.5302 23.2359C11.7749 23.2416 10.0191 23.2412 8.26364 23.2369V23.2398H5.70114V23.2349C3.96319 23.2407 2.22523 23.2415 0.487274 23.2349C0.0994101 23.2335 0.0250414 23.1498 0.00778198 22.775C-0.00404719 22.5126 0.00192261 22.2488 0.00192261 21.9859V12.1236H0.000946045C0.000946174 8.70502 0.00243379 5.28635 -3.05176e-05 1.86775C-0.000523763 0.969124 -0.00706184 0.991746 0.853485 0.994705ZM6.13864 11.4273C5.81342 11.4421 5.3739 11.3708 5.17087 11.5826C4.91309 11.8623 5.0664 12.2753 5.06345 12.6275C5.05014 14.2379 5.05758 15.8487 5.05856 17.4595C5.05856 17.6894 5.05792 17.9202 5.07516 18.149C5.08601 18.2916 5.18171 18.3837 5.32809 18.3961C5.46393 18.4072 5.60081 18.4067 5.73727 18.4107H7.68942C7.6903 18.4091 7.69147 18.4074 7.69235 18.4058C7.98017 18.4058 8.30604 18.4093 8.63083 18.4049C8.87184 18.4019 8.97555 18.2656 8.97556 18.0318C8.97556 17.2761 8.97799 16.5209 8.97849 15.7652C8.97898 14.5168 8.98392 13.2685 8.97653 12.0201C8.97356 11.509 8.94234 11.492 8.40524 11.4683C8.17718 11.458 7.94922 11.4446 7.72165 11.4293C7.71995 11.4292 7.71846 11.4276 7.71677 11.4273H6.13864ZM37.6357 0.00349426C38.0707 0.0054821 38.1229 0.0704707 38.1338 0.531815C38.1446 0.991527 38.1395 1.45198 38.1474 1.9117C38.151 2.10429 38.2625 2.20608 38.4531 2.2115C38.7151 2.21889 38.9777 2.22224 39.2402 2.22224C41.1441 2.22323 43.0482 2.22223 44.9521 2.22322C45.1817 2.22322 45.412 2.22307 45.6406 2.2408C45.7835 2.25165 45.8708 2.35174 45.8945 2.49275C45.9108 2.58891 45.917 2.68809 45.917 2.78572C45.9184 3.83685 45.9234 4.88889 45.915 5.94002C45.9106 6.49953 45.8849 6.52203 45.2802 6.524C43.7703 6.52992 42.2604 6.52596 40.7509 6.52596H38.0156V6.52693C37.9531 6.8041 37.9015 7.02367 37.8564 7.23299C37.9948 7.37775 38.209 7.59929 38.4482 7.82674L38.873 8.2115L39.1904 8.4283C39.9203 8.93918 40.5794 9.48277 41.3427 9.86385C42.2233 10.3032 43.1188 10.7075 44.0713 10.9576C45.0145 11.2052 45.9695 11.4102 47.0478 11.6637C46.3554 13.1236 45.715 14.4855 45.0634 15.8424C44.888 16.2083 44.811 16.2429 44.3535 16.1676C43.3184 15.9969 42.2977 15.7576 41.3125 15.3951C39.6111 14.7697 38.0421 13.909 36.6123 12.7183L35.6816 11.7467C35.1291 12.3656 34.4859 12.9239 33.7519 13.4195C32.4064 14.328 30.9152 14.9221 29.372 15.3931C28.241 15.7384 27.0821 15.9665 25.914 16.147C25.3958 16.2269 25.3485 16.2081 25.1494 15.7652C24.5846 14.5095 24.0309 13.2488 23.4824 12.0123C23.6504 11.6853 23.9334 11.7147 24.1777 11.6773C25.3788 11.4929 26.5644 11.2411 27.7236 10.8717C28.4141 10.6517 29.0801 10.3729 29.7031 10.0054C30.8194 9.3475 31.6135 8.41782 32.0029 7.1656C32.0616 6.97718 32.1132 6.78577 32.0175 6.58748C31.7017 6.47602 31.3701 6.53083 31.0449 6.52986C29.174 6.52394 27.3025 6.52693 25.4316 6.52693C25.2675 6.52693 25.1021 6.53092 24.9384 6.52303C24.6042 6.5072 24.5239 6.4436 24.5195 6.12263C24.5141 5.72851 24.5132 5.33426 24.5127 4.94002V3.16658C24.5136 2.96933 24.5165 2.77173 24.5224 2.57478C24.5295 2.34224 24.6673 2.22615 24.9023 2.22615C25.296 2.22615 25.6898 2.22274 26.084 2.22224C27.8568 2.22224 29.6294 2.22274 31.4023 2.22224C31.5988 2.22224 31.7957 2.2184 31.9922 2.2115C32.1847 2.20509 32.2913 2.10036 32.2949 1.90877C32.3023 1.51471 32.3007 1.1202 32.3066 0.726151C32.3091 0.56239 32.3019 0.393757 32.3359 0.235916C32.3528 0.159211 32.4433 0.07813 32.5205 0.0415802C32.6042 0.0021462 32.712 0.00251706 32.8095 0.0025177C34.4183 0.000544684 36.0269 -0.00341129 37.6357 0.00349426ZM62.0537 0.445877C63.247 0.443675 64.4405 0.442288 65.6338 0.456619C66.1235 0.462539 66.6201 0.516225 67.0996 0.614822C68.7279 0.950207 69.7968 1.91509 70.2168 3.53963C70.4933 4.60851 70.4983 5.69342 70.2109 6.76033C69.752 8.46334 68.6141 9.42504 66.8857 9.69978C66.2681 9.79794 65.646 9.83315 65.0195 9.82674C64.1655 9.81786 63.311 9.82471 62.457 9.83162C62.2373 9.83359 62.0822 9.93098 62.0781 10.1803C62.0761 10.312 62.0722 10.4441 62.0732 10.5758C62.0781 11.214 62.0888 11.2344 62.7431 11.2359C65.2729 11.2408 67.8032 11.2379 70.333 11.2388C71.3887 11.2393 71.2978 11.1652 71.2998 12.1822C71.3017 13.0701 71.3038 13.9584 71.2949 14.8463C71.2914 15.1802 71.2254 15.2367 70.8838 15.2506C70.6211 15.2609 70.3579 15.2554 70.0947 15.2554H59.4502C55.8684 15.2554 52.2868 15.256 48.705 15.2545C48.41 15.2545 48.1139 15.2513 47.8203 15.2232C47.7493 15.2163 47.6629 15.1151 47.6299 15.0377C47.5935 14.9524 47.605 14.8438 47.6045 14.7457C47.6035 13.7261 47.5995 12.7066 47.6074 11.6871C47.6109 11.2846 47.6524 11.2521 48.0752 11.2408C48.4033 11.2324 48.7319 11.2374 49.0605 11.2369C51.2947 11.2369 53.5294 11.2374 55.7636 11.2369C55.9933 11.2369 56.2235 11.2316 56.4531 11.2262C56.6517 11.2212 56.7617 11.0966 56.7656 10.9176C56.7952 9.71024 56.8939 9.83761 55.7636 9.82088C54.5492 9.80312 53.3335 9.88403 52.1211 9.71931C50.1899 9.4569 48.9674 8.30637 48.5898 6.40388C48.3932 5.41456 48.4229 4.43886 48.6826 3.4742C49.1085 1.89097 50.1654 0.95464 51.748 0.616776C52.2265 0.514713 52.7245 0.463021 53.2138 0.457596C54.582 0.44149 55.9502 0.443617 57.3183 0.445877L57.3193 0.443924H62.0537V0.445877ZM57.4404 4.29646C57.0954 4.29646 56.7502 4.29865 56.4052 4.29939C55.7808 4.30087 55.1566 4.30277 54.5322 4.30721C54.2081 4.30976 53.9576 4.43743 53.8398 4.75545C53.7043 5.12095 53.7323 5.47269 54.0029 5.76717C54.0847 5.85586 54.2206 5.92275 54.3408 5.94197C54.5659 5.97791 54.7978 5.98201 55.0273 5.98201C57.9846 5.98398 60.9421 5.98348 63.8994 5.98299C64.0635 5.98299 64.229 5.98559 64.3916 5.96834C64.878 5.91754 65.1378 5.59984 65.1162 5.09431C65.0965 4.63016 64.8519 4.33474 64.3994 4.31599C63.7435 4.28838 63.0856 4.30235 62.4287 4.29939C62.1986 4.29841 61.9683 4.29718 61.7383 4.29646H57.4404Z" fill="#E51E25"/>
<path d="M116.889 12.4906C118.106 12.4906 118.002 12.4054 118.004 13.6039C118.006 15.2799 118.005 16.9561 118.004 18.6322C118.004 18.8619 118 19.0924 117.979 19.3206C117.966 19.4639 117.86 19.5557 117.72 19.5648C117.425 19.583 117.13 19.5902 116.835 19.5902C112.501 19.5917 108.166 19.5916 103.832 19.5921C103.569 19.5921 103.306 19.5901 103.044 19.598C102.88 19.6029 102.704 19.6138 102.651 19.8148C102.593 20.0377 102.562 20.2722 102.702 20.473C102.748 20.5391 102.869 20.5799 102.958 20.5853C103.253 20.6026 103.548 20.6019 103.844 20.6019C108.309 20.6029 112.775 20.6039 117.24 20.6009C118.482 20.5999 118.378 20.5783 118.38 21.7093C118.381 22.3007 118.386 22.8929 118.373 23.4837C118.365 23.8459 118.27 23.9308 117.893 23.9486C117.631 23.9609 117.368 23.9544 117.105 23.9544C113.92 23.9544 110.735 23.9535 107.55 23.9535C104.332 23.9535 101.113 23.954 97.8954 23.9535C97.6327 23.9535 97.3695 23.9561 97.1083 23.9349C96.9329 23.9206 96.8057 23.8192 96.7899 23.6244C96.7821 23.5263 96.7743 23.4275 96.7743 23.3294C96.7733 21.3579 96.7733 19.3859 96.7743 17.4144C96.7743 17.2832 96.7785 17.151 96.7987 17.0218C96.8204 16.8798 96.9186 16.7817 97.0575 16.7718C97.3511 16.7511 97.6467 16.7455 97.9413 16.7455C102.243 16.744 106.545 16.7445 110.847 16.7445C111.109 16.7445 111.372 16.7499 111.635 16.7406C112.085 16.7242 112.306 16.3492 112.108 15.9281C112.074 15.8541 111.968 15.7753 111.889 15.7679C111.595 15.7413 111.299 15.7357 111.005 15.7357C106.703 15.7342 102.401 15.7352 98.0995 15.7337C96.6066 15.7338 96.7837 15.8432 96.7733 14.4193C96.7699 13.9266 96.7674 13.433 96.7821 12.9408C96.792 12.6155 96.8854 12.52 97.1874 12.5013C97.449 12.4851 97.712 12.4906 97.9745 12.4906C104.279 12.4906 110.584 12.4901 116.889 12.4906ZM85.7616 14.4622H89.7021V14.4642C91.2783 14.4642 92.8553 14.4592 94.4315 14.4671C94.9258 14.4696 94.9984 14.5402 94.9999 15.0414C95.0073 17.2107 95.0043 19.3798 95.0038 21.5492C95.0038 22.2066 95.0078 22.8635 94.994 23.5208C94.9876 23.8384 94.8923 23.9239 94.5829 23.9437C94.4849 23.9501 94.3865 23.9528 94.288 23.9535H81.6073L81.6064 23.9525H77.8983L77.8993 23.9535C76.4543 23.9535 75.0084 23.9544 73.5634 23.9535C73.3339 23.9535 73.1029 23.9571 72.8749 23.9349C72.697 23.9176 72.5762 23.8065 72.5644 23.6156C72.552 23.4193 72.5463 23.222 72.5458 23.0247C72.5448 20.4934 72.5448 17.9619 72.5448 15.431C72.5448 15.3654 72.5438 15.2993 72.5448 15.2337C72.5616 14.49 72.5751 14.4652 73.331 14.4642C76.0518 14.4598 78.7729 14.4624 81.494 14.4642V14.4632H85.0839C85.3094 14.4611 85.5358 14.4622 85.7616 14.4622ZM134.689 15.6185C135.074 15.62 135.143 15.6966 135.151 16.0902C135.163 16.6484 135.152 17.2072 135.158 17.766C135.166 18.5417 135.169 18.5432 135.902 18.555C136.132 18.559 136.362 18.555 136.592 18.555C138.693 18.555 140.796 18.5555 142.897 18.556C143.16 18.556 143.423 18.5539 143.684 18.5716C143.87 18.5845 143.971 18.7062 143.986 18.8929C143.994 18.991 143.999 19.0898 143.999 19.1878C143.999 20.4036 144.003 21.6196 143.994 22.8353C143.991 23.2284 143.909 23.3058 143.544 23.3236C143.282 23.3359 143.018 23.3299 142.756 23.3304H132.017V23.3314L132.018 23.3324H121.476C121.214 23.3324 120.95 23.3379 120.688 23.3255C120.362 23.3102 120.254 23.222 120.252 22.9242C120.243 21.6098 120.243 20.2952 120.251 18.9808C120.253 18.6673 120.356 18.5772 120.668 18.5628C120.93 18.5505 121.193 18.556 121.456 18.556H127.859C128.122 18.556 128.386 18.561 128.648 18.5492C128.976 18.5343 129.062 18.4561 129.078 18.1488C129.092 17.8864 129.085 17.6226 129.087 17.3597C129.089 16.9327 129.08 16.505 129.093 16.0785C129.104 15.6942 129.171 15.6195 129.567 15.6175C131.274 15.6101 132.982 15.6111 134.689 15.6185ZM79.4657 18.389C79.1046 18.389 78.7429 18.3909 78.3817 18.3939C78.1509 18.396 78.0064 18.5046 77.9999 18.7435C77.9915 19.0719 77.9915 19.401 77.9999 19.7289C78.0063 19.9669 78.1543 20.0793 78.3808 20.0824C78.8406 20.0888 79.3008 20.0882 79.7607 20.0892C80.3384 20.0903 80.9163 20.0923 81.494 20.0931V20.0912H85.5429V20.096C85.9186 20.0942 86.2943 20.0913 86.6698 20.0902C87.5234 20.0872 88.3778 20.0888 89.2314 20.0824C89.4605 20.0809 89.6014 19.9583 89.6064 19.721C89.6128 19.3926 89.6133 19.0641 89.6054 18.7357C89.5989 18.4889 89.4358 18.4004 89.2138 18.3949C88.9841 18.3894 88.753 18.389 88.5233 18.389C87.779 18.3887 87.0344 18.3874 86.2899 18.3871V18.389H81.5634L81.5624 18.3851C80.8636 18.3859 80.1644 18.3884 79.4657 18.389ZM134.183 0.76889C135.175 0.770448 136.168 0.775766 137.16 0.793304C138.02 0.808594 138.85 1.00786 139.644 1.33334C140.884 1.84039 141.788 2.69841 142.327 3.93491C142.539 4.41928 142.698 4.92287 142.781 5.43881C143.022 6.93861 143.04 8.43904 142.721 9.93588C142.189 12.4224 140.624 13.8257 137.977 14.2415C137.622 14.2973 137.263 14.3576 136.904 14.3695C136.282 14.3902 135.659 14.3753 135.036 14.3753V14.39H135.037C134.444 14.39 133.851 14.3952 133.258 14.388V14.389L131.151 14.3861C131.15 14.3861 131.148 14.3871 131.146 14.3871C129.54 14.3639 127.928 14.5098 126.33 14.2464C125.91 14.1774 125.486 14.1022 125.082 13.972C123.41 13.4333 122.257 12.3553 121.722 10.6537C121.524 10.0249 121.371 9.39016 121.342 8.72787C121.287 7.47896 121.257 6.23392 121.561 5.00424C122.095 2.85043 123.435 1.52162 125.588 1.0101C126.131 0.880873 126.68 0.783053 127.242 0.783539C127.833 0.784032 128.425 0.783539 129.016 0.783539L129.015 0.769867C129.469 0.769867 129.923 0.767389 130.377 0.767914V0.766937H134.184L134.183 0.76889ZM78.9189 0.472992C78.9519 0.470922 78.9882 0.472246 79.0273 0.474945C79.7463 0.525248 80.4677 0.57415 81.1581 0.811859C82.3363 1.21736 83.2014 1.96835 83.6972 3.12338C83.7745 3.30386 83.8445 3.48876 83.9091 3.67416C84.2275 4.58422 84.3083 4.63618 85.2187 4.52963C85.462 4.50098 85.5516 4.35057 85.5605 4.13412C85.5713 3.87171 85.5707 3.60845 85.5712 3.34604C85.5737 2.55795 85.5642 1.76987 85.579 0.981781C85.5869 0.554768 85.6749 0.473083 86.119 0.469086C87.1689 0.459714 88.2201 0.458707 89.2704 0.471039C89.7013 0.476022 89.7855 0.563896 89.787 1.00522C89.7944 2.94255 89.7909 4.88038 89.7909 6.81772H89.7929V11.9417C89.7929 12.1714 89.7978 12.402 89.7909 12.6312C89.7751 13.169 89.7393 13.2186 89.244 13.223C88.1938 13.2319 87.1439 13.2314 86.0937 13.222C85.6665 13.218 85.5893 13.1396 85.58 12.6878C85.5647 11.9328 85.5732 11.1773 85.5712 10.4222C85.5702 10.1268 85.5772 9.83046 85.5634 9.53549C85.5466 9.16471 85.4738 9.1055 85.0722 9.08725C84.9742 9.08283 84.8757 9.08383 84.7773 9.08432C84.3884 9.08699 84.1332 9.26268 84.0126 9.61264C83.9702 9.73685 83.9363 9.8644 83.8944 9.98862C83.2862 11.8018 81.9786 12.7516 80.1308 13.0121C79.7844 13.061 79.4294 13.0564 79.0771 13.057L79.078 13.0638H76.6659V13.057C76.4093 13.0517 76.1527 13.0406 75.9003 13.0052C74.2464 12.7738 73.0345 11.9371 72.4071 10.3529C72.2391 9.92835 72.0705 9.49196 71.995 9.04526C71.721 7.41518 71.7059 5.78217 72.0839 4.16147C72.1963 3.68005 72.3874 3.22541 72.619 2.79135C73.1538 1.78964 73.966 1.12298 75.0507 0.776703C75.7096 0.56637 75.8562 0.585005 76.5243 0.523773H76.5253C76.5253 0.523773 76.5288 0.523133 76.5351 0.522797C76.537 0.522619 76.539 0.522976 76.5409 0.522797C76.5447 0.522453 76.5488 0.522129 76.5526 0.52182C76.7281 0.512461 77.7064 0.461273 78.0419 0.461273C78.3159 0.461278 78.7257 0.469346 78.9189 0.472992ZM91.8378 0.463226C92.6909 0.46372 93.5442 0.457269 94.3974 0.467133C94.9469 0.473545 94.9984 0.524238 95.0009 1.10776C95.0083 3.01205 95.0033 4.91733 95.0038 6.82162C95.0038 8.56229 95.0043 10.3026 95.0038 12.0433C95.0038 12.3062 95.0044 12.569 94.995 12.8314C94.9876 13.0517 94.8927 13.2142 94.6483 13.2142C93.4674 13.2157 92.2863 13.2143 91.1054 13.2074C90.9093 13.2063 90.8208 13.0646 90.8114 12.8841C90.7991 12.655 90.7997 12.4248 90.7997 12.1956C90.7992 8.6161 90.7997 5.03593 90.7987 1.45639C90.7987 0.406091 90.7488 0.462729 91.8378 0.463226ZM104.408 0.476898C104.456 0.472568 104.51 0.471317 104.57 0.472015C104.686 0.473288 104.801 0.477139 104.917 0.479828L105.083 0.481781L105.082 0.484711C105.895 0.509747 106.705 0.579589 107.498 0.793304C109.305 1.27966 110.664 2.39683 110.962 4.72299C111.11 5.88491 111.062 7.0146 110.748 8.13608C110.418 9.31333 109.69 10.1547 108.586 10.6751C107.897 11.0002 107.18 11.2283 106.417 11.2787C105.807 11.3191 105.197 11.3504 104.587 11.3714V11.3812H102.605L101.621 11.3568C100.639 11.3144 99.6695 11.1959 98.7382 10.8011C97.4404 10.2511 96.5974 9.31742 96.2538 7.94272C95.9039 6.54249 95.9128 5.14754 96.3065 3.75717C96.6397 2.58044 97.3773 1.74704 98.4608 1.20248C98.934 0.964747 99.4302 0.781489 99.9472 0.694672C100.559 0.591971 101.176 0.50638 101.796 0.477875L101.794 0.461273L104.408 0.476898ZM117.105 0.465179C117.302 0.465188 117.499 0.471828 117.694 0.491547C117.884 0.510836 117.987 0.640747 117.99 0.822601C118.002 1.44706 117.995 2.07217 118.01 2.69662C118.02 3.14298 118.069 3.18918 118.536 3.20053C119.028 3.21237 119.522 3.19991 120.015 3.21323C120.314 3.22113 120.41 3.32877 120.43 3.63803C120.44 3.8016 120.437 3.96616 120.437 4.13022C120.438 5.18233 120.435 6.23485 120.438 7.28647C120.442 8.32075 120.454 8.28014 119.49 8.27866C119.129 8.27816 118.768 8.27267 118.407 8.28745C118.095 8.29977 118.021 8.37991 118.012 8.71909C117.999 9.1788 118.007 9.63974 118.005 10.0999C118.004 10.3628 118.004 10.6261 117.997 10.889C117.99 11.1293 117.849 11.2384 117.621 11.2455C117.424 11.2514 117.226 11.2518 117.029 11.2523C116.438 11.2533 115.847 11.2523 115.256 11.2523V11.2503L115.255 11.2513C114.565 11.2513 113.875 11.2587 113.185 11.2484C112.78 11.2425 112.718 11.1742 112.697 10.804C112.69 10.673 112.691 10.5411 112.691 10.4095C112.691 7.38488 112.689 4.35993 112.692 1.3353C112.693 0.473076 112.701 0.468632 113.558 0.465179C114.74 0.460248 115.923 0.462713 117.105 0.465179ZM134.215 5.50229C133.909 5.4911 133.599 5.53516 133.293 5.52084V5.52182L130.711 5.50327L130.71 5.50131C130.156 5.50373 129.602 5.50437 129.048 5.50815C128.687 5.51061 128.324 5.49855 127.966 5.53159C127.186 5.6036 126.681 6.04353 126.532 6.79623C126.429 7.31405 126.421 7.8463 126.545 8.36264C126.694 8.98458 127.066 9.40208 127.718 9.55502C128.042 9.63148 128.366 9.64779 128.694 9.64877C129.345 9.64995 129.997 9.65019 130.648 9.65463L130.649 9.65268H133.75L133.749 9.65366C134.349 9.65119 134.949 9.65248 135.549 9.6478C135.81 9.64582 136.077 9.6502 136.333 9.6058C137.142 9.46472 137.622 8.98556 137.728 8.17221C137.779 7.78554 137.779 7.38311 137.735 6.99545C137.635 6.09542 137.088 5.57668 136.183 5.5267C135.528 5.49069 134.87 5.52596 134.215 5.50229ZM78.1034 4.94565C77.7407 4.94567 77.4422 4.9861 77.2235 5.02963C76.8447 5.11573 76.4732 5.20431 76.2372 5.56479C75.989 5.94453 75.9868 6.37064 75.9804 6.79721C75.9779 6.96093 75.9802 7.12569 75.997 7.28842C76.0683 7.98049 76.3218 8.29443 76.9657 8.48764C77.143 8.54164 77.6458 8.68587 78.0194 8.68588C78.4076 8.68588 78.8057 8.56824 78.9218 8.53159C78.9256 8.53053 78.9296 8.52968 78.9335 8.52866C79.8793 8.28351 80.1274 7.97698 80.1708 7.04721C80.1802 6.8509 80.1788 6.65221 80.163 6.45639C80.1151 5.87445 79.9195 5.42059 79.4315 5.18198C79.3488 5.14709 78.8394 4.94565 78.1034 4.94565ZM103.595 4.36557C103.404 4.36557 102.772 4.40257 102.513 4.4183C102.317 4.45341 102.122 4.48984 101.932 4.54428C101.439 4.68586 101.162 5.03094 101.095 5.53256C101.065 5.75879 101.061 5.99235 101.08 6.22006C101.132 6.84896 101.394 7.16995 102.001 7.34604C102.174 7.39618 102.35 7.43582 102.537 7.47592L102.897 7.52377C103.098 7.54769 103.34 7.57162 103.504 7.57162C103.744 7.57157 104.213 7.519 104.447 7.49155C104.661 7.44656 104.864 7.40309 105.062 7.34506C105.668 7.16898 105.931 6.84746 105.978 6.21616C105.998 5.95676 105.989 5.68842 105.945 5.43198C105.875 5.01231 105.616 4.72063 105.219 4.57065C105.081 4.51886 104.937 4.47268 104.792 4.44565L104.647 4.42514L104.211 4.39584C103.978 4.38082 103.716 4.36561 103.595 4.36557Z" fill="#5BB545"/>
<path d="M116.889 12.4906C118.106 12.4906 118.002 12.4054 118.004 13.6039C118.006 15.2799 118.005 16.9561 118.004 18.6322C118.004 18.8619 118 19.0924 117.979 19.3206C117.966 19.4639 117.86 19.5557 117.72 19.5648C117.425 19.583 117.13 19.5902 116.835 19.5902C112.501 19.5917 108.166 19.5916 103.832 19.5921C103.569 19.5921 103.306 19.5901 103.044 19.598C102.88 19.6029 102.704 19.6138 102.651 19.8148C102.593 20.0377 102.562 20.2722 102.702 20.473C102.748 20.5391 102.869 20.5799 102.958 20.5853C103.253 20.6026 103.548 20.6019 103.844 20.6019C108.309 20.6029 112.775 20.6039 117.24 20.6009C118.482 20.5999 118.378 20.5783 118.38 21.7093C118.381 22.3007 118.386 22.8929 118.373 23.4837C118.365 23.8459 118.27 23.9308 117.893 23.9486C117.631 23.9609 117.368 23.9544 117.105 23.9544C113.92 23.9544 110.735 23.9535 107.55 23.9535C104.332 23.9535 101.113 23.954 97.8954 23.9535C97.6327 23.9535 97.3695 23.9561 97.1083 23.9349C96.9329 23.9206 96.8057 23.8192 96.7899 23.6244C96.7821 23.5263 96.7743 23.4275 96.7743 23.3294C96.7733 21.3579 96.7733 19.3859 96.7743 17.4144C96.7743 17.2832 96.7785 17.151 96.7987 17.0218C96.8204 16.8798 96.9186 16.7817 97.0575 16.7718C97.3511 16.7511 97.6467 16.7455 97.9413 16.7455C102.243 16.744 106.545 16.7445 110.847 16.7445C111.109 16.7445 111.372 16.7499 111.635 16.7406C112.085 16.7242 112.306 16.3492 112.108 15.9281C112.074 15.8541 111.968 15.7753 111.889 15.7679C111.595 15.7413 111.299 15.7357 111.005 15.7357C106.703 15.7342 102.401 15.7352 98.0995 15.7337C96.6066 15.7338 96.7837 15.8432 96.7733 14.4193C96.7699 13.9266 96.7674 13.433 96.7821 12.9408C96.792 12.6155 96.8854 12.52 97.1874 12.5013C97.449 12.4851 97.712 12.4906 97.9745 12.4906C104.279 12.4906 110.584 12.4901 116.889 12.4906ZM85.7616 14.4622H89.7021V14.4642C91.2783 14.4642 92.8553 14.4592 94.4315 14.4671C94.9258 14.4696 94.9984 14.5402 94.9999 15.0414C95.0073 17.2107 95.0043 19.3798 95.0038 21.5492C95.0038 22.2066 95.0078 22.8635 94.994 23.5208C94.9876 23.8384 94.8923 23.9239 94.5829 23.9437C94.4849 23.9501 94.3865 23.9528 94.288 23.9535H81.6073L81.6064 23.9525H77.8983L77.8993 23.9535C76.4543 23.9535 75.0084 23.9544 73.5634 23.9535C73.3339 23.9535 73.1029 23.9571 72.8749 23.9349C72.697 23.9176 72.5762 23.8065 72.5644 23.6156C72.552 23.4193 72.5463 23.222 72.5458 23.0247C72.5448 20.4934 72.5448 17.9619 72.5448 15.431C72.5448 15.3654 72.5438 15.2993 72.5448 15.2337C72.5616 14.49 72.5751 14.4652 73.331 14.4642C76.0518 14.4598 78.7729 14.4624 81.494 14.4642V14.4632H85.0839C85.3094 14.4611 85.5358 14.4622 85.7616 14.4622ZM134.689 15.6185C135.074 15.62 135.143 15.6966 135.151 16.0902C135.163 16.6484 135.152 17.2072 135.158 17.766C135.166 18.5417 135.169 18.5432 135.902 18.555C136.132 18.559 136.362 18.555 136.592 18.555C138.693 18.555 140.796 18.5555 142.897 18.556C143.16 18.556 143.423 18.5539 143.684 18.5716C143.87 18.5845 143.971 18.7062 143.986 18.8929C143.994 18.991 143.999 19.0898 143.999 19.1878C143.999 20.4036 144.003 21.6196 143.994 22.8353C143.991 23.2284 143.909 23.3058 143.544 23.3236C143.282 23.3359 143.018 23.3299 142.756 23.3304H132.017V23.3314L132.018 23.3324H121.476C121.214 23.3324 120.95 23.3379 120.688 23.3255C120.362 23.3102 120.254 23.222 120.252 22.9242C120.243 21.6098 120.243 20.2952 120.251 18.9808C120.253 18.6673 120.356 18.5772 120.668 18.5628C120.93 18.5505 121.193 18.556 121.456 18.556H127.859C128.122 18.556 128.386 18.561 128.648 18.5492C128.976 18.5343 129.062 18.4561 129.078 18.1488C129.092 17.8864 129.085 17.6226 129.087 17.3597C129.089 16.9327 129.08 16.505 129.093 16.0785C129.104 15.6942 129.171 15.6195 129.567 15.6175C131.274 15.6101 132.982 15.6111 134.689 15.6185ZM79.4657 18.389C79.1046 18.389 78.7429 18.3909 78.3817 18.3939C78.1509 18.396 78.0064 18.5046 77.9999 18.7435C77.9915 19.0719 77.9915 19.401 77.9999 19.7289C78.0063 19.9669 78.1543 20.0793 78.3808 20.0824C78.8406 20.0888 79.3008 20.0882 79.7607 20.0892C80.3384 20.0903 80.9163 20.0923 81.494 20.0931V20.0912H85.5429V20.096C85.9186 20.0942 86.2943 20.0913 86.6698 20.0902C87.5234 20.0872 88.3778 20.0888 89.2314 20.0824C89.4605 20.0809 89.6014 19.9583 89.6064 19.721C89.6128 19.3926 89.6133 19.0641 89.6054 18.7357C89.5989 18.4889 89.4358 18.4004 89.2138 18.3949C88.9841 18.3894 88.753 18.389 88.5233 18.389C87.779 18.3887 87.0344 18.3874 86.2899 18.3871V18.389H81.5634L81.5624 18.3851C80.8636 18.3859 80.1644 18.3884 79.4657 18.389ZM134.183 0.76889C135.175 0.770448 136.168 0.775766 137.16 0.793304C138.02 0.808594 138.85 1.00786 139.644 1.33334C140.884 1.84039 141.788 2.69841 142.327 3.93491C142.539 4.41928 142.698 4.92287 142.781 5.43881C143.022 6.93861 143.04 8.43904 142.721 9.93588C142.189 12.4224 140.624 13.8257 137.977 14.2415C137.622 14.2973 137.263 14.3576 136.904 14.3695C136.282 14.3902 135.659 14.3753 135.036 14.3753V14.39H135.037C134.444 14.39 133.851 14.3952 133.258 14.388V14.389L131.151 14.3861C131.15 14.3861 131.148 14.3871 131.146 14.3871C129.54 14.3639 127.928 14.5098 126.33 14.2464C125.91 14.1774 125.486 14.1022 125.082 13.972C123.41 13.4333 122.257 12.3553 121.722 10.6537C121.524 10.0249 121.371 9.39016 121.342 8.72787C121.287 7.47896 121.257 6.23392 121.561 5.00424C122.095 2.85043 123.435 1.52162 125.588 1.0101C126.131 0.880873 126.68 0.783053 127.242 0.783539C127.833 0.784032 128.425 0.783539 129.016 0.783539L129.015 0.769867C129.469 0.769867 129.923 0.767389 130.377 0.767914V0.766937H134.184L134.183 0.76889ZM78.9189 0.472992C78.9519 0.470922 78.9882 0.472246 79.0273 0.474945C79.7463 0.525248 80.4677 0.57415 81.1581 0.811859C82.3363 1.21736 83.2014 1.96835 83.6972 3.12338C83.7745 3.30386 83.8445 3.48876 83.9091 3.67416C84.2275 4.58422 84.3083 4.63618 85.2187 4.52963C85.462 4.50098 85.5516 4.35057 85.5605 4.13412C85.5713 3.87171 85.5707 3.60845 85.5712 3.34604C85.5737 2.55795 85.5642 1.76987 85.579 0.981781C85.5869 0.554768 85.6749 0.473083 86.119 0.469086C87.1689 0.459714 88.2201 0.458707 89.2704 0.471039C89.7013 0.476022 89.7855 0.563896 89.787 1.00522C89.7944 2.94255 89.7909 4.88038 89.7909 6.81772H89.7929V11.9417C89.7929 12.1714 89.7978 12.402 89.7909 12.6312C89.7751 13.169 89.7393 13.2186 89.244 13.223C88.1938 13.2319 87.1439 13.2314 86.0937 13.222C85.6665 13.218 85.5893 13.1396 85.58 12.6878C85.5647 11.9328 85.5732 11.1773 85.5712 10.4222C85.5702 10.1268 85.5772 9.83046 85.5634 9.53549C85.5466 9.16471 85.4738 9.1055 85.0722 9.08725C84.9742 9.08283 84.8757 9.08383 84.7773 9.08432C84.3884 9.08699 84.1332 9.26268 84.0126 9.61264C83.9702 9.73685 83.9363 9.8644 83.8944 9.98862C83.2862 11.8018 81.9786 12.7516 80.1308 13.0121C79.7844 13.061 79.4294 13.0564 79.0771 13.057L79.078 13.0638H76.6659V13.057C76.4093 13.0517 76.1527 13.0406 75.9003 13.0052C74.2464 12.7738 73.0345 11.9371 72.4071 10.3529C72.2391 9.92835 72.0705 9.49196 71.995 9.04526C71.721 7.41518 71.7059 5.78217 72.0839 4.16147C72.1963 3.68005 72.3874 3.22541 72.619 2.79135C73.1538 1.78964 73.966 1.12298 75.0507 0.776703C75.7096 0.56637 75.8562 0.585005 76.5243 0.523773H76.5253C76.5253 0.523773 76.5288 0.523133 76.5351 0.522797C76.537 0.522619 76.539 0.522976 76.5409 0.522797C76.5447 0.522453 76.5488 0.522129 76.5526 0.52182C76.7281 0.512461 77.7064 0.461273 78.0419 0.461273C78.3159 0.461278 78.7257 0.469346 78.9189 0.472992ZM91.8378 0.463226C92.6909 0.46372 93.5442 0.457269 94.3974 0.467133C94.9469 0.473545 94.9984 0.524238 95.0009 1.10776C95.0083 3.01205 95.0033 4.91733 95.0038 6.82162C95.0038 8.56229 95.0043 10.3026 95.0038 12.0433C95.0038 12.3062 95.0044 12.569 94.995 12.8314C94.9876 13.0517 94.8927 13.2142 94.6483 13.2142C93.4674 13.2157 92.2863 13.2143 91.1054 13.2074C90.9093 13.2063 90.8208 13.0646 90.8114 12.8841C90.7991 12.655 90.7997 12.4248 90.7997 12.1956C90.7992 8.6161 90.7997 5.03593 90.7987 1.45639C90.7987 0.406091 90.7488 0.462729 91.8378 0.463226ZM104.408 0.476898C104.456 0.472568 104.51 0.471317 104.57 0.472015C104.686 0.473288 104.801 0.477139 104.917 0.479828L105.083 0.481781L105.082 0.484711C105.895 0.509747 106.705 0.579589 107.498 0.793304C109.305 1.27966 110.664 2.39683 110.962 4.72299C111.11 5.88491 111.062 7.0146 110.748 8.13608C110.418 9.31333 109.69 10.1547 108.586 10.6751C107.897 11.0002 107.18 11.2283 106.417 11.2787C105.807 11.3191 105.197 11.3504 104.587 11.3714V11.3812H102.605L101.621 11.3568C100.639 11.3144 99.6695 11.1959 98.7382 10.8011C97.4404 10.2511 96.5974 9.31742 96.2538 7.94272C95.9039 6.54249 95.9128 5.14754 96.3065 3.75717C96.6397 2.58044 97.3773 1.74704 98.4608 1.20248C98.934 0.964747 99.4302 0.781489 99.9472 0.694672C100.559 0.591971 101.176 0.50638 101.796 0.477875L101.794 0.461273L104.408 0.476898ZM117.105 0.465179C117.302 0.465188 117.499 0.471828 117.694 0.491547C117.884 0.510836 117.987 0.640747 117.99 0.822601C118.002 1.44706 117.995 2.07217 118.01 2.69662C118.02 3.14298 118.069 3.18918 118.536 3.20053C119.028 3.21237 119.522 3.19991 120.015 3.21323C120.314 3.22113 120.41 3.32877 120.43 3.63803C120.44 3.8016 120.437 3.96616 120.437 4.13022C120.438 5.18233 120.435 6.23485 120.438 7.28647C120.442 8.32075 120.454 8.28014 119.49 8.27866C119.129 8.27816 118.768 8.27267 118.407 8.28745C118.095 8.29977 118.021 8.37991 118.012 8.71909C117.999 9.1788 118.007 9.63974 118.005 10.0999C118.004 10.3628 118.004 10.6261 117.997 10.889C117.99 11.1293 117.849 11.2384 117.621 11.2455C117.424 11.2514 117.226 11.2518 117.029 11.2523C116.438 11.2533 115.847 11.2523 115.256 11.2523V11.2503L115.255 11.2513C114.565 11.2513 113.875 11.2587 113.185 11.2484C112.78 11.2425 112.718 11.1742 112.697 10.804C112.69 10.673 112.691 10.5411 112.691 10.4095C112.691 7.38488 112.689 4.35993 112.692 1.3353C112.693 0.473076 112.701 0.468632 113.558 0.465179C114.74 0.460248 115.923 0.462713 117.105 0.465179ZM134.215 5.50229C133.909 5.4911 133.599 5.53516 133.293 5.52084V5.52182L130.711 5.50327L130.71 5.50131C130.156 5.50373 129.602 5.50437 129.048 5.50815C128.687 5.51061 128.324 5.49855 127.966 5.53159C127.186 5.6036 126.681 6.04353 126.532 6.79623C126.429 7.31405 126.421 7.8463 126.545 8.36264C126.694 8.98458 127.066 9.40208 127.718 9.55502C128.042 9.63148 128.366 9.64779 128.694 9.64877C129.345 9.64995 129.997 9.65019 130.648 9.65463L130.649 9.65268H133.75L133.749 9.65366C134.349 9.65119 134.949 9.65248 135.549 9.6478C135.81 9.64582 136.077 9.6502 136.333 9.6058C137.142 9.46472 137.622 8.98556 137.728 8.17221C137.779 7.78554 137.779 7.38311 137.735 6.99545C137.635 6.09542 137.088 5.57668 136.183 5.5267C135.528 5.49069 134.87 5.52596 134.215 5.50229ZM78.1034 4.94565C77.7407 4.94567 77.4422 4.9861 77.2235 5.02963C76.8447 5.11573 76.4732 5.20431 76.2372 5.56479C75.989 5.94453 75.9868 6.37064 75.9804 6.79721C75.9779 6.96093 75.9802 7.12569 75.997 7.28842C76.0683 7.98049 76.3218 8.29443 76.9657 8.48764C77.143 8.54164 77.6458 8.68587 78.0194 8.68588C78.4076 8.68588 78.8057 8.56824 78.9218 8.53159C78.9256 8.53053 78.9296 8.52968 78.9335 8.52866C79.8793 8.28351 80.1274 7.97698 80.1708 7.04721C80.1802 6.8509 80.1788 6.65221 80.163 6.45639C80.1151 5.87445 79.9195 5.42059 79.4315 5.18198C79.3488 5.14709 78.8394 4.94565 78.1034 4.94565ZM103.595 4.36557C103.404 4.36557 102.772 4.40257 102.513 4.4183C102.317 4.45341 102.122 4.48984 101.932 4.54428C101.439 4.68586 101.162 5.03094 101.095 5.53256C101.065 5.75879 101.061 5.99235 101.08 6.22006C101.132 6.84896 101.394 7.16995 102.001 7.34604C102.174 7.39618 102.35 7.43582 102.537 7.47592L102.897 7.52377C103.098 7.54769 103.34 7.57162 103.504 7.57162C103.744 7.57157 104.213 7.519 104.447 7.49155C104.661 7.44656 104.864 7.40309 105.062 7.34506C105.668 7.16898 105.931 6.84746 105.978 6.21616C105.998 5.95676 105.989 5.68842 105.945 5.43198C105.875 5.01231 105.616 4.72063 105.219 4.57065C105.081 4.51886 104.937 4.47268 104.792 4.44565L104.647 4.42514L104.211 4.39584C103.978 4.38082 103.716 4.36561 103.595 4.36557Z" fill="#2F3436"/>
</g>
<defs>
<clipPath id="clip0_226_8254">
<rect width="144" height="23.9559" fill="white"/>
</clipPath>
</defs>
</svg>
