<svg width="144" height="24" viewBox="0 0 144 24" fill="none" xmlns="http://www.w3.org/2000/svg">
<g clip-path="url(#clip0_251_3399)">
<path d="M17.8506 0.470276H21.1982C21.3621 0.47028 21.526 0.473179 21.6894 0.476135C21.9214 0.480572 22.0564 0.600053 22.0683 0.830627C22.0816 1.09253 22.0791 1.35632 22.0791 1.61871C22.0796 5.13265 22.08 8.64676 22.08 12.1607V22.6041C22.08 22.8338 22.0835 23.0643 22.0742 23.2935C22.0599 23.6402 22.0043 23.706 21.6767 23.7125C21.1519 23.7233 20.6269 23.7173 20.1015 23.7173C19.1828 23.7173 18.2634 23.7223 17.3447 23.7144C16.8697 23.7105 16.8283 23.6643 16.8115 23.231C16.8041 23.0344 16.8076 22.8369 16.8076 22.6402V1.55524C16.8076 0.384324 16.7349 0.470758 17.8506 0.470276ZM53.6396 16.4254C53.8856 16.4278 53.9887 16.574 53.9931 16.7974C54.0015 17.2245 53.9846 17.6526 54.0049 18.0787C54.0264 18.5314 53.8133 19.0897 54.1162 19.4117C54.4607 19.7777 55.0497 19.5499 55.5283 19.5513C60.1249 19.5642 64.7217 19.5586 69.3183 19.5591C69.6134 19.5591 69.909 19.5615 70.2041 19.5679C70.3948 19.5719 70.5161 19.6754 70.5166 19.8658C70.522 21.0481 70.5205 22.2313 70.5175 23.4136C70.5169 23.6086 70.3955 23.7035 70.208 23.7086C69.9458 23.7155 69.6826 23.7183 69.4199 23.7183C66.1369 23.7188 62.8533 23.7173 59.5703 23.7173C56.3197 23.7173 53.0689 23.7178 49.8183 23.7173C49.5558 23.7173 49.2938 23.7125 49.0312 23.7047C48.8312 23.6987 48.7447 23.5751 48.7353 23.3882C48.7289 23.257 48.7265 23.1249 48.7265 22.9937C48.726 21.0554 48.7251 19.1166 48.7265 17.1783C48.7265 17.015 48.7337 16.8498 48.7549 16.688C48.7736 16.5466 48.8718 16.4558 49.0117 16.4361C49.1407 16.4179 49.2733 16.4195 49.4043 16.4195C50.7178 16.4185 52.0312 16.4185 53.3447 16.4195C53.4432 16.4195 53.5411 16.4244 53.6396 16.4254ZM46.7431 18.7955C46.9359 18.8009 47.0512 18.9113 47.0556 19.0972C47.068 19.6225 47.0678 20.1481 47.0693 20.6734C47.0708 21.3959 47.0748 22.1188 47.0654 22.8414C47.0595 23.2938 47.0273 23.3178 46.541 23.3306C46.2788 23.3375 46.0156 23.3326 45.7529 23.3326C42.2413 23.3326 38.7284 23.3336 35.2168 23.3336H24.4843C24.2547 23.3336 24.0241 23.338 23.7949 23.3287C23.4395 23.3144 23.3804 23.2676 23.3769 22.9332C23.3676 22.0139 23.3706 21.0941 23.3711 20.1744C23.3711 19.8133 23.3714 19.451 23.3857 19.0904C23.3933 18.9017 23.514 18.8004 23.7031 18.7955C23.9326 18.7891 24.1621 18.7857 24.3916 18.7857H46.0547C46.2841 18.7857 46.5136 18.7891 46.7431 18.7955ZM0.853485 0.99469C2.10187 0.998634 3.35022 0.992658 4.5986 1.00055C5.00431 1.00305 5.05171 1.05076 5.05368 1.46149C5.06058 2.90761 5.05808 4.35423 5.05759 5.80035C5.05759 6.59783 5.01476 6.70076 5.72556 6.69293V6.69196H5.82126C5.84462 6.69146 5.86871 6.69161 5.89352 6.69098C5.90054 6.6908 5.90798 6.69202 5.91501 6.69196H7.91403C8.16016 6.66558 8.41581 6.71699 8.66208 6.67926C8.84863 6.65064 8.95823 6.54847 8.96677 6.36285C8.97909 6.10048 8.97849 5.83714 8.97849 5.57477C8.97996 4.22829 8.97452 2.88121 8.98141 1.53473C8.98388 1.03458 9.01289 1.00204 9.46286 0.999573C10.8414 0.992667 12.22 0.993644 13.5986 1.00055C13.9293 1.00203 14.0037 1.08375 14.0195 1.40387C14.0308 1.63318 14.0254 1.86352 14.0254 2.09332V22.0982C14.0254 22.3281 14.0313 22.5593 14.0195 22.7886C14.0007 23.1484 13.917 23.2344 13.5302 23.2359C11.7749 23.2416 10.0191 23.2412 8.26364 23.2369V23.2398H5.70114V23.2349C3.96319 23.2407 2.22523 23.2414 0.487274 23.2349C0.0994101 23.2334 0.0250414 23.1498 0.00778198 22.775C-0.00404719 22.5126 0.00192261 22.2488 0.00192261 21.9859V12.1236H0.000946045C0.000946174 8.705 0.00243379 5.28633 -3.05176e-05 1.86774C-0.000523763 0.969109 -0.00706184 0.991731 0.853485 0.99469ZM6.13864 11.4273C5.81342 11.4421 5.3739 11.3708 5.17087 11.5826C4.91309 11.8623 5.0664 12.2753 5.06345 12.6275C5.05014 14.2378 5.05758 15.8487 5.05856 17.4595C5.05856 17.6893 5.05792 17.9202 5.07516 18.149C5.08601 18.2915 5.18171 18.3837 5.32809 18.3961C5.46393 18.4071 5.60081 18.4067 5.73727 18.4107H7.68942C7.6903 18.4091 7.69147 18.4074 7.69235 18.4058C7.98017 18.4058 8.30604 18.4093 8.63083 18.4048C8.87184 18.4019 8.97555 18.2656 8.97556 18.0318C8.97556 17.2761 8.97799 16.5209 8.97849 15.7652C8.97898 14.5168 8.98392 13.2685 8.97653 12.0201C8.97356 11.509 8.94234 11.492 8.40524 11.4683C8.17718 11.458 7.94922 11.4445 7.72165 11.4293C7.71995 11.4291 7.71846 11.4275 7.71677 11.4273H6.13864ZM37.6357 0.003479C38.0707 0.00546684 38.1229 0.0704554 38.1338 0.531799C38.1446 0.991512 38.1395 1.45197 38.1474 1.91168C38.151 2.10427 38.2625 2.20606 38.4531 2.21149C38.7151 2.21888 38.9777 2.22223 39.2402 2.22223C41.1441 2.22322 43.0482 2.22222 44.9521 2.22321C45.1817 2.22321 45.412 2.22305 45.6406 2.24078C45.7835 2.25163 45.8708 2.35173 45.8945 2.49274C45.9108 2.58889 45.917 2.68807 45.917 2.78571C45.9184 3.83683 45.9234 4.88888 45.915 5.94C45.9106 6.49952 45.8849 6.52201 45.2802 6.52399C43.7703 6.5299 42.2604 6.52594 40.7509 6.52594H38.0156V6.52692C37.9531 6.80408 37.9015 7.02365 37.8564 7.23297C37.9948 7.37774 38.209 7.59928 38.4482 7.82672L38.873 8.21149L39.1904 8.42828C39.9203 8.93917 40.5794 9.48276 41.3427 9.86383C42.2233 10.3032 43.1188 10.7075 44.0713 10.9576C45.0145 11.2052 45.9695 11.4101 47.0478 11.6636C46.3554 13.1235 45.715 14.4855 45.0634 15.8423C44.888 16.2082 44.811 16.2429 44.3535 16.1675C43.3184 15.9969 42.2977 15.7576 41.3125 15.3951C39.6111 14.7696 38.0421 13.909 36.6123 12.7183L35.6816 11.7466C35.1291 12.3656 34.4859 12.9238 33.7519 13.4195C32.4064 14.328 30.9152 14.9221 29.372 15.3931C28.241 15.7384 27.0821 15.9665 25.914 16.147C25.3958 16.2269 25.3485 16.208 25.1494 15.7652C24.5846 14.5095 24.0309 13.2488 23.4824 12.0123C23.6504 11.6853 23.9334 11.7147 24.1777 11.6773C25.3788 11.4928 26.5644 11.2411 27.7236 10.8716C28.4141 10.6517 29.0801 10.3729 29.7031 10.0054C30.8194 9.34748 31.6135 8.41781 32.0029 7.16559C32.0616 6.97717 32.1132 6.78575 32.0175 6.58746C31.7017 6.47601 31.3701 6.53081 31.0449 6.52985C29.174 6.52393 27.3025 6.52692 25.4316 6.52692C25.2675 6.52692 25.1021 6.5309 24.9384 6.52301C24.6042 6.50719 24.5239 6.44358 24.5195 6.12262C24.5141 5.7285 24.5132 5.33425 24.5127 4.94V3.16656C24.5136 2.96931 24.5165 2.77171 24.5224 2.57477C24.5295 2.34223 24.6673 2.22614 24.9023 2.22614C25.296 2.22613 25.6898 2.22272 26.084 2.22223C27.8568 2.22223 29.6294 2.22272 31.4023 2.22223C31.5988 2.22223 31.7957 2.21838 31.9922 2.21149C32.1847 2.20508 32.2913 2.10034 32.2949 1.90875C32.3023 1.5147 32.3007 1.12019 32.3066 0.726135C32.3091 0.562375 32.3019 0.393742 32.3359 0.235901C32.3528 0.159195 32.4433 0.0781148 32.5205 0.0415649C32.6042 0.00213094 32.712 0.0025018 32.8095 0.00250244C34.4183 0.000529425 36.0269 -0.00342655 37.6357 0.003479ZM62.0537 0.445862C63.247 0.443659 64.4405 0.442273 65.6338 0.456604C66.1235 0.462524 66.6201 0.516209 67.0996 0.614807C68.7279 0.950192 69.7968 1.91508 70.2168 3.53961C70.4933 4.60849 70.4983 5.69341 70.2109 6.76031C69.752 8.46333 68.6141 9.42503 66.8857 9.69977C66.2681 9.79793 65.646 9.83313 65.0195 9.82672C64.1655 9.81785 63.311 9.8247 62.457 9.8316C62.2373 9.83358 62.0822 9.93096 62.0781 10.1802C62.0761 10.3119 62.0722 10.444 62.0732 10.5757C62.0781 11.214 62.0888 11.2344 62.7431 11.2359C65.2729 11.2408 67.8032 11.2378 70.333 11.2388C71.3887 11.2393 71.2978 11.1652 71.2998 12.1822C71.3017 13.07 71.3038 13.9584 71.2949 14.8463C71.2914 15.1802 71.2254 15.2367 70.8838 15.2505C70.6211 15.2609 70.3579 15.2554 70.0947 15.2554H59.4502C55.8684 15.2554 52.2868 15.2559 48.705 15.2545C48.41 15.2545 48.1139 15.2513 47.8203 15.2232C47.7493 15.2163 47.6629 15.1151 47.6299 15.0377C47.5935 14.9524 47.605 14.8438 47.6045 14.7457C47.6035 13.7261 47.5995 12.7066 47.6074 11.6871C47.6109 11.2845 47.6524 11.2521 48.0752 11.2408C48.4033 11.2324 48.7319 11.2374 49.0605 11.2369C51.2947 11.2369 53.5294 11.2374 55.7636 11.2369C55.9933 11.2369 56.2235 11.2316 56.4531 11.2261C56.6517 11.2212 56.7617 11.0966 56.7656 10.9175C56.7952 9.71023 56.8939 9.8376 55.7636 9.82086C54.5492 9.80311 53.3335 9.88401 52.1211 9.7193C50.1899 9.45689 48.9674 8.30635 48.5898 6.40387C48.3932 5.41455 48.4229 4.43885 48.6826 3.47418C49.1085 1.89096 50.1654 0.954625 51.748 0.61676C52.2265 0.514698 52.7245 0.463005 53.2138 0.457581C54.582 0.441475 55.9502 0.443602 57.3183 0.445862L57.3193 0.443909H62.0537V0.445862ZM57.4404 4.29645C57.0954 4.29645 56.7502 4.29864 56.4052 4.29938C55.7808 4.30086 55.1566 4.30275 54.5322 4.30719C54.2081 4.30974 53.9576 4.43741 53.8398 4.75543C53.7043 5.12093 53.7323 5.47268 54.0029 5.76715C54.0847 5.85585 54.2206 5.92273 54.3408 5.94196C54.5659 5.97789 54.7978 5.98199 55.0273 5.98199C57.9846 5.98397 60.9421 5.98346 63.8994 5.98297C64.0635 5.98297 64.229 5.98558 64.3916 5.96832C64.878 5.91752 65.1378 5.59983 65.1162 5.0943C65.0965 4.63015 64.8519 4.33472 64.3994 4.31598C63.7435 4.28837 63.0856 4.30233 62.4287 4.29938C62.1986 4.29839 61.9683 4.29716 61.7383 4.29645H57.4404Z" fill="#BEBEBE"/>
<path d="M116.888 12.4905C118.106 12.4905 118.003 12.4054 118.004 13.6038C118.006 15.2799 118.006 16.9561 118.004 18.6321C118.004 18.8619 118 19.0924 117.979 19.3206C117.966 19.4639 117.86 19.5558 117.719 19.5648C117.425 19.583 117.129 19.5901 116.835 19.5901C112.5 19.5916 108.166 19.5916 103.832 19.5921C103.569 19.5921 103.306 19.5901 103.044 19.598C102.88 19.6029 102.704 19.6137 102.651 19.8148C102.593 20.0377 102.562 20.2722 102.703 20.473C102.749 20.5388 102.869 20.5798 102.958 20.5853C103.252 20.6025 103.548 20.6019 103.843 20.6019C108.309 20.6029 112.775 20.6039 117.241 20.6009C118.483 20.5999 118.378 20.5783 118.38 21.7093C118.381 22.3007 118.387 22.8928 118.374 23.4837C118.366 23.846 118.27 23.9308 117.893 23.9485C117.631 23.9609 117.368 23.9544 117.105 23.9544C113.92 23.9544 110.735 23.9534 107.549 23.9534C104.331 23.9534 101.113 23.9539 97.8951 23.9534C97.6325 23.9534 97.3691 23.9561 97.108 23.9349C96.9327 23.9205 96.8063 23.819 96.7906 23.6243C96.7827 23.5262 96.774 23.4275 96.774 23.3294C96.773 21.3579 96.773 19.3859 96.774 17.4144C96.774 17.2832 96.7782 17.151 96.7984 17.0218C96.8201 16.8799 96.9184 16.7818 97.0572 16.7718C97.3509 16.7511 97.6472 16.7454 97.942 16.7454C102.243 16.7439 106.545 16.7444 110.846 16.7444C111.109 16.7444 111.372 16.7499 111.634 16.7405C112.084 16.7243 112.307 16.3491 112.109 15.928C112.075 15.8542 111.969 15.7755 111.889 15.7679C111.596 15.7412 111.299 15.7357 111.004 15.7357C106.703 15.7342 102.401 15.7352 98.1002 15.7337C96.6067 15.7337 96.7834 15.8433 96.773 14.4193C96.7696 13.9265 96.767 13.433 96.7818 12.9407C96.7917 12.6155 96.8851 12.52 97.1871 12.5013C97.4488 12.485 97.7125 12.4905 97.9752 12.4905C104.279 12.4905 110.584 12.49 116.888 12.4905ZM85.7613 14.4622H89.7027V14.4642C91.2787 14.4642 92.8552 14.4592 94.4312 14.4671C94.9256 14.4696 94.9981 14.5402 94.9996 15.0413C95.007 17.2107 95.004 19.3798 95.0035 21.5491C95.0035 22.2065 95.0075 22.8634 94.9937 23.5208C94.9873 23.8385 94.8921 23.9239 94.5826 23.9437C94.4846 23.9501 94.3862 23.9528 94.2877 23.9534H81.608L81.607 23.9525H77.899L77.9 23.9534C76.4549 23.9534 75.0091 23.9544 73.564 23.9534C73.3343 23.9534 73.1028 23.9571 72.8746 23.9349C72.6967 23.9176 72.5759 23.8064 72.564 23.6155C72.5517 23.4193 72.546 23.222 72.5455 23.0247C72.5445 20.4933 72.5445 17.9619 72.5445 15.431C72.5445 15.3654 72.5435 15.2993 72.5445 15.2337C72.5613 14.4899 72.5755 14.4652 73.3316 14.4642C76.0522 14.4598 78.7728 14.4624 81.4937 14.4642V14.4632H85.0836C85.3092 14.4611 85.5353 14.4622 85.7613 14.4622ZM134.69 15.6185C135.075 15.62 135.143 15.6967 135.151 16.0901C135.163 16.6484 135.151 17.2072 135.158 17.7659C135.166 18.5418 135.169 18.5432 135.903 18.555C136.132 18.5589 136.363 18.555 136.592 18.555C138.694 18.555 140.795 18.5555 142.897 18.556C143.16 18.556 143.423 18.5538 143.684 18.5716C143.869 18.5844 143.971 18.7061 143.986 18.8929C143.993 18.9909 144 19.0897 144 19.1878C144 20.4035 144.003 21.6195 143.994 22.8353C143.991 23.2284 143.909 23.3058 143.544 23.3235C143.281 23.3359 143.018 23.3299 142.755 23.3304H132.017V23.3314L132.018 23.3323H121.477C121.214 23.3323 120.951 23.3378 120.689 23.3255C120.362 23.3102 120.254 23.2221 120.253 22.9241C120.244 21.6097 120.244 20.2952 120.252 18.9808C120.254 18.6672 120.357 18.5771 120.669 18.5628C120.931 18.5505 121.194 18.556 121.457 18.556H127.86C128.123 18.556 128.386 18.561 128.648 18.5491C128.976 18.5343 129.061 18.4561 129.078 18.1487C129.091 17.8864 129.085 17.6226 129.086 17.3597C129.088 16.9326 129.081 16.505 129.093 16.0784C129.104 15.6942 129.171 15.6195 129.567 15.6175C131.274 15.6101 132.983 15.6111 134.69 15.6185ZM79.4664 18.389C79.1051 18.389 78.7436 18.3909 78.3824 18.3939C78.1513 18.3958 78.0061 18.5044 77.9996 18.7435C77.9912 19.0718 77.9912 19.4009 77.9996 19.7288C78.006 19.9671 78.1547 20.0794 78.3814 20.0823C78.8412 20.0887 79.3015 20.0882 79.7613 20.0892C80.3388 20.0903 80.9162 20.0923 81.4937 20.0931V20.0911H85.5425V20.096C85.9184 20.0941 86.2947 20.0913 86.6705 20.0901C87.524 20.0872 88.3785 20.0887 89.232 20.0823C89.4609 20.0807 89.6011 19.9581 89.606 19.721C89.6124 19.3926 89.6129 19.0641 89.605 18.7357C89.5986 18.4887 89.4356 18.4003 89.2134 18.3948C88.9838 18.3894 88.7536 18.389 88.524 18.389C87.7794 18.3886 87.0344 18.3874 86.2896 18.387V18.389H81.564L81.563 18.3851C80.8641 18.3859 80.1651 18.3883 79.4664 18.389ZM134.182 0.76886C135.175 0.770416 136.168 0.775729 137.161 0.793274C138.02 0.8086 138.849 1.00793 139.644 1.33331C140.884 1.84034 141.787 2.69844 142.327 3.93488C142.538 4.41925 142.698 4.92284 142.781 5.43878C143.022 6.93862 143.04 8.43897 142.72 9.93585C142.189 12.4222 140.625 13.8256 137.978 14.2415C137.622 14.2972 137.264 14.3576 136.905 14.3694C136.282 14.3902 135.659 14.3753 135.036 14.3753V14.39H135.037C134.443 14.39 133.85 14.3952 133.257 14.388V14.389L131.152 14.386C131.15 14.386 131.149 14.387 131.147 14.387C129.541 14.3638 127.928 14.5098 126.33 14.2464C125.91 14.1774 125.486 14.1021 125.083 13.972C123.41 13.4334 122.257 12.3554 121.722 10.6536C121.525 10.0248 121.37 9.3902 121.341 8.72784C121.286 7.47892 121.257 6.23389 121.562 5.00421C122.095 2.85042 123.435 1.52154 125.588 1.01007C126.132 0.880916 126.68 0.78306 127.242 0.783508C127.833 0.784002 128.424 0.783508 129.015 0.783508L129.014 0.769836C129.468 0.769836 129.923 0.76736 130.377 0.767883V0.766907H134.183L134.182 0.76886ZM78.9185 0.472961C78.9516 0.470869 78.9878 0.472207 79.0269 0.474915C79.746 0.525226 80.4673 0.574084 81.1578 0.811829C82.3361 1.2173 83.201 1.96825 83.6968 3.12335C83.7742 3.30382 83.8442 3.48874 83.9088 3.67413C84.2271 4.58413 84.3081 4.63612 85.2183 4.5296C85.4618 4.501 85.5512 4.35058 85.5601 4.13409C85.571 3.87168 85.5704 3.60842 85.5709 3.34601C85.5733 2.55792 85.5639 1.76984 85.5787 0.98175C85.5866 0.554593 85.6751 0.473001 86.1197 0.469055C87.1695 0.459685 88.2198 0.458678 89.2701 0.471008C89.7013 0.475952 89.7852 0.563756 89.7867 1.00519C89.7941 2.94252 89.7906 4.88035 89.7906 6.81769H89.7925V11.9417C89.7925 12.1714 89.7975 12.402 89.7906 12.6312C89.7748 13.1688 89.7396 13.2185 89.2447 13.223C88.1945 13.2318 87.1445 13.2314 86.0943 13.222C85.667 13.218 85.589 13.1396 85.5797 12.6878C85.5644 11.9328 85.5738 11.1772 85.5718 10.4222C85.5709 10.1267 85.5769 9.83043 85.563 9.53546C85.5463 9.16475 85.4743 9.10548 85.0728 9.08722C84.9747 9.08278 84.8755 9.0838 84.7769 9.08429C84.3883 9.08705 84.1339 9.26288 84.0132 9.61261C83.9709 9.73676 83.9369 9.86443 83.8951 9.98859C83.2869 11.8016 81.979 12.7515 80.1314 13.012C79.7849 13.061 79.4293 13.0564 79.0767 13.0569L79.0777 13.0638H76.6656V13.0569C76.4092 13.0517 76.1531 13.0405 75.9009 13.0052C74.2468 12.7739 73.0352 11.9372 72.4078 10.3528C72.2398 9.9283 72.0711 9.49196 71.9957 9.04523C71.7216 7.41511 71.7066 5.78219 72.0845 4.16144C72.1969 3.68006 72.3871 3.22536 72.6187 2.79132C73.1534 1.78968 73.9658 1.12298 75.0504 0.776672C75.7094 0.566271 75.8563 0.585047 76.525 0.523743C76.525 0.523743 76.529 0.523126 76.5357 0.522766C76.5376 0.522596 76.5397 0.522938 76.5416 0.522766C76.5457 0.522383 76.55 0.52213 76.5543 0.52179C76.7341 0.512206 77.707 0.46125 78.0416 0.461243C78.3154 0.461243 78.7252 0.469312 78.9185 0.472961ZM91.8375 0.463196C92.6905 0.463689 93.544 0.457244 94.397 0.467102C94.9466 0.473514 94.9991 0.524208 95.0015 1.10773C95.0089 3.01202 95.004 4.9173 95.0045 6.82159C95.0045 8.56226 95.0049 10.3026 95.0045 12.0433C95.0045 12.3062 95.0041 12.5689 94.9947 12.8314C94.9872 13.0517 94.8924 13.2142 94.648 13.2142C93.4672 13.2157 92.2859 13.2142 91.105 13.2073C90.9092 13.2061 90.8205 13.0645 90.8111 12.8841C90.7988 12.6549 90.8004 12.4248 90.8004 12.1956C90.7999 8.61607 90.8004 5.0359 90.7994 1.45636C90.7994 0.406164 90.7488 0.462687 91.8375 0.463196ZM104.409 0.476868C104.456 0.472575 104.51 0.47128 104.571 0.471985C104.686 0.473259 104.802 0.477103 104.918 0.479797L105.084 0.48175L105.083 0.48468C105.896 0.509733 106.705 0.579668 107.498 0.793274C109.305 1.27962 110.665 2.39678 110.962 4.72296C111.111 5.88479 111.062 7.01465 110.749 8.13605C110.419 9.3134 109.689 10.1547 108.586 10.6751C107.896 11.0002 107.18 11.2283 106.417 11.2786C105.807 11.319 105.197 11.3504 104.586 11.3714V11.3812H102.605L101.621 11.3568C100.639 11.3143 99.6691 11.1958 98.7379 10.8011C97.4402 10.2511 96.598 9.3173 96.2545 7.94269C95.9045 6.54239 95.9134 5.14757 96.3072 3.75714C96.6404 2.5803 97.3777 1.74699 98.4615 1.20245C98.9345 0.964775 99.43 0.781477 99.9468 0.694641C100.559 0.591958 101.175 0.506364 101.795 0.477844L101.794 0.461243L104.409 0.476868ZM117.105 0.465149C117.302 0.465149 117.499 0.471798 117.694 0.491516C117.884 0.510746 117.986 0.640666 117.99 0.822571C118.002 1.44703 117.995 2.07213 118.009 2.69659C118.019 3.14307 118.07 3.18916 118.537 3.2005C119.029 3.21232 119.522 3.19989 120.014 3.2132C120.314 3.22109 120.41 3.32873 120.429 3.638C120.44 3.80158 120.437 3.96612 120.437 4.13019C120.438 5.1823 120.435 6.23482 120.438 7.28644C120.441 8.32064 120.455 8.28011 119.491 8.27863C119.13 8.27813 118.768 8.27262 118.407 8.28741C118.095 8.29974 118.02 8.37987 118.011 8.71906C117.999 9.17877 118.006 9.63971 118.004 10.0999C118.003 10.3628 118.005 10.6261 117.998 10.889C117.991 11.1294 117.849 11.2385 117.621 11.2454C117.424 11.2513 117.226 11.2518 117.03 11.2523C116.438 11.2532 115.847 11.2523 115.255 11.2523V11.2503L115.254 11.2513C114.565 11.2513 113.875 11.2587 113.185 11.2484C112.78 11.2424 112.718 11.1742 112.697 10.804C112.689 10.6729 112.692 10.5411 112.692 10.4095C112.692 7.38485 112.689 4.3599 112.693 1.33527C112.694 0.473071 112.701 0.468601 113.557 0.465149C114.74 0.460216 115.923 0.462683 117.105 0.465149ZM134.215 5.50226C133.91 5.49105 133.599 5.53504 133.294 5.52081V5.52179L130.711 5.50323L130.71 5.50128C130.156 5.5037 129.602 5.50434 129.048 5.50812C128.688 5.51058 128.324 5.49851 127.965 5.53156C127.186 5.60365 126.682 6.04359 126.533 6.7962C126.43 7.3141 126.422 7.8462 126.545 8.36261C126.695 8.98443 127.066 9.40199 127.717 9.55499C128.042 9.63143 128.366 9.64775 128.694 9.64874C129.345 9.64992 129.997 9.65016 130.648 9.6546L130.649 9.65265H133.75L133.749 9.65363C134.349 9.65116 134.949 9.65246 135.549 9.64777C135.811 9.6458 136.077 9.65011 136.333 9.60577C137.141 9.4647 137.622 8.98556 137.728 8.17218C137.779 7.78552 137.779 7.38307 137.736 6.99542C137.635 6.09529 137.088 5.57654 136.182 5.52667C135.528 5.49067 134.87 5.5259 134.215 5.50226ZM78.1041 4.94562C77.741 4.94562 77.442 4.98604 77.2232 5.0296C76.8445 5.11568 76.4728 5.20438 76.2369 5.56476C75.9887 5.94446 75.9864 6.37067 75.98 6.79718C75.9776 6.96089 75.9809 7.12567 75.9976 7.28839C76.0689 7.9803 76.3217 8.2944 76.9654 8.48761C77.1423 8.54153 77.6453 8.68576 78.0191 8.68585C78.4221 8.68585 78.8365 8.56006 78.9341 8.52863C79.8797 8.28349 80.1271 7.97684 80.1705 7.04718C80.1798 6.85087 80.1784 6.65218 80.1627 6.45636C80.1148 5.87574 79.9207 5.42196 79.4351 5.18292C79.364 5.15259 78.8508 4.94568 78.1041 4.94562ZM103.594 4.36554C103.404 4.36554 102.772 4.40255 102.512 4.41827C102.317 4.45336 102.121 4.48984 101.931 4.54425C101.439 4.68588 101.161 5.03101 101.094 5.53253C101.064 5.75874 101.06 5.99234 101.08 6.22003C101.132 6.84889 101.393 7.16991 102.001 7.34601C102.174 7.39615 102.35 7.4358 102.537 7.47589L102.897 7.52374C103.098 7.54767 103.34 7.57159 103.503 7.57159C103.743 7.57159 104.213 7.51899 104.447 7.49152C104.661 7.44653 104.864 7.40304 105.062 7.34503C105.668 7.16894 105.932 6.84746 105.979 6.21613C105.998 5.95671 105.988 5.6884 105.945 5.43195C105.874 5.01219 105.616 4.72057 105.218 4.57062C105.081 4.51879 104.937 4.47264 104.792 4.44562L104.647 4.42511L104.211 4.39581C103.978 4.38076 103.715 4.36555 103.594 4.36554Z" fill="#5C5C5C"/>
</g>
<defs>
<clipPath id="clip0_251_3399">
<rect width="144" height="23.9559" fill="white"/>
</clipPath>
</defs>
</svg>
