<svg width="81" height="15" viewBox="0 0 81 15" fill="none" xmlns="http://www.w3.org/2000/svg">
<path d="M81 15H0V0H81V15ZM7.66699 1C7.03566 1 6.61322 1.7578 5.76855 3.27246L5.5498 3.66406C5.30996 4.09444 5.19109 4.31017 5.00391 4.45215C4.81658 4.59415 4.58318 4.64662 4.11719 4.75195L3.69336 4.84766C2.0534 5.21831 1.23275 5.4049 1.03809 6.03223C0.843624 6.65949 1.40264 7.31361 2.52051 8.62012L2.80957 8.95898C3.12663 9.32933 3.28575 9.5153 3.35645 9.74512C3.42844 9.97445 3.40444 10.2228 3.35645 10.7188L3.3125 11.1689C3.14383 12.9136 3.05996 13.7858 3.57129 14.1738C4.08124 14.5602 4.84896 14.2074 6.38379 13.501L6.78125 13.3184C7.21724 13.117 7.43566 13.0166 7.66699 13.0166C7.89822 13.0167 8.116 13.1171 8.55176 13.3184L8.9502 13.501C10.4848 14.2076 11.253 14.5602 11.7637 14.1729C12.2739 13.7854 12.1891 12.9132 12.0205 11.1689L11.9766 10.7178C11.9286 10.2228 11.9054 9.975 11.9766 9.74512C12.0479 9.51579 12.2071 9.32934 12.5244 8.95801L12.8135 8.62012C13.9313 7.31302 14.4903 6.65879 14.2959 6.03223C14.1006 5.4049 13.2806 5.21899 11.6406 4.84766L11.2168 4.75195C10.7502 4.64663 10.5167 4.59413 10.3301 4.45215C10.1434 4.31015 10.0232 4.09472 9.7832 3.66406L9.56445 3.27246C8.71987 1.75794 8.29822 1.00015 7.66699 1ZM24 1C23.3689 1.00035 22.947 1.75815 22.1025 3.27246L21.8838 3.66406C21.6438 4.09469 21.5242 4.31015 21.3369 4.45215C21.1496 4.59403 20.917 4.64667 20.4512 4.75195L20.0273 4.84766C18.3873 5.21832 17.5667 5.4049 17.3721 6.03223C17.1775 6.65951 17.7356 7.31358 18.8535 8.62012L19.1436 8.95898C19.4606 9.32927 19.6198 9.5153 19.6904 9.74512C19.7624 9.97445 19.7384 10.2228 19.6904 10.7188L19.6465 11.1689C19.4778 12.9134 19.3932 13.7858 19.9043 14.1738C20.4143 14.5605 21.1825 14.2076 22.7178 13.501L23.1152 13.3184C23.5509 13.1172 23.7688 13.0167 24 13.0166C24.2313 13.0166 24.4498 13.117 24.8857 13.3184L25.2842 13.501C26.8185 14.2075 27.5861 14.5601 28.0967 14.1729C28.6073 13.7855 28.5232 12.9136 28.3545 11.1689L28.3105 10.7178C28.2626 10.2229 28.2384 9.97495 28.3096 9.74512C28.3809 9.51582 28.5402 9.32922 28.8574 8.95801L29.1475 8.62012C30.2653 7.31297 30.8234 6.65883 30.6289 6.03223C30.4336 5.40491 29.6145 5.21897 27.9746 4.84766L27.5508 4.75195C27.0843 4.64667 26.8507 4.594 26.6641 4.45215C26.4774 4.31016 26.3572 4.09467 26.1172 3.66406L25.8984 3.27246C25.0538 1.75781 24.6313 1.00001 24 1ZM40.334 1C39.7027 1.00011 39.2811 1.75791 38.4365 3.27246L38.2178 3.66406C37.9778 4.09472 37.8582 4.31015 37.6709 4.45215C37.4836 4.59411 37.2509 4.64668 36.7852 4.75195L36.3604 4.84766C34.7206 5.21827 33.8997 5.40494 33.7051 6.03223C33.5107 6.65946 34.0697 7.31367 35.1875 8.62012L35.4766 8.95898C35.7938 9.32954 35.9537 9.51519 36.0244 9.74512C36.0964 9.97445 36.0724 10.2228 36.0244 10.7188L35.9805 11.1689C35.8118 12.9136 35.7269 13.7858 36.2383 14.1738C36.7483 14.5605 37.5165 14.2076 39.0518 13.501L39.7383 13.1855C39.9943 13.0725 40.1605 13.0166 40.334 13.0166C40.5653 13.0166 40.7837 13.117 41.2197 13.3184L41.6172 13.501C43.1518 14.2076 43.92 14.5602 44.4307 14.1729C44.9411 13.7855 44.8571 12.9134 44.6885 11.1689L44.6445 10.7178C44.5966 10.2228 44.5724 9.97498 44.6436 9.74512C44.7149 9.51579 44.8741 9.32932 45.1914 8.95801L45.4805 8.62012C46.5983 7.31296 47.1573 6.65882 46.9629 6.03223C46.7676 5.40494 45.9483 5.21893 44.3086 4.84766L43.8838 4.75195C43.4173 4.64667 43.1837 4.59411 42.9971 4.45215C42.8105 4.31017 42.691 4.09445 42.4512 3.66406L42.2324 3.27246C41.3878 1.75781 40.9653 1.00001 40.334 1ZM56.668 1C56.0366 1 55.6142 1.7578 54.7695 3.27246L54.5508 3.66406C54.3109 4.09444 54.1921 4.31017 54.0049 4.45215C53.8176 4.59415 53.5842 4.64662 53.1182 4.75195L52.6943 4.84766C51.0544 5.21831 50.2337 5.4049 50.0391 6.03223C49.8446 6.65949 50.4036 7.31361 51.5215 8.62012L51.8105 8.95898C52.1276 9.32933 52.2867 9.5153 52.3574 9.74512C52.4294 9.97445 52.4054 10.2228 52.3574 10.7188L52.3135 11.1689C52.1448 12.9136 52.0609 13.7858 52.5723 14.1738C53.0822 14.5602 53.8499 14.2074 55.3848 13.501L55.7822 13.3184C56.2182 13.117 56.4366 13.0166 56.668 13.0166C56.8992 13.0167 57.117 13.1171 57.5527 13.3184L57.9512 13.501C59.4857 14.2076 60.254 14.5602 60.7646 14.1729C61.2749 13.7854 61.1901 12.9132 61.0215 11.1689L60.9775 10.7178C60.9296 10.2228 60.9063 9.975 60.9775 9.74512C61.0489 9.51579 61.2081 9.32934 61.5254 8.95801L61.8145 8.62012C62.9323 7.31302 63.4912 6.65879 63.2969 6.03223C63.1015 5.4049 62.2816 5.21899 60.6416 4.84766L60.2178 4.75195C59.7512 4.64663 59.5177 4.59413 59.3311 4.45215C59.1444 4.31015 59.0242 4.09472 58.7842 3.66406L58.5654 3.27246C57.7208 1.75794 57.2992 1.00015 56.668 1ZM73.001 1C72.3699 1.00035 71.948 1.75815 71.1035 3.27246L70.8848 3.66406C70.6448 4.09469 70.5252 4.31015 70.3379 4.45215C70.1506 4.59403 69.9179 4.64667 69.4521 4.75195L69.0283 4.84766C67.3883 5.21832 66.5677 5.4049 66.373 6.03223C66.1785 6.65951 66.7366 7.31358 67.8545 8.62012L68.1445 8.95898C68.4615 9.32927 68.6207 9.5153 68.6914 9.74512C68.7634 9.97445 68.7394 10.2228 68.6914 10.7188L68.6475 11.1689C68.4788 12.9134 68.3941 13.7858 68.9053 14.1738C69.4153 14.5605 70.1835 14.2076 71.7188 13.501L72.1162 13.3184C72.5519 13.1172 72.7698 13.0167 73.001 13.0166C73.2323 13.0166 73.4507 13.117 73.8867 13.3184L74.2852 13.501C75.8195 14.2075 76.587 14.5601 77.0977 14.1729C77.6083 13.7855 77.5241 12.9136 77.3555 11.1689L77.3115 10.7178C77.2636 10.2229 77.2394 9.97495 77.3105 9.74512C77.3819 9.51582 77.5412 9.32922 77.8584 8.95801L78.1484 8.62012C79.2663 7.31297 79.8244 6.65883 79.6299 6.03223C79.4346 5.40491 78.6155 5.21897 76.9756 4.84766L76.5518 4.75195C76.0853 4.64667 75.8517 4.594 75.665 4.45215C75.4784 4.31016 75.3581 4.09467 75.1182 3.66406L74.8994 3.27246C74.0548 1.75781 73.6323 1.00001 73.001 1Z" fill="white"/>
</svg>
