<svg xmlns="http://www.w3.org/2000/svg" width="88" height="16" viewBox="0 0 88 16" fill="none">
  <path d="M88 16H0V0H88V16ZM8.3291 1.06641C7.64346 1.06672 7.18497 1.87506 6.26758 3.49023L6.03027 3.9082C5.76961 4.36744 5.63896 4.59756 5.43555 4.74902C5.23216 4.90016 4.97922 4.95616 4.47363 5.06836L4.0127 5.1709C2.23147 5.56616 1.3397 5.76485 1.12793 6.43359C0.916445 7.10273 1.52372 7.80062 2.73828 9.19434L3.05273 9.55566C3.39725 9.95077 3.57065 10.1494 3.64746 10.3945C3.72565 10.639 3.69956 10.904 3.64746 11.4326L3.59961 11.9141C3.41639 13.7748 3.32446 14.7053 3.87988 15.1191C4.43392 15.531 5.26821 15.1539 6.93555 14.4004L7.36719 14.2061C7.8405 13.9915 8.07796 13.8839 8.3291 13.8838C8.58037 13.8838 8.81748 13.9914 9.29102 14.2061L9.72363 14.4004C11.3909 15.1541 12.2255 15.5313 12.7803 15.1182C13.3348 14.705 13.2428 13.7746 13.0596 11.9141L13.0117 11.4326C12.9596 10.9046 12.9343 10.6397 13.0117 10.3945C13.0893 10.15 13.2618 9.95063 13.6064 9.55469L13.9209 9.19434C15.1354 7.79999 15.7427 7.102 15.5312 6.43359C15.3188 5.76476 14.4278 5.5669 12.6465 5.1709L12.1865 5.06836C11.6795 4.95601 11.4255 4.90048 11.2227 4.74902C11.0199 4.59756 10.8896 4.36749 10.6289 3.9082L10.3916 3.49023C9.47404 1.87477 9.01492 1.06648 8.3291 1.06641ZM26.0742 1.06641C25.3886 1.06678 24.9301 1.87512 24.0127 3.49023L23.7754 3.9082C23.5148 4.36738 23.385 4.59756 23.1816 4.74902C22.9782 4.90046 22.7248 4.95605 22.2188 5.06836L21.7578 5.1709C19.9766 5.56616 19.0848 5.76486 18.873 6.43359C18.6616 7.10273 19.2688 7.80062 20.4834 9.19434L20.7979 9.55566C21.1424 9.95078 21.3158 10.1494 21.3926 10.3945C21.4708 10.639 21.4447 10.904 21.3926 11.4326L21.3447 11.9141C21.1615 13.7748 21.0696 14.7053 21.625 15.1191C22.1791 15.5311 23.014 15.154 24.6816 14.4004L25.1133 14.2061C25.5864 13.9915 25.8231 13.8839 26.0742 13.8838C26.3255 13.8838 26.5626 13.9914 27.0361 14.2061L27.4688 14.4004C29.136 15.1541 29.9706 15.5312 30.5254 15.1182C31.0799 14.705 30.9879 13.7746 30.8047 11.9141L30.7568 11.4326C30.7047 10.9046 30.6795 10.6397 30.7568 10.3945C30.8344 10.15 31.0069 9.95063 31.3516 9.55469L31.666 9.19434C32.8805 7.79998 33.4878 7.10201 33.2764 6.43359C33.0639 5.76484 32.1736 5.56683 30.3926 5.1709L29.9316 5.06836C29.4246 4.956 29.1706 4.90049 28.9678 4.74902C28.765 4.59756 28.6347 4.36748 28.374 3.9082L28.1367 3.49023C27.2192 1.87477 26.76 1.06648 26.0742 1.06641ZM43.8203 1.06641C43.1345 1.06641 42.6754 1.87475 41.7578 3.49023L41.5205 3.9082C41.2599 4.3674 41.1302 4.59756 40.9268 4.74902C40.7233 4.90046 40.47 4.95604 39.9639 5.06836L39.5029 5.1709C37.7218 5.56615 36.8299 5.76484 36.6182 6.43359C36.4067 7.10273 37.014 7.80065 38.2285 9.19434L38.543 9.55566C38.8875 9.9508 39.0609 10.1494 39.1377 10.3945C39.2159 10.6391 39.1898 10.904 39.1377 11.4326L39.0898 11.9141C38.9066 13.7748 38.8147 14.7053 39.3701 15.1191C39.9242 15.5312 40.7591 15.154 42.4268 14.4004L42.8584 14.2061C43.3319 13.9914 43.569 13.8838 43.8203 13.8838C44.0715 13.8839 44.3089 13.9914 44.7822 14.2061L45.2139 14.4004C46.881 15.1541 47.7157 15.5311 48.2705 15.1182C48.8251 14.705 48.733 13.7746 48.5498 11.9141L48.502 11.4326C48.4498 10.9047 48.4246 10.6397 48.502 10.3945C48.5795 10.15 48.7521 9.95062 49.0967 9.55469L49.4111 9.19434C50.6256 7.79998 51.233 7.10201 51.0215 6.43359C50.809 5.76485 49.9188 5.56684 48.1377 5.1709L47.6768 5.06836C47.1702 4.9561 46.9166 4.90021 46.7139 4.74902C46.5111 4.59756 46.3799 4.36753 46.1191 3.9082L45.8818 3.49023C44.9644 1.87507 44.5059 1.06678 43.8203 1.06641ZM61.5654 1.06641C60.8796 1.06641 60.4205 1.87475 59.5029 3.49023L59.2656 3.9082C59.005 4.36736 58.8753 4.59757 58.6719 4.74902C58.4684 4.90043 58.2151 4.95604 57.709 5.06836L57.248 5.1709C55.4669 5.56614 54.575 5.76483 54.3633 6.43359C54.1518 7.10272 54.7591 7.80069 55.9736 9.19434L56.2881 9.55566C56.6326 9.95082 56.806 10.1494 56.8828 10.3945C56.961 10.6391 56.9349 10.904 56.8828 11.4326L56.835 11.9141C56.6517 13.7747 56.5598 14.7053 57.1152 15.1191C57.6693 15.5313 58.5041 15.1541 60.1719 14.4004L60.6035 14.2061C61.0771 13.9914 61.3141 13.8838 61.5654 13.8838C61.8166 13.8839 62.0539 13.9914 62.5273 14.2061L62.959 14.4004C64.626 15.1541 65.4608 15.531 66.0156 15.1182C66.5702 14.705 66.4791 13.7746 66.2959 11.9141L66.248 11.4326C66.1959 10.9047 66.1697 10.6397 66.2471 10.3945C66.3246 10.15 66.4972 9.95058 66.8418 9.55469L67.1562 9.19434C68.3708 7.79998 68.9781 7.10201 68.7666 6.43359C68.5541 5.76487 67.6639 5.56685 65.8828 5.1709L65.4219 5.06836C64.9153 4.9561 64.6617 4.90024 64.459 4.74902C64.2563 4.59759 64.1258 4.3673 63.8652 3.9082L63.627 3.49023C62.7095 1.87498 62.2511 1.06669 61.5654 1.06641ZM79.3105 1.06641C78.6247 1.06641 78.1656 1.87475 77.248 3.49023L77.0107 3.9082C76.7501 4.36735 76.6204 4.59757 76.417 4.74902C76.2135 4.90041 75.9602 4.95605 75.4541 5.06836L74.9932 5.1709C73.2121 5.56613 72.3201 5.76482 72.1084 6.43359C71.8969 7.10272 72.5043 7.8007 73.7188 9.19434L74.0332 9.55566C74.3778 9.95082 74.5511 10.1494 74.6279 10.3945C74.7061 10.6391 74.68 10.904 74.6279 11.4326L74.5801 11.9141C74.3969 13.7747 74.3049 14.7053 74.8604 15.1191C75.4144 15.5313 76.2492 15.1541 77.917 14.4004L78.3486 14.2061C78.8222 13.9914 79.0592 13.8838 79.3105 13.8838C79.5617 13.8839 79.799 13.9914 80.2725 14.2061L80.7041 14.4004C82.3711 15.154 83.2059 15.531 83.7607 15.1182C84.3153 14.705 84.2242 13.7746 84.041 11.9141L83.9932 11.4326C83.9411 10.9047 83.9148 10.6397 83.9922 10.3945C84.0697 10.15 84.2433 9.95063 84.5879 9.55469L84.9014 9.19434C86.1159 7.79998 86.7232 7.10201 86.5117 6.43359C86.2992 5.76487 85.4091 5.56686 83.6279 5.1709L83.167 5.06836C82.6604 4.9561 82.4068 4.90025 82.2041 4.74902C82.0014 4.59759 81.8709 4.36732 81.6104 3.9082L81.3721 3.49023C80.4546 1.87495 79.9962 1.06666 79.3105 1.06641Z" fill="white"/>
</svg>