<svg width="16" height="16" viewBox="0 0 16 16" fill="none" xmlns="http://www.w3.org/2000/svg">
<path d="M13.1239 3.42036C13.3087 3.62561 13.2921 3.94168 13.0868 4.12642L8.49993 8.25483L13.0868 12.3833C13.2921 12.568 13.3087 12.8841 13.1239 13.0893C12.9392 13.2945 12.6231 13.3111 12.4179 13.1264L7.83098 8.998C7.3896 8.60076 7.3896 7.90891 7.83098 7.51167L12.4179 3.38325C12.6231 3.19853 12.9392 3.21513 13.1239 3.42036Z" fill="#767676"/>
<path d="M8.12395 3.42036C8.30867 3.62561 8.29207 3.94168 8.08684 4.12642L3.49993 8.25483L8.08684 12.3833C8.29207 12.568 8.30867 12.8841 8.12395 13.0893C7.93922 13.2945 7.62314 13.3111 7.41789 13.1264L2.83098 8.998C2.3896 8.60076 2.3896 7.90891 2.83098 7.51167L7.41789 3.38325C7.62314 3.19853 7.93922 3.21513 8.12395 3.42036Z" fill="#767676"/>
</svg>
