<svg width="16" height="16" viewBox="0 0 16 16" fill="none" xmlns="http://www.w3.org/2000/svg">
<path d="M7.62837 13.0894C7.44365 12.8842 7.46025 12.5681 7.66548 12.3833L12.2524 8.25493L7.66548 4.12651C7.46025 3.94178 7.44365 3.6257 7.62837 3.42046C7.8131 3.21523 8.12918 3.19863 8.33442 3.38335L12.9213 7.51177C13.3627 7.90901 13.3627 8.60085 12.9213 8.99809L8.33442 13.1265C8.12918 13.3112 7.8131 13.2946 7.62837 13.0894Z" fill="#767676"/>
<path d="M2.62837 13.0894C2.44365 12.8842 2.46025 12.5681 2.66548 12.3833L7.25239 8.25493L2.66548 4.12651C2.46025 3.94178 2.44365 3.6257 2.62837 3.42046C2.8131 3.21523 3.12918 3.19863 3.33442 3.38335L7.92134 7.51177C8.36272 7.90901 8.36272 8.60085 7.92134 8.99809L3.33442 13.1265C3.12918 13.3112 2.8131 13.2946 2.62837 13.0894Z" fill="#767676"/>
</svg>
