<svg width="32" height="32" viewBox="0 0 32 32" fill="none" xmlns="http://www.w3.org/2000/svg">
<path d="M25.6218 16.6795C25.2134 13.1772 24.6149 10.551 24.0608 8.6855C23.6069 7.15483 23.3794 6.3895 22.4484 5.69533C21.5174 5.00117 20.5654 5 18.6614 5H12.3369C10.4329 5 9.48094 5 8.54994 5.69533C7.61894 6.3895 7.39144 7.15483 6.93761 8.6855C6.38344 10.551 5.78611 13.1772 5.37777 16.6795C4.89594 20.8083 4.65444 22.8722 6.04627 24.4355C7.43811 26 9.69327 26 14.2059 26H15.6246M11.9987 9.66675C11.9987 10.595 12.3674 11.4852 13.0238 12.1416C13.6802 12.798 14.5704 13.1667 15.4987 13.1667C16.4269 13.1667 17.3172 12.798 17.9735 12.1416C18.6299 11.4852 18.9987 10.595 18.9987 9.66675M18.9987 24.8334C18.9987 24.8334 20.1653 24.8334 21.332 27.1667C21.332 27.1667 23.8718 21.3334 27.1653 20.1667" stroke="#444444" stroke-width="2" stroke-linecap="round" stroke-linejoin="round"/>
</svg>
