<svg width="32" height="32" viewBox="0 0 32 32" fill="none" xmlns="http://www.w3.org/2000/svg">
<path d="M18.0029 7.49902C18.0029 6.83636 17.74 6.20002 17.2715 5.73145C16.8029 5.26287 16.1666 5 15.5039 5C14.8414 5.0001 14.2058 5.26301 13.7373 5.73145C13.2687 6.20002 13.0058 6.83635 13.0058 7.49902V7.67578C13.6396 7.66604 14.3307 7.66504 15.084 7.66504H15.9267C16.6792 7.66504 17.3697 7.66607 18.0029 7.67578V7.49902ZM20.0029 7.76758C20.1307 7.77957 20.2557 7.79165 20.3769 7.80664C21.5672 7.95378 22.5647 8.26461 23.414 8.9707H23.4131C24.2638 9.67624 24.7531 10.5993 25.1172 11.7422C25.4729 12.8591 25.7411 14.2961 26.0781 16.0908C26.18 16.6336 25.8221 17.1559 25.2793 17.2578C24.7366 17.3596 24.2142 17.0027 24.1123 16.46C23.7659 14.615 23.5215 13.3217 23.2119 12.3496C22.9107 11.404 22.5814 10.8793 22.1357 10.5098L22.1347 10.5088C21.6908 10.1399 21.1152 9.91365 20.1308 9.79199C19.119 9.66697 17.8031 9.66504 15.9267 9.66504H15.084C13.2075 9.66504 11.8911 9.66692 10.8789 9.79199C9.89436 9.91369 9.31833 10.1402 8.87303 10.5098C8.42778 10.8793 8.09892 11.4038 7.79783 12.3496C7.56575 13.0786 7.36994 13.9883 7.14061 15.1758L6.89744 16.46C6.41248 19.0494 6.07092 20.8858 6.00975 22.2881C5.94983 23.6625 6.17148 24.4299 6.64451 25C7.11766 25.5701 7.83084 25.9299 9.19236 26.124C10.5814 26.3221 12.4486 26.3242 15.083 26.3242H15.9258C18.5599 26.3242 20.4279 26.3212 21.8174 26.123C23.0943 25.9409 23.8008 25.6138 24.2734 25.1045L24.3652 25C24.9142 24.3369 25.1239 23.4097 24.9512 21.5869C24.8993 21.0373 25.3028 20.5492 25.8525 20.4971C26.4021 20.4452 26.8902 20.8489 26.9424 21.3984C27.1287 23.3651 26.9792 24.9812 25.9053 26.2773H25.9043C24.9785 27.3931 23.6907 27.8765 22.0996 28.1035C20.5358 28.3266 18.4983 28.3242 15.9258 28.3242H15.083C12.5105 28.3242 10.4735 28.3264 8.91014 28.1035C7.31914 27.8767 6.03174 27.3935 5.10545 26.2773C4.17919 25.1612 3.94164 23.806 4.0117 22.2002C4.0806 20.6222 4.45809 18.6202 4.93162 16.0918V16.0908C5.26856 14.2963 5.53613 12.8599 5.89158 11.7432C6.25552 10.6 6.7453 9.67643 7.59568 8.9707C8.4459 8.26512 9.44317 7.95378 10.6338 7.80664C10.7544 7.79173 10.8787 7.77952 11.0058 7.76758V7.49902C11.0058 6.30592 11.4796 5.16103 12.3232 4.31738C13.1668 3.47387 14.311 3.0001 15.5039 3C16.697 3 17.8419 3.47373 18.6855 4.31738C19.5292 5.16103 20.0029 6.30593 20.0029 7.49902V7.76758Z" fill="#444444"/>
</svg>
