<svg width="32" height="32" viewBox="0 0 32 32" fill="none" xmlns="http://www.w3.org/2000/svg">
<path d="M20.167 21.583H25C25.5523 21.583 26 22.0307 26 22.583C25.9998 23.1351 25.5521 23.583 25 23.583H20.167V23.582C19.8716 23.5876 19.5855 23.6733 19.3398 23.8252C19.0912 23.979 18.8949 24.194 18.7705 24.4443C18.5249 24.9389 17.9252 25.1409 17.4307 24.8955C16.9361 24.6499 16.7341 24.0502 16.9795 23.5557C17.2724 22.9659 17.7271 22.471 18.2881 22.124C18.8488 21.7773 19.4953 21.5908 20.1553 21.583L20.167 21.582V21.583ZM11.835 21.583C12.4992 21.5845 13.1514 21.7692 13.7158 22.1182C14.2805 22.4674 14.7365 22.9679 15.0254 23.5645C15.2658 24.0614 15.0575 24.6597 14.5605 24.9004C14.0636 25.1408 13.4653 24.9325 13.2246 24.4355C13.1038 24.1864 12.9107 23.9719 12.6641 23.8193C12.4478 23.6856 12.1995 23.6053 11.9414 23.5869L11.8311 23.583H7C6.44786 23.583 6.00023 23.1351 6 22.583C6 22.0307 6.44772 21.583 7 21.583H11.835ZM12.667 7C13.9938 7 15.1984 7.59541 15.999 8.53613C16.7996 7.59479 18.0057 7 19.333 7H26C26.5523 7 27 7.44772 27 8V19.666C27 20.2183 26.5523 20.666 26 20.666H19.333C18.6691 20.666 18.2381 20.8251 17.9502 21.0117C17.6574 21.2016 17.4519 21.4597 17.3057 21.7441C17.1573 22.0327 17.0786 22.3331 17.0381 22.5693C17.0183 22.685 17.0084 22.7795 17.0039 22.8408C17.0017 22.8713 17.0004 22.8937 17 22.9053C16.9998 22.911 17 22.9146 17 22.915L16.9951 23.0098C16.9438 23.5139 16.5177 23.9072 16 23.9072C15.4823 23.9072 15.0562 23.5139 15.0049 23.0098L15 22.9072V22.9043C14.9996 22.8925 14.9983 22.8709 14.9961 22.8408C14.9916 22.7792 14.9826 22.6837 14.9629 22.5674C14.9227 22.3301 14.8443 22.0287 14.6973 21.7393C14.5524 21.454 14.3495 21.1972 14.0625 21.0088C13.7809 20.824 13.3592 20.666 12.708 20.666H6C5.44772 20.666 5 20.2183 5 19.666V8C5 7.44772 5.44772 7 6 7H12.667ZM7 18.666H12.708C13.6229 18.666 14.3825 18.8777 15 19.2402V11.2402C15 10.037 13.9745 9 12.667 9H7V18.666ZM17 19.251C17.6265 18.8816 18.3995 18.666 19.333 18.666H25V9H19.333C18.1071 9 17.1292 9.91066 17.0117 11.0166L17 11.2402V19.251Z" fill="#444444"/>
</svg>
