<svg width="32" height="32" viewBox="0 0 32 32" fill="none" xmlns="http://www.w3.org/2000/svg">
<path d="M26.831 19.2246C27.3516 19.0402 27.924 19.3124 28.1084 19.833C28.2926 20.3535 28.0195 20.925 27.499 21.1094C26.8733 21.331 26.2217 21.8006 25.5761 22.4551C24.9375 23.1026 24.3526 23.8824 23.8515 24.6504C23.3522 25.4156 22.9483 26.15 22.6699 26.6934C22.5311 26.9642 22.424 27.1864 22.3525 27.3389C22.3169 27.4148 22.2899 27.474 22.2724 27.5127C22.2639 27.5315 22.2579 27.5457 22.2539 27.5547C22.2519 27.5592 22.2498 27.5626 22.249 27.5645V27.5664C22.0939 27.9223 21.7465 28.1557 21.3584 28.166C20.9703 28.1763 20.6112 27.9614 20.4375 27.6143C19.9135 26.5662 19.4346 26.1315 19.1728 25.957C19.0415 25.8695 18.9541 25.8395 18.9248 25.8311C18.9095 25.8267 18.9068 25.8275 18.9189 25.8291C18.4039 25.7884 17.999 25.3584 17.999 24.833C17.9992 24.2809 18.4468 23.833 18.999 23.833V24.6318C18.9991 23.8334 19 23.833 19.0009 23.833H19.0068C19.0095 23.833 19.0127 23.8339 19.0156 23.834C19.0213 23.8341 19.0278 23.8338 19.0342 23.834C19.0469 23.8344 19.061 23.835 19.0761 23.8359C19.107 23.8379 19.1434 23.8413 19.1836 23.8467C19.2639 23.8574 19.3616 23.8762 19.4736 23.9082C19.6996 23.9728 19.9766 24.0893 20.2822 24.293C20.5827 24.4933 20.9003 24.7725 21.2226 25.1553C21.4845 24.6772 21.8045 24.1267 22.1758 23.5576C22.7211 22.7217 23.3887 21.825 24.1523 21.0508C24.9091 20.2835 25.8102 19.5863 26.831 19.2246ZM19.3183 4C20.8027 4.0057 21.9542 4.07968 23.0459 4.89355C24.2821 5.81533 24.5797 6.91709 25.0195 8.40039L25.2353 9.15723C25.7404 11.0076 26.2523 13.4509 26.6152 16.5635C26.6792 17.112 26.2858 17.6089 25.7373 17.6729C25.1888 17.7366 24.6928 17.3434 24.6289 16.7949C24.227 13.3479 23.6395 10.7786 23.1025 8.9707L23.1015 8.96973C22.6338 7.39222 22.4761 6.96345 21.8506 6.49707C21.2362 6.03901 20.6577 6 18.6611 6H12.3369C10.3396 6 9.76223 6.03777 9.14841 6.49609L9.14743 6.49707C8.52206 6.96341 8.36416 7.39229 7.89646 8.96973V8.9707C7.3595 10.7783 6.77302 13.3475 6.37106 16.7949V16.7959C6.12633 18.8931 5.95968 20.348 6.00876 21.4766C6.0556 22.5524 6.29554 23.2118 6.79294 23.7705C7.27783 24.3156 7.935 24.6398 9.10446 24.8154C10.3149 24.9972 11.9182 25 14.206 25H15.625C16.1771 25.0002 16.625 25.4478 16.625 26C16.625 26.5522 16.1771 26.9998 15.625 27H14.206C11.9814 27 10.2008 27.0022 8.80759 26.793C7.37338 26.5775 6.20573 26.12 5.2988 25.1006C4.40475 24.0963 4.07072 22.9419 4.01071 21.5635C3.95304 20.2372 4.14767 18.5949 4.38474 16.5635C4.79937 13.0072 5.40723 10.3245 5.97849 8.40137L6.13962 7.8623C6.50805 6.64489 6.87025 5.70022 7.95212 4.89355C9.04393 4.07844 10.1962 4.00547 11.6797 4H19.3183ZM18.9472 25.832C18.9539 25.8325 18.9622 25.8327 18.9707 25.833H18.997V25.832C18.971 25.832 18.9454 25.8311 18.9199 25.8291C18.9259 25.8299 18.9349 25.8312 18.9472 25.832ZM10.999 9.66699C10.999 9.11471 11.4467 8.66699 11.999 8.66699C12.5511 8.66719 12.999 9.11483 12.999 9.66699C12.9991 10.3299 13.2618 10.9658 13.7304 11.4346C14.1993 11.9034 14.836 12.167 15.499 12.167C16.1619 12.1669 16.7978 11.9033 17.2666 11.4346C17.7353 10.9658 17.9989 10.3299 17.999 9.66699C17.999 9.11471 18.4467 8.66699 18.999 8.66699C19.5511 8.66719 19.999 9.11483 19.999 9.66699C19.9989 10.8603 19.5245 12.0048 18.6806 12.8486C17.8368 13.6925 16.6923 14.1669 15.499 14.167C14.3055 14.167 13.1603 13.6925 12.3164 12.8486C11.4726 12.0048 10.9991 10.8603 10.999 9.66699Z" fill="#444444"/>
</svg>
