<svg width="25" height="25" viewBox="0 0 25 25" fill="none" xmlns="http://www.w3.org/2000/svg">
<g clip-path="url(#clip0_2536_73108)">
<path fill-rule="evenodd" clip-rule="evenodd" d="M12.5 0.119149C12.1 0.118529 11.7078 0.229872 11.3679 0.440577L0.814286 7.35129C0.0642857 7.84594 -0.164286 8.69772 0.125 9.42451C0.403571 10.1245 1.10714 10.5977 1.94643 10.5977H23.0536C23.8929 10.5977 24.5964 10.1245 24.875 9.42451C25.1643 8.69772 24.9357 7.84593 24.1875 7.35308L24.1857 7.35129L13.6321 0.440577L13.5964 0.417363C13.2644 0.221106 12.8857 0.118079 12.5 0.119149ZM0 21.2102C0 20.1388 1.02143 19.6227 1.78571 19.6227H1.88393L1.87857 19.5263V13.7924C1.87857 13.5556 1.97264 13.3285 2.14008 13.161C2.30753 12.9936 2.53463 12.8995 2.77143 12.8995H5.74286C5.97966 12.8995 6.20676 12.9936 6.3742 13.161C6.54165 13.3285 6.63571 13.5556 6.63571 13.7924V19.5263L6.63036 19.6227H10.1268L10.1214 19.5263V13.7924C10.1214 13.5556 10.2155 13.3285 10.3829 13.161C10.5504 12.9936 10.7775 12.8995 11.0143 12.8995H13.9857C14.103 12.8995 14.2191 12.9226 14.3274 12.9675C14.4357 13.0123 14.5342 13.0781 14.6171 13.161C14.7 13.2439 14.7657 13.3424 14.8106 13.4507C14.8555 13.559 14.8786 13.6751 14.8786 13.7924V19.5263L14.8732 19.6227H18.3696L18.3643 19.5263V13.7924C18.3643 13.5556 18.4584 13.3285 18.6258 13.161C18.7932 12.9936 19.0203 12.8995 19.2571 12.8995H22.2286C22.4654 12.8995 22.6925 12.9936 22.8599 13.161C23.0274 13.3285 23.1214 13.5556 23.1214 13.7924V19.5263L23.1161 19.6227H23.2143C23.9804 19.6227 25 20.1388 25 21.212V23.2959C25 24.3674 23.9804 24.8834 23.2143 24.8834H1.78571C1.02143 24.8834 0 24.3674 0 23.2941V21.2102Z" fill="white"/>
</g>
<defs>
<clipPath id="clip0_2536_73108">
<rect width="25" height="25" fill="white"/>
</clipPath>
</defs>
</svg>
