<svg width="32" height="32" viewBox="0 0 32 32" fill="none" xmlns="http://www.w3.org/2000/svg">
<path d="M25.0951 16.2754C24.4117 12.6357 24.0712 10.8153 22.7744 9.74004C21.4811 8.6648 19.6291 8.6648 15.9265 8.6648H15.0845C11.3818 8.6648 9.52985 8.6648 8.2342 9.74004C6.93855 10.8153 6.59802 12.6357 5.91463 16.2754C4.95601 21.3939 4.47554 23.9525 5.87498 25.6389C7.27442 27.3252 9.87621 27.324 15.0833 27.324M12.0057 8.6648V7.4986C12.0057 6.57072 12.3743 5.68083 13.0304 5.02472C13.6865 4.3686 14.5764 4 15.5043 4C16.4322 4 17.3221 4.3686 17.9782 5.02472C18.6343 5.68083 19.0029 6.57072 19.0029 7.4986V8.6648" stroke="#444444" stroke-width="2" stroke-linecap="round"/>
<path d="M19 24.6667C19 24.6667 20.1667 24.6667 21.3333 27C21.3333 27 23.8732 21.1667 27.1667 20" stroke="#444444" stroke-width="2" stroke-linecap="round" stroke-linejoin="round"/>
</svg>
