<svg width="32" height="32" viewBox="0 0 32 32" fill="none" xmlns="http://www.w3.org/2000/svg">
<path d="M18.75 23.1113H13.25V23.333C13.25 24.0329 13.5345 24.709 14.0479 25.2109C14.5619 25.7135 15.2636 26 16 26C16.7364 26 17.4381 25.7135 17.9522 25.2109C18.4655 24.709 18.75 24.0329 18.75 23.333V23.1113ZM20.75 23.333C20.75 24.578 20.2437 25.7673 19.3506 26.6406C18.4582 27.5132 17.2526 28 16 28C14.7474 28 13.5419 27.5132 12.6494 26.6406C11.7563 25.7673 11.25 24.578 11.25 23.333V23.1113H6.00001C5.5935 23.1113 5.22768 22.8647 5.07423 22.4883C4.92092 22.112 5.01037 21.6806 5.30079 21.3965L7.05762 19.6787C7.34374 19.3988 7.50001 19.0235 7.50001 18.6387V14.7773C7.50018 11.3833 9.56713 8.47852 12.5107 7.17676C12.5758 6.35468 12.9386 5.58237 13.5332 5.00098C14.1912 4.3576 15.0789 4 16 4C16.9211 4 17.8088 4.3576 18.4668 5.00098C19.0614 5.58236 19.4232 6.35471 19.4883 7.17676C20.8633 7.78345 22.0553 8.73996 22.9346 9.95605C23.9522 11.3638 24.5005 13.0485 24.5 14.7773V18.6377L24.5068 18.7812C24.5212 18.924 24.5576 19.0645 24.6143 19.1982C24.6897 19.3764 24.8006 19.5401 24.9424 19.6787L26.6992 21.3965C26.9896 21.6806 27.0791 22.112 26.9258 22.4883C26.7723 22.8647 26.4065 23.1113 26 23.1113H20.75V23.333ZM9.50001 18.6387C9.50001 19.5688 9.12125 20.458 8.45509 21.1094L8.45313 21.1113H23.5469L23.5449 21.1094C23.2151 20.787 22.9522 20.4028 22.7725 19.9785C22.5927 19.554 22.4997 19.0975 22.5 18.6367V14.7773C22.5005 13.4726 22.0876 12.1975 21.3145 11.1279C20.541 10.058 19.4438 9.24601 18.1729 8.80664C17.7701 8.66727 17.5001 8.28754 17.5 7.86133V7.44434C17.5 7.06863 17.3472 6.70334 17.0684 6.43066C16.7887 6.15739 16.4048 6 16 6C15.5952 6 15.2113 6.15739 14.9316 6.43066C14.6528 6.70334 14.5 7.06863 14.5 7.44434V7.86133C14.5 8.28754 14.2299 8.66727 13.8272 8.80664C11.2937 9.68268 9.5002 12.0363 9.50001 14.7773V18.6387Z" fill="#444444"/>
</svg>
