<svg width="32" height="32" viewBox="0 0 32 32" fill="none" xmlns="http://www.w3.org/2000/svg">
<path fill-rule="evenodd" clip-rule="evenodd" d="M16 5.00195C16.5249 5.00195 17.0401 5.14068 17.4951 5.40234L17.4961 5.40137L24.4961 9.40137L24.5 9.4043L24.667 9.50781C25.0483 9.76264 25.3673 10.1024 25.5977 10.501C25.8608 10.9563 25.9994 11.4731 26 11.999V20.001C25.9995 20.5269 25.8608 21.0437 25.5977 21.499C25.3344 21.9544 24.9555 22.3327 24.5 22.5957L24.4961 22.5986L17.4961 26.5986L17.4951 26.5977C17.0712 26.8414 16.595 26.9765 16.1074 26.9941C16.0721 26.9979 16.0363 27.001 16 27.001C15.9647 27.001 15.9299 26.9977 15.8955 26.9941C15.4066 26.977 14.9288 26.8422 14.5039 26.5977L7.50391 22.5986L7.5 22.5957C7.04446 22.3327 6.66559 21.9544 6.40234 21.499C6.13921 21.0437 6.00055 20.5269 6 20.001V11.999L6.00684 11.8018C6.03743 11.3445 6.17221 10.8993 6.40234 10.501C6.66558 10.0456 7.04451 9.66732 7.5 9.4043L7.50391 9.40137L14.5039 5.40137C14.9591 5.13943 15.4748 5.00195 16 5.00195ZM8 19.999L8.00879 20.1299C8.026 20.2591 8.06818 20.3844 8.13379 20.498C8.22076 20.6485 8.34605 20.7738 8.49609 20.8613L15 24.5771V16.5791L8 12.5605V19.999ZM21.043 14.2588C21.0092 14.2806 20.9744 14.3008 20.9385 14.3184L17 16.5791V24.5771L23.5039 20.8613C23.654 20.7738 23.7792 20.6485 23.8662 20.498C23.9536 20.3467 23.9996 20.1748 24 20V12.5615L21.043 14.2588ZM9.0166 10.8379L16 14.8467L18.4854 13.4199L11.4971 9.4209L9.0166 10.8379ZM16 7.00195C15.8245 7.00195 15.652 7.04802 15.5 7.13574L15.4961 7.1377L13.5127 8.26953L20.4951 12.2656L22.9805 10.8389L16.5039 7.1377L16.5 7.13574C16.348 7.04802 16.1755 7.00195 16 7.00195Z" fill="#444444"/>
</svg>
