<svg width="16" height="16" viewBox="0 0 16 16" fill="none" xmlns="http://www.w3.org/2000/svg">
<path d="M3.77128 11.0025C3.6004 10.8324 3.50439 10.6018 3.50439 10.3613L3.5044 4.43289C3.5044 4.29119 3.50439 3.83087 3.5044 3.405C3.54055 3.11713 3.59636 2.87834 3.75787 2.7656C3.93446 2.61827 4.12305 2.5344 4.40256 2.51823C4.71793 2.49999 5.03366 2.5 5.24987 2.5H8.04703M6.62141 12.5C6.37974 12.5 6.14797 12.4045 5.97709 12.2344C5.8062 12.0643 5.7102 11.8337 5.7102 11.5932V11.0681V5.0196C5.7102 4.77909 5.8062 4.54844 5.97709 4.37838C6.14797 4.20832 6.37974 4.11278 6.62141 4.11278H9.95393H10.2662C10.4105 4.11255 10.5533 4.14071 10.6866 4.19565C10.8198 4.25059 10.9408 4.33121 11.0426 4.43289L12.1773 6.05971C12.2797 6.16105 12.361 6.28158 12.4163 6.41435C12.4717 6.54711 12.5001 6.68948 12.4999 6.83322V11.5932C12.4999 11.8337 12.4039 12.0643 12.233 12.2344C12.0621 12.4045 11.8303 12.5 11.5887 12.5H6.62141Z" stroke="#BEBEBE" stroke-linecap="round" stroke-linejoin="round"/>
</svg>
