<svg width="32" height="32" viewBox="0 0 32 32" fill="none" xmlns="http://www.w3.org/2000/svg">
<path d="M0 16C0 7.16344 7.16344 0 16 0C24.8366 0 32 7.16344 32 16C32 24.8366 24.8366 32 16 32C7.16344 32 0 24.8366 0 16Z" fill="#D3DDF8"/>
<path d="M21.9264 14.8683C22.0105 14.3014 21.9821 13.7236 21.843 13.1676C21.6527 12.408 21.2592 11.7146 20.7047 11.1616C20.1518 10.607 19.4584 10.2134 18.6987 10.023C18.1428 9.88397 17.5649 9.85577 16.998 9.93996M19.3964 14.6006C19.443 14.2912 19.4162 13.9752 19.3182 13.6781C19.2203 13.3809 19.0538 13.111 18.8324 12.89C18.6114 12.6685 18.3414 12.5021 18.0443 12.4041C17.7471 12.3061 17.4311 12.2794 17.1217 12.326" stroke="#2F4F9E" stroke-width="1.33333" stroke-linecap="round" stroke-linejoin="round"/>
<path d="M12.7911 10.9316C12.9101 10.9317 13.0268 10.9636 13.1292 11.0239C13.2317 11.0843 13.3161 11.171 13.3738 11.275L14.1895 12.7436C14.2421 12.8384 14.2708 12.9446 14.2731 13.053C14.2755 13.1614 14.2513 13.2687 14.2028 13.3656L13.4171 14.9366C13.4171 14.9366 13.6448 16.1073 14.5975 17.06C15.5505 18.0126 16.7171 18.2366 16.7171 18.2366L18.2878 17.451C18.3848 17.4024 18.4922 17.3783 18.6007 17.3807C18.7091 17.3831 18.8153 17.4119 18.9101 17.4646L20.3835 18.2836C20.4873 18.3414 20.5737 18.4259 20.6339 18.5284C20.6941 18.6308 20.7258 18.7475 20.7258 18.8663V20.5576C20.7258 21.4186 19.9258 22.041 19.1098 21.7653C17.4338 21.2 14.8325 20.123 13.1831 18.4743C11.5345 16.8253 10.4578 14.2236 9.89214 12.5476C9.6168 11.7316 10.2388 10.9316 11.1001 10.9316H12.7911Z" fill="#2F4F9E" stroke="#2F4F9E" stroke-width="1.33333" stroke-linejoin="round"/>
</svg>
