<svg width="32" height="32" viewBox="0 0 32 32" fill="none" xmlns="http://www.w3.org/2000/svg">
<path d="M10.2724 11.0928C10.6169 11.0013 10.9843 11.0997 11.2363 11.3516L20.6484 20.7637C20.9004 21.0158 20.9987 21.3831 20.9072 21.7276C20.8156 22.072 20.5479 22.3418 20.2041 22.4356L7.26268 25.9649C6.91659 26.0591 6.5466 25.9607 6.29295 25.7071C6.0393 25.4534 5.94091 25.0834 6.03514 24.7374L9.56444 11.7959L9.60741 11.6709C9.72646 11.3879 9.97098 11.173 10.2724 11.0928ZM8.42479 23.5743L18.0156 20.959L11.04 13.9834L8.42479 23.5743ZM20.7295 15.2549C21.532 14.9165 22.8198 14.5781 24.1377 14.6641C25.4824 14.7519 26.9695 15.2997 27.8662 16.8526C28.1423 17.3308 27.9782 17.9426 27.5 18.2188C27.0217 18.4949 26.4099 18.3309 26.1338 17.8526C25.672 17.053 24.9147 16.7195 24.0068 16.6602C23.0722 16.5993 22.098 16.848 21.5058 17.0977C20.9971 17.3121 20.411 17.0741 20.1963 16.5655C19.9817 16.0566 20.2206 15.4695 20.7295 15.2549ZM20.4101 10.1749C20.8007 9.78437 21.4347 9.78435 21.8252 10.1749C22.2157 10.5654 22.2157 11.1994 21.8252 11.5899L19.4717 13.9424C19.0811 14.3329 18.4481 14.3329 18.0576 13.9424C17.6671 13.5519 17.6671 12.9189 18.0576 12.5284L20.4101 10.1749ZM25.8232 11.0586C26.3754 11.0586 26.8231 11.5065 26.8232 12.0586C26.8232 12.6109 26.3755 13.0586 25.8232 13.0586H24.6474C24.0952 13.0586 23.6474 12.6109 23.6474 12.0586C23.6476 11.5065 24.0952 11.0586 24.6474 11.0586H25.8232ZM17.2724 4.0518C17.7963 3.87736 18.3624 4.15985 18.5371 4.68364C19.6293 7.96024 18.0934 10.6156 17.1191 11.5899C16.7287 11.9802 16.0956 11.98 15.7051 11.5899C15.3145 11.1994 15.3145 10.5654 15.7051 10.1749C16.2995 9.58006 17.4295 7.68626 16.6396 5.31645C16.465 4.79251 16.7485 4.22645 17.2724 4.0518ZM23.9404 6.64555C24.331 6.25544 24.9641 6.25517 25.3545 6.64555C25.7449 7.03594 25.7446 7.66906 25.3545 8.05962L24.1777 9.23637C23.7872 9.6269 23.1542 9.6269 22.7637 9.23637C22.3731 8.84585 22.3731 8.21283 22.7637 7.82231L23.9404 6.64555Z" fill="#444444"/>
</svg>
