<svg width="32" height="32" viewBox="0 0 32 32" fill="none" xmlns="http://www.w3.org/2000/svg">
<path d="M11.5556 9.84435V5.3999M20.4444 9.84435V5.3999M10.4444 14.2888H21.5556M8.22222 25.3999H23.7778C24.3671 25.3999 24.9324 25.1658 25.3491 24.749C25.7659 24.3323 26 23.7671 26 23.1777V9.84435C26 9.25498 25.7659 8.68975 25.3491 8.273C24.9324 7.85625 24.3671 7.62212 23.7778 7.62212H8.22222C7.63285 7.62212 7.06762 7.85625 6.65087 8.273C6.23413 8.68975 6 9.25498 6 9.84435V23.1777C6 23.7671 6.23413 24.3323 6.65087 24.749C7.06762 25.1658 7.63285 25.3999 8.22222 25.3999Z" stroke="#444444" stroke-width="2" stroke-linecap="round" stroke-linejoin="round"/>
</svg>
