<svg width="32" height="32" viewBox="0 0 32 32" fill="none" xmlns="http://www.w3.org/2000/svg">
<path d="M12 17L15 20L21 14M9.16667 27C8.60309 27 8.06258 26.7787 7.66407 26.3849C7.26556 25.9911 7.04167 25.457 7.04167 24.9V7.1C7.04167 6.54305 7.26556 6.00891 7.66407 5.61508C8.06258 5.22125 8.60309 5 9.16667 5H18.6667C19.003 4.99946 19.3361 5.06469 19.6469 5.19191C19.9576 5.31914 20.2398 5.50585 20.4772 5.7413L24.2894 9.5087C24.5283 9.74338 24.7178 10.0225 24.8469 10.33C24.976 10.6374 25.0422 10.9671 25.0417 11.3V24.9C25.0417 25.457 24.8178 25.9911 24.4193 26.3849C24.0208 26.7787 23.4803 27 22.9167 27H9.16667Z" stroke="#444444" stroke-width="2" stroke-linecap="round" stroke-linejoin="round"/>
</svg>
