<svg width="32" height="32" viewBox="0 0 32 32" fill="none" xmlns="http://www.w3.org/2000/svg">
<path d="M28.6495 13.0228V22.1388C28.6495 23.175 28.2378 24.1687 27.5051 24.9014C26.7725 25.6341 25.7787 26.0457 24.7426 26.0457H6.51041C5.47423 26.0457 4.4805 25.6341 3.74782 24.9014C3.01513 24.1687 2.60352 23.175 2.60352 22.1388V13.0228H28.6495ZM23.4403 18.232H19.5334C19.188 18.232 18.8567 18.3692 18.6125 18.6134C18.3683 18.8576 18.2311 19.1889 18.2311 19.5343C18.2311 19.8796 18.3683 20.2109 18.6125 20.4551C18.8567 20.6993 19.188 20.8365 19.5334 20.8365H23.4403C23.7857 20.8365 24.1169 20.6993 24.3611 20.4551C24.6054 20.2109 24.7426 19.8796 24.7426 19.5343C24.7426 19.1889 24.6054 18.8576 24.3611 18.6134C24.1169 18.3692 23.7857 18.232 23.4403 18.232ZM24.7426 5.20898C25.7787 5.20898 26.7725 5.6206 27.5051 6.35329C28.2378 7.08597 28.6495 8.0797 28.6495 9.11588V10.4182H2.60352V9.11588C2.60352 8.0797 3.01513 7.08597 3.74782 6.35329C4.4805 5.6206 5.47423 5.20898 6.51041 5.20898H24.7426Z" fill="white"/>
</svg>
