<svg width="32" height="32" viewBox="0 0 32 32" fill="none" xmlns="http://www.w3.org/2000/svg">
<path d="M11.9411 23.0229V24.1146C11.9411 24.6146 12.1397 25.0942 12.4933 25.4478C12.8469 25.8013 13.3265 26 13.8265 26H15M11.9411 23.0229V9.03121C11.9411 8.53116 12.1397 8.0516 12.4933 7.69802C12.8469 7.34443 13.3265 7.14579 13.8265 7.14579H20.722M11.9411 23.0229H9.26237C8.76233 23.0229 8.28276 22.8242 7.92918 22.4707C7.57559 22.1171 7.37695 21.6375 7.37695 21.1375V6.05412C7.37695 5.55408 7.57559 5.07452 7.92918 4.72093C8.28276 4.36735 8.76233 4.1687 9.26237 4.1687H16.804C17.1025 4.16822 17.398 4.22678 17.6737 4.341C17.9494 4.45523 18.1998 4.62286 18.4104 4.83426L20.722 7.14579M20.722 7.14579H21.3682C21.6666 7.14531 21.9622 7.20386 22.2379 7.31809C22.5135 7.43231 22.7639 7.59995 22.9746 7.81134L26.357 11.1938C26.569 11.4045 26.7371 11.6551 26.8516 11.9311C26.9662 12.2072 27.0249 12.5032 27.0244 12.802V15M19 24.6666C19 24.6666 20.1667 24.6666 21.3334 27C21.3334 27 23.8732 21.1666 27.1667 20M19.4813 21.287H19.4918M16.7462 13.744C16.9724 13.1205 17.4106 12.5963 17.9841 12.2632C18.5576 11.93 19.2299 11.809 19.8836 11.9213C20.5373 12.0336 21.1307 12.3721 21.5601 12.8776C21.9895 13.3831 22.2276 14.0234 22.2327 14.6867C22.2327 16.5721 19.4046 17.5148 19.4046 17.5148" stroke="#444444" stroke-width="2" stroke-linecap="round" stroke-linejoin="round"/>
</svg>
