<svg width="32" height="32" viewBox="0 0 32 32" fill="none" xmlns="http://www.w3.org/2000/svg">
<path d="M11.9411 23.0229V24.1146C11.9411 24.6146 12.1397 25.0942 12.4933 25.4478C12.8469 25.8013 13.3264 26 13.8265 26H25.139C25.639 26 26.1186 25.8013 26.4722 25.4478C26.8258 25.0942 27.0244 24.6146 27.0244 24.1146V12.802C27.0249 12.5032 26.9662 12.2072 26.8516 11.9311C26.737 11.6551 26.5689 11.4045 26.357 11.1938L22.9745 7.81134C22.7639 7.59995 22.5135 7.43231 22.2378 7.31809C21.9621 7.20386 21.6666 7.14531 21.3681 7.14579H20.7219M11.9411 23.0229V9.03121C11.9411 8.53116 12.1397 8.0516 12.4933 7.69802C12.8469 7.34443 13.3264 7.14579 13.8265 7.14579H20.7219M11.9411 23.0229H9.26234C8.7623 23.0229 8.28273 22.8242 7.92915 22.4707C7.57556 22.1171 7.37692 21.6375 7.37692 21.1375V6.05412C7.37692 5.55408 7.57556 5.07452 7.92915 4.72093C8.28273 4.36735 8.7623 4.1687 9.26234 4.1687H16.804C17.1024 4.16822 17.398 4.22678 17.6737 4.341C17.9494 4.45523 18.1998 4.62286 18.4104 4.83426L20.7219 7.14579M19.4813 21.287H19.4918M16.7461 13.744C16.9724 13.1205 17.4105 12.5963 17.9841 12.2632C18.5576 11.93 19.2299 11.809 19.8836 11.9213C20.5373 12.0336 21.1307 12.3721 21.5601 12.8776C21.9895 13.3831 22.2276 14.0234 22.2327 14.6867C22.2327 16.5721 19.4046 17.5148 19.4046 17.5148" stroke="#444444" stroke-width="2" stroke-linecap="round" stroke-linejoin="round"/>
</svg>
