<svg width="32" height="32" viewBox="0 0 32 32" fill="none" xmlns="http://www.w3.org/2000/svg">
<path d="M5 22.25V21C5 20.4477 5.44772 20 6 20C6.55228 20 7 20.4477 7 21V22.25C7 22.9793 7.28994 23.6786 7.80566 24.1943C8.32139 24.7101 9.02065 25 9.75 25H22.25L22.5215 24.9863C23.1511 24.9239 23.743 24.6457 24.1943 24.1943C24.6457 23.743 24.9239 23.1511 24.9863 22.5215L25 22.25V21C25 20.4477 25.4477 20 26 20C26.5523 20 27 20.4477 27 21V22.25C27 23.5098 26.4992 24.7176 25.6084 25.6084C24.7176 26.4992 23.5098 27 22.25 27H9.75C8.49022 27 7.2824 26.4992 6.3916 25.6084C5.5008 24.7176 5 23.5098 5 22.25ZM15 6C15 5.44772 15.4477 5 16 5C16.5523 5 17 5.44772 17 6V18.5859L20.293 15.293C20.6835 14.9024 21.3165 14.9024 21.707 15.293C22.0976 15.6835 22.0976 16.3165 21.707 16.707L16.707 21.707C16.3165 22.0976 15.6835 22.0976 15.293 21.707L10.293 16.707C9.90244 16.3165 9.90244 15.6835 10.293 15.293C10.6835 14.9024 11.3165 14.9024 11.707 15.293L15 18.5859V6Z" fill="#444444"/>
</svg>
