<svg width="32" height="32" viewBox="0 0 32 32" fill="none" xmlns="http://www.w3.org/2000/svg">
<path d="M10 17C10 18.1046 9.10457 19 8 19C6.89543 19 6 18.1046 6 17C6 15.8954 6.89543 15 8 15C9.10457 15 10 15.8954 10 17Z" fill="#444444"/>
<path d="M18 17C18 18.1046 17.1046 19 16 19C14.8954 19 14 18.1046 14 17C14 15.8954 14.8954 15 16 15C17.1046 15 18 15.8954 18 17Z" fill="#444444"/>
<path d="M26 17C26 18.1046 25.1046 19 24 19C22.8954 19 22 18.1046 22 17C22 15.8954 22.8954 15 24 15C25.1046 15 26 15.8954 26 17Z" fill="#444444"/>
</svg>
