<svg width="32" height="32" viewBox="0 0 32 32" fill="none" xmlns="http://www.w3.org/2000/svg">
<path d="M7.64062 7.29279C8.03117 6.90247 8.66423 6.90234 9.05469 7.29279L25.0547 23.2928C25.4449 23.6833 25.4449 24.3164 25.0547 24.7069C24.6642 25.0973 24.0312 25.0972 23.6406 24.7069L20.8232 21.8895C19.4881 22.5394 17.9725 22.9997 16.3477 22.9998C12.6394 22.9998 9.45851 20.6141 7.58594 18.8348L7.22949 18.4881C6.78157 18.043 6.3635 17.6512 6.12891 16.9285L6.12988 16.9276C6.03199 16.6268 6 16.2842 6 15.9998C6 15.7146 6.03131 15.3706 6.12988 15.0692L6.22656 14.8133C6.47014 14.2495 6.83757 13.901 7.23047 13.5106L7.59766 13.1541C8.28049 12.5063 9.12043 11.7962 10.082 11.1483L7.64062 8.70685C7.2501 8.31633 7.2501 7.68332 7.64062 7.29279ZM11.5254 12.5916C10.3809 13.3181 9.39348 14.1799 8.64062 14.9285L8.63965 14.9295C8.1494 15.4166 8.09561 15.4934 8.03125 15.6903L8.03027 15.6912C8.02965 15.6933 8.02781 15.7023 8.02441 15.7186C8.02058 15.7369 8.01547 15.7611 8.01172 15.7908C8.00411 15.8512 8 15.9233 8 15.9998C8 16.0763 8.00411 16.1484 8.01172 16.2088C8.01547 16.2385 8.02058 16.2627 8.02441 16.2811C8.02781 16.2973 8.02965 16.3063 8.03027 16.3084L8.03125 16.3113C8.09461 16.5065 8.14711 16.5807 8.63867 17.0692L8.63965 17.0701C10.39 18.8105 13.2433 20.9998 16.3477 20.9998C17.3653 20.9998 18.3607 20.7622 19.3096 20.3758L17.6396 18.7059C17.2007 18.9157 16.7141 19.0188 16.2197 18.9979C15.4453 18.9651 14.7134 18.6343 14.1777 18.074C13.6422 17.5139 13.3447 16.7679 13.3467 15.993C13.3479 15.544 13.4514 15.1058 13.6416 14.7078L11.5254 12.5916ZM16.3477 8.99982C20.3039 9.00001 23.6565 11.7144 25.4648 13.5115C25.9149 13.9588 26.329 14.3495 26.5645 15.0682V15.0692C26.6631 15.3707 26.6943 15.7155 26.6943 16.0008C26.6943 16.2147 26.6773 16.4618 26.627 16.699L26.5645 16.9315C26.3302 17.6484 25.9141 18.0398 25.4688 18.4832L25.4658 18.4871L25.4639 18.4891C25.178 18.7729 24.8582 19.0763 24.5078 19.3846C24.0933 19.7493 23.4615 19.7091 23.0967 19.2947C22.7319 18.8801 22.7719 18.2475 23.1865 17.8826C23.5021 17.605 23.7926 17.3303 24.0547 17.0701L24.0566 17.0682C24.5466 16.5803 24.6006 16.5045 24.6641 16.3104V16.3094C24.6647 16.3074 24.6675 16.2983 24.6709 16.282C24.6747 16.2637 24.6789 16.2394 24.6826 16.2098C24.6902 16.1494 24.6943 16.0773 24.6943 16.0008C24.6943 15.9241 24.6902 15.8514 24.6826 15.7908C24.6789 15.7612 24.6747 15.7369 24.6709 15.7186C24.6675 15.7022 24.6647 15.6932 24.6641 15.6912C24.5995 15.4942 24.5452 15.4169 24.0557 14.9305C22.3041 13.1897 19.453 11 16.3477 10.9998C16.0519 10.9998 15.7607 11.0185 15.4756 11.0555C14.928 11.1264 14.4266 10.7398 14.3555 10.1922C14.2846 9.64466 14.6712 9.14317 15.2188 9.07209C15.5909 9.02379 15.9675 8.99982 16.3477 8.99982ZM15.624 16.6912C15.6312 16.6987 15.6391 16.7055 15.6465 16.7127L15.6162 16.6824C15.6189 16.6853 15.6213 16.6884 15.624 16.6912Z" fill="#BEBEBE"/>
</svg>
