<svg width="24" height="24" viewBox="0 0 24 24" fill="none" xmlns="http://www.w3.org/2000/svg">
<path d="M12 8.25C11.1716 8.25 10.5 7.57843 10.5 6.75C10.5 5.92157 11.1716 5.25 12 5.25C12.8284 5.25 13.5 5.92157 13.5 6.75C13.5 7.57843 12.8284 8.25 12 8.25Z" fill="#444444"/>
<path d="M12 14.25C11.1716 14.25 10.5 13.5784 10.5 12.75C10.5 11.9216 11.1716 11.25 12 11.25C12.8284 11.25 13.5 11.9216 13.5 12.75C13.5 13.5784 12.8284 14.25 12 14.25Z" fill="#444444"/>
<path d="M12 20.25C11.1716 20.25 10.5 19.5784 10.5 18.75C10.5 17.9216 11.1716 17.25 12 17.25C12.8284 17.25 13.5 17.9216 13.5 18.75C13.5 19.5784 12.8284 20.25 12 20.25Z" fill="#444444"/>
</svg>
