<svg width="32" height="32" viewBox="0 0 32 32" fill="none" xmlns="http://www.w3.org/2000/svg">
<path d="M16.3477 9C20.0569 9.00017 23.2356 11.386 25.1084 13.165L25.4648 13.5117L25.4658 13.5127C25.9132 13.9582 26.3289 14.3495 26.5645 15.0684V15.0693C26.663 15.3708 26.6943 15.7148 26.6943 16C26.6943 16.2844 26.6624 16.6269 26.5645 16.9277L26.5654 16.9287C26.3309 17.6512 25.9126 18.0424 25.4648 18.4873C23.657 20.285 20.3028 22.9988 16.3477 22.999C12.3923 22.999 9.03809 20.2857 7.22949 18.4883C6.77939 18.0411 6.36536 17.6504 6.12988 16.9316V16.9307C6.03131 16.6292 6 16.2852 6 16C6 15.7148 6.03131 15.3708 6.12988 15.0693C6.3646 14.3479 6.78197 13.9564 7.22949 13.5117L7.58594 13.165C9.45851 11.3857 12.6394 9 16.3477 9ZM16.3477 11C13.2433 11 10.39 13.1893 8.63965 14.9297L8.63867 14.9307C8.14711 15.4191 8.09461 15.4934 8.03125 15.6885L8.03027 15.6914C8.02965 15.6935 8.02781 15.7025 8.02441 15.7188C8.02058 15.7371 8.01547 15.7613 8.01172 15.791C8.00411 15.8514 8 15.9235 8 16C8 16.0765 8.00411 16.1486 8.01172 16.209C8.01547 16.2387 8.02058 16.2629 8.02441 16.2812C8.02781 16.2975 8.02965 16.3065 8.03027 16.3086C8.0948 16.5056 8.14918 16.583 8.63867 17.0693H8.63965C10.3911 18.8099 13.2431 20.999 16.3477 20.999C19.4522 20.9988 22.3056 18.8095 24.0557 17.0693C24.5473 16.5809 24.5997 16.5066 24.6631 16.3115L24.6641 16.3086C24.6647 16.3066 24.6675 16.2976 24.6709 16.2812C24.6747 16.2629 24.6789 16.2386 24.6826 16.209C24.6902 16.1486 24.6943 16.0765 24.6943 16C24.6943 15.9235 24.6902 15.8514 24.6826 15.791C24.6789 15.7614 24.6747 15.7371 24.6709 15.7188C24.6675 15.7024 24.6647 15.6934 24.6641 15.6914C24.5996 15.4947 24.5452 15.4181 24.0557 14.9307L23.7139 14.5996C21.9461 12.9248 19.2589 11.0002 16.3477 11ZM17.3477 16C17.3477 15.7349 17.2421 15.4805 17.0547 15.293C16.8673 15.1055 16.6127 15.0001 16.3477 15C16.0824 15 15.8272 15.1054 15.6396 15.293C15.4523 15.4805 15.3477 15.7349 15.3477 16C15.3477 16.2651 15.4523 16.5195 15.6396 16.707C15.8272 16.8946 16.0824 17 16.3477 17C16.6127 16.9999 16.8673 16.8945 17.0547 16.707C17.2421 16.5195 17.3477 16.2651 17.3477 16ZM19.3477 16C19.3477 16.7955 19.0312 17.5585 18.4688 18.1211C17.9062 18.6836 17.1432 18.9999 16.3477 19C15.552 19 14.7882 18.6837 14.2256 18.1211C13.6631 17.5585 13.3477 16.7955 13.3477 16C13.3477 15.2045 13.6631 14.4415 14.2256 13.8789C14.7882 13.3163 15.552 13 16.3477 13C17.1432 13.0001 17.9062 13.3164 18.4688 13.8789C19.0312 14.4415 19.3477 15.2045 19.3477 16Z" fill="#BEBEBE"/>
</svg>
