<svg width="32" height="32" viewBox="0 0 32 32" fill="none" xmlns="http://www.w3.org/2000/svg">
<path d="M9.99219 20.8516C9.95805 20.5083 9.80663 20.1855 9.56055 19.9395C9.27924 19.6581 8.89782 19.5 8.5 19.5C8.10218 19.5 7.72076 19.6581 7.43945 19.9395C7.15815 20.2208 7 20.6022 7 21L7.00781 21.1484C7.04195 21.4917 7.19337 21.8145 7.43945 22.0605C7.72076 22.3419 8.10218 22.5 8.5 22.5C8.89782 22.5 9.27924 22.3419 9.56055 22.0605C9.84185 21.7792 10 21.3978 10 21L9.99219 20.8516ZM17.5 11C17.5 10.6022 17.3419 10.2208 17.0605 9.93945C16.8145 9.69337 16.4917 9.54195 16.1484 9.50781L16 9.5C15.6022 9.5 15.2208 9.65815 14.9395 9.93945C14.6581 10.2208 14.5 10.6022 14.5 11C14.5 11.3978 14.6581 11.7792 14.9395 12.0605C15.2208 12.3419 15.6022 12.5 16 12.5C16.3978 12.5 16.7792 12.3419 17.0605 12.0605C17.3419 11.7792 17.5 11.3978 17.5 11ZM25 21C25 20.6022 24.8419 20.2208 24.5605 19.9395C24.2792 19.6581 23.8978 19.5 23.5 19.5C23.1022 19.5 22.7208 19.6581 22.4395 19.9395C22.1581 20.2208 22 20.6022 22 21L22.0078 21.1484C22.042 21.4917 22.1934 21.8145 22.4395 22.0605C22.7208 22.3419 23.1022 22.5 23.5 22.5C23.8978 22.5 24.2792 22.3419 24.5605 22.0605C24.8419 21.7792 25 21.3978 25 21ZM11.9961 21.1738C11.9531 22.0388 11.5899 22.8593 10.9746 23.4746C10.5599 23.8893 10.052 24.1889 9.5 24.3535V26C9.5 26.5523 9.05228 27 8.5 27C7.94772 27 7.5 26.5523 7.5 26V24.3535C6.94801 24.1889 6.44008 23.8893 6.02539 23.4746C5.36901 22.8182 5 21.9283 5 21C5 20.0717 5.36901 19.1818 6.02539 18.5254C6.44014 18.1106 6.94791 17.8101 7.5 17.6455V6C7.5 5.44772 7.94772 5 8.5 5C9.05228 5 9.5 5.44772 9.5 6V17.6455C10.0521 17.8101 10.5599 18.1106 10.9746 18.5254C11.631 19.1818 12 20.0717 12 21L11.9961 21.1738ZM27 21C27 21.9283 26.631 22.8182 25.9746 23.4746C25.5599 23.8893 25.052 24.1889 24.5 24.3535V26C24.5 26.5523 24.0523 27 23.5 27C22.9477 27 22.5 26.5523 22.5 26V24.3535C21.948 24.1889 21.4401 23.8893 21.0254 23.4746C20.4101 22.8593 20.0469 22.0388 20.0039 21.1738L20 21C20 20.0717 20.369 19.1818 21.0254 18.5254C21.4401 18.1106 21.9479 17.8101 22.5 17.6455V6C22.5 5.44772 22.9477 5 23.5 5C24.0523 5 24.5 5.44772 24.5 6V17.6455C25.0521 17.8101 25.5599 18.1106 25.9746 18.5254C26.631 19.1818 27 20.0717 27 21ZM19.5 11C19.5 11.9283 19.131 12.8182 18.4746 13.4746C18.0599 13.8893 17.552 14.1889 17 14.3535V26C17 26.5523 16.5523 27 16 27C15.4477 27 15 26.5523 15 26V14.3535C14.448 14.1889 13.9401 13.8893 13.5254 13.4746C12.869 12.8182 12.5 11.9283 12.5 11C12.5 10.0717 12.869 9.18177 13.5254 8.52539C13.9401 8.11064 14.4479 7.81011 15 7.64551V6C15 5.44772 15.4477 5 16 5C16.5523 5 17 5.44772 17 6V7.64551C17.5521 7.81011 18.0599 8.11064 18.4746 8.52539C19.131 9.18177 19.5 10.0717 19.5 11Z" fill="#444444"/>
</svg>
