<svg width="32" height="32" viewBox="0 0 32 32" fill="none" xmlns="http://www.w3.org/2000/svg">
<path d="M13.1824 17.0343C10.5573 15.071 8.68474 12.9112 7.66192 11.6973C7.34526 11.3215 7.24181 11.046 7.17954 10.5615C6.96632 8.90215 6.85971 8.07247 7.34631 7.53623C7.83292 7 8.69319 7 10.4137 7H22.5863C24.3068 7 25.1671 7 25.6537 7.53518C26.1403 8.07141 26.0337 8.9011 25.8205 10.5605C25.7571 11.045 25.6537 11.3205 25.3381 11.6963C24.3142 12.9123 22.4385 15.0762 19.807 17.0428C19.6853 17.1375 19.5848 17.2565 19.5117 17.3923C19.4386 17.5281 19.3947 17.6776 19.3827 17.8313C19.122 20.7141 18.8813 22.2932 18.7314 23.0913C18.4897 24.3812 16.6626 25.157 15.683 25.8484C15.1003 26.2601 14.3931 25.7703 14.3182 25.1327C14.0379 22.7033 13.8007 20.2691 13.6068 17.8313C13.5959 17.6761 13.5525 17.525 13.4794 17.3876C13.4063 17.2503 13.3051 17.13 13.1824 17.0343Z" stroke="#444444" stroke-width="2" stroke-linecap="round" stroke-linejoin="round"/>
</svg>
