<svg width="32" height="32" viewBox="0 0 32 32" fill="none" xmlns="http://www.w3.org/2000/svg">
<path d="M27 9C27.5523 9 28 9.44772 28 10V21C28 21.5523 27.5523 22 27 22H25.9883C25.875 23.43 24.6817 24.5554 23.2227 24.5557C22.5195 24.5557 21.879 24.2921 21.3896 23.8613C20.9004 24.2918 20.2605 24.5557 19.5576 24.5557C18.0984 24.5556 16.9043 23.4301 16.791 22H15.209C15.0957 23.4301 13.9016 24.5556 12.4424 24.5557C11.7392 24.5557 11.0987 24.2921 10.6094 23.8613C10.1201 24.2918 9.48021 24.5557 8.77734 24.5557C7.3183 24.5554 6.12503 23.43 6.01172 22H5C4.44772 22 4 21.5523 4 21V10C4 9.44772 4.44772 9 5 9H27ZM9.55566 21.7773C9.55543 21.348 9.20675 21 8.77734 21C8.34813 21.0002 8.00023 21.3481 8 21.7773C8 22.2068 8.34799 22.5554 8.77734 22.5557C9.2069 22.5557 9.55566 22.2069 9.55566 21.7773ZM20.3359 21.7773C20.3357 21.348 19.987 21 19.5576 21C19.1283 21.0001 18.7805 21.3481 18.7803 21.7773C18.7803 22.2068 19.1281 22.5556 19.5576 22.5557C19.9872 22.5557 20.3359 22.2069 20.3359 21.7773ZM6 20H6.64453C7.15399 19.3893 7.91992 19.0001 8.77734 19C9.48 19 10.1202 19.2632 10.6094 19.6934C11.0987 19.2628 11.7394 19 12.4424 19C13.3001 19.0001 14.0667 19.3891 14.5762 20H17.4238C17.9333 19.3891 18.6999 19.0001 19.5576 19C20.2603 19 20.9004 19.2631 21.3896 19.6934C21.8789 19.2629 22.5197 19 23.2227 19C24.0801 19.0001 24.846 19.3893 25.3555 20H26V11H6V20ZM8.75 17.5V13.5C8.75 12.9477 9.19772 12.5 9.75 12.5C10.3023 12.5 10.75 12.9477 10.75 13.5V17.5C10.75 18.0523 10.3023 18.5 9.75 18.5C9.19772 18.5 8.75 18.0523 8.75 17.5ZM12.75 17.5V13.5C12.75 12.9477 13.1977 12.5 13.75 12.5C14.3023 12.5 14.75 12.9477 14.75 13.5V17.5C14.75 18.0523 14.3023 18.5 13.75 18.5C13.1977 18.5 12.75 18.0523 12.75 17.5ZM16.75 17.5V13.5C16.75 12.9477 17.1977 12.5 17.75 12.5C18.3023 12.5 18.75 12.9477 18.75 13.5V17.5C18.75 18.0523 18.3023 18.5 17.75 18.5C17.1977 18.5 16.75 18.0523 16.75 17.5ZM21 17.5V13.5C21 12.9477 21.4477 12.5 22 12.5C22.5523 12.5 23 12.9477 23 13.5V17.5C23 18.0523 22.5523 18.5 22 18.5C21.4477 18.5 21 18.0523 21 17.5ZM11.6641 21.7773C11.6641 22.2069 12.0128 22.5557 12.4424 22.5557C12.8719 22.5556 13.2197 22.2068 13.2197 21.7773C13.2195 21.348 12.8717 21.0001 12.4424 21C12.013 21 11.6643 21.348 11.6641 21.7773ZM22.4443 21.7773C22.4443 22.2069 22.7931 22.5557 23.2227 22.5557C23.652 22.5554 24 22.2068 24 21.7773C23.9998 21.3481 23.6519 21.0002 23.2227 21C22.7932 21 22.4446 21.348 22.4443 21.7773Z" fill="#444444"/>
</svg>
