<svg width="32" height="32" viewBox="0 0 32 32" fill="none" xmlns="http://www.w3.org/2000/svg">
<path d="M24 19.9999H17V24.9999H23C23.5523 24.9999 24 24.5522 24 23.9999V19.9999ZM15 8.99994C15 8.60438 14.8828 8.21751 14.6631 7.88861C14.4434 7.55982 14.1309 7.30366 13.7656 7.15228C13.4002 7.00091 12.9973 6.96085 12.6094 7.03803C12.2216 7.11524 11.8656 7.30626 11.5859 7.58588C11.3063 7.86549 11.1153 8.22149 11.0381 8.60931C10.9609 8.99728 11.001 9.40011 11.1523 9.76556C11.3037 10.1309 11.5599 10.4433 11.8887 10.663C12.2176 10.8828 12.6044 10.9999 13 10.9999H15V8.99994ZM8 23.9999C8 24.5522 8.44772 24.9999 9 24.9999H15V19.9999H8V23.9999ZM24 13.9999C24 13.4477 23.5523 12.9999 23 12.9999H17V17.9999H24V13.9999ZM8 17.9999H15V12.9999H9C8.44772 12.9999 8 13.4477 8 13.9999V17.9999ZM26 23.9999C26 25.6568 24.6569 26.9999 23 26.9999H9C7.34315 26.9999 6 25.6568 6 23.9999V13.9999C6 12.3431 7.34315 10.9999 9 10.9999H9.53809C9.45089 10.849 9.3719 10.6925 9.30469 10.5302C9.00205 9.7994 8.92284 8.99547 9.07715 8.21967C9.23149 7.44374 9.61246 6.73122 10.1719 6.17181C10.7313 5.6124 11.4438 5.23143 12.2197 5.07709C12.9955 4.92278 13.7995 5.00199 14.5303 5.30463C15.0963 5.53909 15.598 5.90022 16 6.35638C16.402 5.90022 16.9037 5.53909 17.4697 5.30463C18.2005 5.00199 19.0045 4.92278 19.7803 5.07709C20.5562 5.23143 21.2687 5.6124 21.8281 6.17181C22.3875 6.73122 22.7685 7.44374 22.9229 8.21967C23.0772 8.99547 22.9979 9.7994 22.6953 10.5302C22.6281 10.6925 22.5491 10.849 22.4619 10.9999H23C24.6569 10.9999 26 12.3431 26 13.9999V23.9999ZM17 10.9999H19C19.3956 10.9999 19.7824 10.8828 20.1113 10.663C20.4401 10.4433 20.6963 10.1309 20.8477 9.76556C20.999 9.40011 21.0391 8.99728 20.9619 8.60931C20.8847 8.22149 20.6937 7.86549 20.4141 7.58588C20.1344 7.30626 19.7784 7.11524 19.3906 7.03803C19.0027 6.96085 18.5998 7.00091 18.2344 7.15228C17.8691 7.30366 17.5566 7.55982 17.3369 7.88861C17.1172 8.21751 17 8.60438 17 8.99994V10.9999Z" fill="#444444"/>
</svg>
