<svg width="24" height="24" viewBox="0 0 24 24" fill="none" xmlns="http://www.w3.org/2000/svg">
<path d="M4.80189 4.94303C5.72868 4.02633 7.33532 3.42288 8.89979 3.93888C9.59181 4.16718 10.4754 4.60713 11.1542 4.96867C11.4887 5.14684 11.7855 5.31298 12.0031 5.43668C12.2201 5.31528 12.5161 5.15251 12.849 4.97672C13.528 4.6182 14.405 4.18226 15.088 3.94328C15.8968 3.66031 16.7269 3.71827 17.4318 3.92863C18.1323 4.13773 18.7636 4.51312 19.1984 4.94303C20.6429 6.37214 21.0972 8.25713 20.9833 10.0605C20.8699 11.8553 20.1941 13.6319 19.2929 14.9692C18.4023 16.2905 17.0871 17.587 15.7824 18.5551C15.1278 19.0408 14.4601 19.456 13.8319 19.7526C13.2185 20.0422 12.5791 20.2499 12.0001 20.2499C11.4212 20.2499 10.7817 20.0422 10.1683 19.7526C9.54017 19.456 8.87245 19.0407 8.2179 18.5551C6.91317 17.587 5.59715 16.2905 4.70667 14.9692C3.80555 13.6319 3.1304 11.8552 3.01698 10.0605C2.90305 8.25707 3.35726 6.3721 4.80189 4.94303Z" fill="#E51E25"/>
</svg>
