<svg width="24" height="24" viewBox="0 0 24 24" fill="none" xmlns="http://www.w3.org/2000/svg">
<path fill-rule="evenodd" clip-rule="evenodd" d="M12 1.99951C11.5274 1.99951 11.07 2.1669 10.709 2.47199L3.709 8.47199C3.4868 8.65979 3.30824 8.8938 3.18579 9.15771C3.06333 9.42161 2.99993 9.70906 3 9.99999V19C3 19.5304 3.21071 20.0391 3.58579 20.4142C3.96086 20.7893 4.46957 21 5 21H19C19.5304 21 20.0391 20.7893 20.4142 20.4142C20.7893 20.0391 21 19.5304 21 19V9.99999C21.0001 9.70906 20.9367 9.42161 20.8142 9.15771C20.6918 8.8938 20.5132 8.65979 20.291 8.47199L13.291 2.47199C12.93 2.1669 12.4726 1.99951 12 1.99951ZM9 14.5C9 14.2348 9.10536 13.9804 9.29289 13.7929C9.48043 13.6054 9.73478 13.5 10 13.5H14C14.2652 13.5 14.5196 13.6054 14.7071 13.7929C14.8946 13.9804 15 14.2348 15 14.5V21H9V14.5Z" fill="#E51E25"/>
</svg>
