<svg width="24" height="24" viewBox="0 0 24 24" fill="none" xmlns="http://www.w3.org/2000/svg">
<path d="M12 1.25488C12.6202 1.25488 13.2229 1.4482 13.7266 1.80273L13.9365 1.96484L13.9414 1.96875L20.9365 7.96484L21.0586 8.07324C21.3355 8.3345 21.561 8.6469 21.7217 8.99316C21.9051 9.38866 22 9.81991 22 10.2559V19.2559C21.9999 20.0513 21.6836 20.8154 21.1211 21.3779C20.5585 21.9402 19.7954 22.2559 19 22.2559H5C4.20458 22.2559 3.44147 21.9402 2.87891 21.3779C2.31641 20.8154 2.00013 20.0513 2 19.2559V10.2559C2 9.81991 2.09491 9.38866 2.27832 8.99316C2.46193 8.59746 2.73035 8.24648 3.06348 7.96484L10.0586 1.96875L10.0635 1.96484C10.605 1.50721 11.291 1.25488 12 1.25488ZM10 12.2549C9.46957 12.2549 8.96101 12.4657 8.58594 12.8408C8.21087 13.2159 8 13.7244 8 14.2549V22.2549H16V14.2549C16 13.7244 15.7891 13.2159 15.4141 12.8408C15.039 12.4657 14.5304 12.2549 14 12.2549H10Z" fill="#E51E25"/>
</svg>
