<svg width="32" height="32" viewBox="0 0 32 32" fill="none" xmlns="http://www.w3.org/2000/svg">
<path d="M17.324 20.4812C17.3239 20.4273 17.3022 20.3752 17.264 20.3371C17.2259 20.2992 17.1745 20.2781 17.1208 20.278H14.8792C14.8255 20.2781 14.7741 20.2992 14.736 20.3371C14.6978 20.3752 14.6761 20.4273 14.676 20.4812V24.9625C14.676 25.0309 14.6729 25.0993 14.6662 25.1666H17.3338C17.3271 25.0993 17.324 25.0309 17.324 24.9625V20.4812ZM24.7594 24.9625C24.7594 25.5028 24.5443 26.0218 24.1623 26.4038C23.7803 26.7856 23.262 27 22.722 27H9.27803C8.73796 27 8.21966 26.7856 7.83768 26.4038C7.45566 26.0218 7.24059 25.5028 7.24059 24.9625V15.9721L6.56472 16.648C6.20674 17.006 5.62647 17.006 5.26849 16.648C4.9105 16.29 4.9105 15.7098 5.26849 15.3518L15.3519 5.26834L15.4217 5.20568C15.7818 4.91202 16.3125 4.93273 16.6481 5.26834L26.7315 15.3518C27.0895 15.7098 27.0895 16.29 26.7315 16.648C26.3735 17.006 25.7933 17.006 25.4353 16.648L24.7594 15.9721V24.9625ZM19.1573 24.9625C19.1573 25.0165 19.1791 25.0685 19.2173 25.1067C19.2555 25.1449 19.3074 25.1666 19.3614 25.1666H22.722C22.776 25.1666 22.8279 25.1449 22.8661 25.1067C22.9043 25.0685 22.9261 25.0166 22.9261 24.9625V14.1388L16 7.2127L9.07393 14.1388V24.9625C9.07393 25.0165 9.09574 25.0685 9.13391 25.1067C9.17211 25.1449 9.22401 25.1666 9.27803 25.1666H12.6386C12.6926 25.1666 12.7445 25.1449 12.7827 25.1067C12.8209 25.0685 12.8427 25.0165 12.8427 24.9625V20.4812C12.8427 19.9411 13.057 19.4228 13.4389 19.0409C13.8208 18.6589 14.3391 18.4448 14.8792 18.4447H17.1208C17.6609 18.4448 18.1792 18.6589 18.5611 19.0409C18.943 19.4228 19.1573 19.9411 19.1573 20.4812V24.9625Z" fill="#444444"/>
</svg>
