<svg width="32" height="32" viewBox="0 0 32 32" fill="none" xmlns="http://www.w3.org/2000/svg">
<path d="M26 16C26 13.3478 24.9467 10.8041 23.0713 8.92871C21.1959 7.05335 18.6522 6 16 6C13.3478 6 10.8041 7.05335 8.92871 8.92871C7.05335 10.8041 6 13.3478 6 16C6 17.3132 6.2582 18.6139 6.76074 19.8271C7.26329 21.0404 8.00015 22.1427 8.92871 23.0713C9.85727 23.9998 10.9596 24.7367 12.1729 25.2393C13.3861 25.7418 14.6868 26 16 26C17.3132 26 18.6139 25.7418 19.8271 25.2393C21.0404 24.7367 22.1427 23.9998 23.0713 23.0713C23.9998 22.1427 24.7367 21.0404 25.2393 19.8271C25.7418 18.6139 26 17.3132 26 16ZM16.0127 19.8887C16.5647 19.8889 17.0126 20.3366 17.0127 20.8887C17.0127 21.4408 16.5648 21.8884 16.0127 21.8887H16C15.4477 21.8887 15 21.441 15 20.8887C15.0001 20.3365 15.4478 19.8887 16 19.8887H16.0127ZM15 16V11.1113C15 10.559 15.4477 10.1113 16 10.1113C16.5523 10.1113 17 10.559 17 11.1113V16C17 16.5523 16.5523 17 16 17C15.4477 17 15 16.5523 15 16ZM28 16C28 17.5757 27.6898 19.136 27.0869 20.5918C26.4839 22.0477 25.5997 23.371 24.4854 24.4854C23.371 25.5997 22.0477 26.4839 20.5918 27.0869C19.136 27.6898 17.5757 28 16 28C14.4243 28 12.864 27.6898 11.4082 27.0869C9.9523 26.4839 8.62895 25.5997 7.51465 24.4854C6.40035 23.371 5.51614 22.0477 4.91309 20.5918C4.31016 19.136 4 17.5757 4 16C4 12.8174 5.26421 9.76509 7.51465 7.51465C9.76509 5.26421 12.8174 4 16 4C19.1826 4 22.2349 5.26421 24.4854 7.51465C26.7358 9.76508 28 12.8174 28 16Z" fill="#444444"/>
</svg>
