<svg width="32" height="32" viewBox="0 0 32 32" fill="none" xmlns="http://www.w3.org/2000/svg">
<path d="M10.7963 22.8719L11.7919 22.9662C11.8318 22.5445 11.6018 22.1434 11.2176 21.965L10.7963 22.8719ZM10.5 26L9.50446 25.9057C9.46912 26.2787 9.64531 26.6402 9.96092 26.8423C10.2765 27.0443 10.6786 27.0529 11.0025 26.8646L10.5 26ZM14.1667 23.8686L14.3101 22.879C14.0868 22.8466 13.8592 22.8907 13.6641 23.0041L14.1667 23.8686ZM15 10C15 9.44772 14.5523 9 14 9C13.4477 9 13 9.44772 13 10H14H15ZM13 19C13 19.5523 13.4477 20 14 20C14.5523 20 15 19.5523 15 19H14H13ZM18.7071 13.7071C19.0976 13.3166 19.0976 12.6834 18.7071 12.2929C18.3166 11.9024 17.6834 11.9024 17.2929 12.2929L18 13L18.7071 13.7071ZM15 16L14.2929 15.2929L13.5858 16L14.2929 16.7071L15 16ZM17.2929 19.7071C17.6834 20.0976 18.3166 20.0976 18.7071 19.7071C19.0976 19.3166 19.0976 18.6834 18.7071 18.2929L18 19L17.2929 19.7071ZM27 14.5H26C26 19.0618 21.6655 23 16 23V24V25C22.4848 25 28 20.4316 28 14.5H27ZM5 14.5H6C6 9.93816 10.3345 6 16 6V5V4C9.51521 4 4 8.56843 4 14.5H5ZM16 5V6C21.6655 6 26 9.93816 26 14.5H27H28C28 8.56843 22.4848 4 16 4V5ZM10.7963 22.8719L11.2176 21.965C8.04956 20.4931 6 17.6598 6 14.5H5H4C4 18.5822 6.64182 22.0444 10.375 23.7788L10.7963 22.8719ZM10.7963 22.8719L9.80077 22.7776L9.50446 25.9057L10.5 26L11.4955 26.0943L11.7919 22.9662L10.7963 22.8719ZM16 24V23C15.4234 23 14.8588 22.9585 14.3101 22.879L14.1667 23.8686L14.0233 24.8583C14.667 24.9516 15.3274 25 16 25V24ZM10.5 26L11.0025 26.8646L14.6692 24.7332L14.1667 23.8686L13.6641 23.0041L9.99746 25.1354L10.5 26ZM14 10H13V19H14H15V10H14ZM18 13L17.2929 12.2929L14.2929 15.2929L15 16L15.7071 16.7071L18.7071 13.7071L18 13ZM15 16L14.2929 16.7071L17.2929 19.7071L18 19L18.7071 18.2929L15.7071 15.2929L15 16Z" fill="#444444"/>
</svg>
