<svg width="32" height="32" viewBox="0 0 32 32" fill="none" xmlns="http://www.w3.org/2000/svg">
<circle cx="16" cy="16" r="16" fill="#FEE500"/>
<path d="M16.0461 7.72168C11.0682 7.72168 7.05371 10.9332 7.05371 14.8321C7.05371 17.3628 8.72373 19.5788 11.2288 20.8441L10.3809 24.0108C10.3649 24.0582 10.3625 24.1091 10.3738 24.1579C10.3851 24.2067 10.4098 24.2514 10.4451 24.2869C10.4966 24.3323 10.5628 24.3574 10.6314 24.3576C10.6883 24.353 10.7423 24.3305 10.7856 24.2933L14.4339 21.8333C14.9724 21.9076 15.5153 21.9462 16.059 21.9489C21.0305 21.9489 25.0514 18.7373 25.0514 14.8321C25.0514 10.9268 21.0176 7.72168 16.0461 7.72168Z" fill="#392020"/>
<path d="M10.2012 13.7084H9.21849C9.09669 13.7119 8.97639 13.6807 8.87164 13.6184C8.82514 13.5893 8.78516 13.5509 8.75421 13.5055C8.72326 13.4602 8.70201 13.409 8.69179 13.3551C8.68867 13.3209 8.68867 13.2865 8.69179 13.2524C8.68874 13.1884 8.70116 13.1246 8.72799 13.0665C8.75483 13.0083 8.79529 12.9575 8.84595 12.9183C8.95793 12.8372 9.09309 12.7944 9.23134 12.7963H12.1924C12.3152 12.792 12.4363 12.8256 12.5393 12.8926C12.5869 12.9205 12.6277 12.9586 12.6588 13.0041C12.6899 13.0497 12.7105 13.1015 12.7191 13.156C12.7222 13.188 12.7222 13.2203 12.7191 13.2524C12.7221 13.3173 12.7097 13.3819 12.6829 13.4411C12.6562 13.5003 12.6157 13.5522 12.5649 13.5927C12.4557 13.6737 12.3218 13.7146 12.186 13.7084H11.2354V17.087C11.2392 17.1589 11.2281 17.2309 11.2026 17.2983C11.1772 17.3658 11.138 17.4273 11.0876 17.4788C11.0393 17.528 10.9811 17.5666 10.917 17.5921C10.8528 17.6175 10.784 17.6292 10.7151 17.6265C10.5945 17.6299 10.4764 17.5914 10.3811 17.5173C10.2903 17.445 10.2288 17.3423 10.2077 17.2283C10.2013 17.1814 10.2013 17.1338 10.2077 17.087L10.2012 13.7084Z" fill="#FEE500"/>
<path d="M13.0022 13.0465C13.0304 12.9408 13.0968 12.8493 13.1884 12.7896C13.2861 12.7342 13.3974 12.7075 13.5096 12.7125H13.7537C13.8727 12.7082 13.9906 12.7372 14.0941 12.796C14.2038 12.8698 14.2818 12.9821 14.3125 13.1107L15.5971 16.7398C15.6304 16.8345 15.6583 16.9311 15.6806 17.0289C15.6828 17.0696 15.6828 17.1103 15.6806 17.1509C15.6828 17.2135 15.6713 17.2758 15.6469 17.3335C15.6224 17.3912 15.5857 17.4429 15.5393 17.4849C15.4943 17.5311 15.4403 17.5674 15.3806 17.5917C15.3209 17.616 15.2569 17.6278 15.1924 17.6262C15.0934 17.6361 14.9939 17.6123 14.91 17.5587C14.8261 17.5051 14.7627 17.4248 14.73 17.3308L14.4602 16.5408H12.7709L12.5012 17.3308C12.4692 17.4267 12.4051 17.5085 12.3196 17.5624C12.2341 17.6163 12.1325 17.6388 12.0323 17.6262C11.9236 17.6291 11.8173 17.5951 11.7304 17.5299C11.6457 17.4625 11.5886 17.3666 11.5698 17.2601C11.5664 17.2238 11.5664 17.1872 11.5698 17.1509C11.5588 17.0872 11.5588 17.022 11.5698 16.9583C11.5698 16.8876 11.6148 16.8105 11.6405 16.7398L13.0022 13.0465ZM13.6445 13.888L13.0343 15.8149H14.2482L13.6445 13.888Z" fill="#FEE500"/>
<path d="M15.8277 13.253C15.8212 13.1089 15.872 12.968 15.969 12.8612C16.0183 12.8115 16.0776 12.7726 16.1428 12.7471C16.2081 12.7217 16.278 12.7102 16.348 12.7134C16.4683 12.712 16.5857 12.7504 16.682 12.8226C16.7712 12.898 16.8304 13.0028 16.849 13.1181C16.8553 13.1628 16.8553 13.2083 16.849 13.253V16.6316H18.6153C18.7378 16.63 18.8581 16.6634 18.9622 16.7279C19.009 16.7567 19.0491 16.7951 19.0801 16.8405C19.1111 16.8859 19.1322 16.9372 19.142 16.9913C19.142 16.9913 19.142 17.0555 19.142 17.0876C19.1451 17.1516 19.1327 17.2153 19.1058 17.2734C19.079 17.3316 19.0385 17.3825 18.9879 17.4216C18.8759 17.5027 18.7408 17.5455 18.6025 17.5436H16.4315C16.2932 17.5525 16.1558 17.5165 16.0397 17.4409C15.9358 17.3633 15.8666 17.2479 15.847 17.1198C15.8423 17.0492 15.8423 16.9783 15.847 16.9078L15.8277 13.253Z" fill="#FEE500"/>
<path d="M19.2581 13.2526C19.2543 13.1088 19.3048 12.969 19.3995 12.8608C19.4957 12.7733 19.6192 12.7216 19.7491 12.7146C19.879 12.7076 20.0073 12.7456 20.1124 12.8222C20.2036 12.8969 20.2651 13.0016 20.2858 13.1176C20.289 13.1625 20.289 13.2077 20.2858 13.2526V14.8262L21.9109 12.9506C21.9735 12.8866 22.04 12.8266 22.11 12.7708C22.176 12.7315 22.2516 12.7115 22.3284 12.713C22.4407 12.7124 22.5505 12.746 22.6431 12.8093C22.6868 12.8387 22.7241 12.8767 22.7528 12.9208C22.7815 12.965 22.801 13.0144 22.8101 13.0663C22.8127 13.079 22.8127 13.0921 22.8101 13.1048C22.807 13.1197 22.807 13.135 22.8101 13.1498C22.8099 13.2174 22.7922 13.2838 22.7588 13.3425C22.7247 13.4047 22.6837 13.4628 22.6367 13.5159L21.5705 14.6849L22.8551 16.6761V16.7403C22.9218 16.8323 22.9738 16.9342 23.0093 17.0422V17.0743C23.0167 17.1487 23.006 17.2239 22.978 17.2932C22.95 17.3626 22.9056 17.4241 22.8487 17.4725C22.7415 17.5535 22.6104 17.5965 22.4761 17.5946C22.3869 17.5983 22.2983 17.5783 22.2192 17.5368C22.1337 17.4794 22.0632 17.4023 22.0137 17.312L20.819 15.385L20.2473 15.9824V17.055C20.2512 17.1987 20.2007 17.3386 20.106 17.4468C20.0552 17.4964 19.9949 17.5352 19.9286 17.5606C19.8623 17.586 19.7915 17.5976 19.7206 17.5946C19.6021 17.5971 19.4864 17.5585 19.393 17.4854C19.3023 17.4131 19.2407 17.3105 19.2196 17.1964C19.2133 17.1495 19.2133 17.1019 19.2196 17.055L19.2581 13.2526Z" fill="#FEE500"/>
</svg>
