<svg width="32" height="32" viewBox="0 0 32 32" fill="none" xmlns="http://www.w3.org/2000/svg">
<path d="M5 14.3254V7C5 5.89543 5.89543 5 7 5H14.3254C14.8559 5 15.3646 5.21071 15.7396 5.58579L25.5858 15.4319C26.3668 16.213 26.3668 17.4793 25.5858 18.2604L18.2604 25.5858C17.4793 26.3668 16.213 26.3668 15.4319 25.5858L5.58579 15.7396C5.21071 15.3646 5 14.8559 5 14.3254Z" stroke="#444444" stroke-width="2"/>
<path d="M13 11C13 12.1046 12.1046 13 11 13C9.89543 13 9 12.1046 9 11C9 9.89543 9.89543 9 11 9C12.1046 9 13 9.89543 13 11Z" stroke="#444444" stroke-width="2"/>
</svg>
