<svg width="14" height="14" viewBox="0 0 14 14" fill="none" xmlns="http://www.w3.org/2000/svg">
<path d="M12.2998 11.2549C12.4103 11.2549 12.5 11.3446 12.5 11.4551V12.2549C12.5 12.3653 12.4103 12.4551 12.2998 12.4551H2.2002C2.08974 12.4551 2 12.3653 2 12.2549V11.4551C2 11.3446 2.08974 11.2549 2.2002 11.2549H12.2998ZM10.75 2.25488C11.3917 2.25488 11.917 2.78021 11.917 3.42188C11.9168 4.06339 11.3916 4.58789 10.75 4.58789H10.6338L9.875 6.16309C10.05 6.39642 10.167 6.63021 10.167 6.92188C10.1668 7.56339 9.64156 8.08789 9 8.08789C8.35844 8.08789 7.83319 7.56339 7.83301 6.92188V6.86328L6.25879 6.04688C6.08379 6.22187 5.79167 6.33789 5.5 6.33789H5.38379L4.625 7.91309C4.8 8.08809 4.91699 8.38021 4.91699 8.67188C4.91681 9.31339 4.39156 9.83789 3.75 9.83789C3.10844 9.83789 2.58319 9.31339 2.58301 8.67188C2.58301 8.03021 3.10833 7.50488 3.75 7.50488H3.86621L4.625 5.92969C4.45012 5.75474 4.33309 5.46338 4.33301 5.17188C4.33301 4.53021 4.85833 4.00488 5.5 4.00488C6.14167 4.00488 6.66699 4.53021 6.66699 5.17188V5.28809L8.24121 6.04688C8.41621 5.87188 8.70833 5.75488 9 5.75488H9.11621L9.875 4.17969C9.70012 4.00474 9.58309 3.71338 9.58301 3.42188C9.58301 2.78021 10.1083 2.25488 10.75 2.25488Z" fill="#2E2E2E"/>
</svg>
