<svg width="32" height="32" viewBox="0 0 32 32" fill="none" xmlns="http://www.w3.org/2000/svg">
<path d="M23.75 24C24.3023 24 24.75 24.4477 24.75 25C24.75 25.5523 24.3023 26 23.75 26H8.25C7.69772 26 7.25 25.5523 7.25 25C7.25 24.4477 7.69772 24 8.25 24H23.75ZM15 7C15 6.44772 15.4477 6 16 6C16.5523 6 17 6.44772 17 7V19.4619L21.2686 14.8887C21.6454 14.485 22.2789 14.464 22.6826 14.8408C23.086 15.2177 23.1081 15.8503 22.7314 16.2539L16.7314 22.6826C16.5423 22.8853 16.2772 23 16 23C15.7228 23 15.4577 22.8853 15.2686 22.6826L9.26855 16.2539C8.89195 15.8503 8.91404 15.2177 9.31738 14.8408C9.72112 14.464 10.3546 14.485 10.7314 14.8887L15 19.4619V7Z" fill="#444444"/>
</svg>
