<svg width="32" height="32" viewBox="0 0 32 32" fill="none" xmlns="http://www.w3.org/2000/svg">
<path d="M15 9L25 9M15 16L25 16M15 23H25M9 11C7.89543 11 7 10.1046 7 9C7 7.89543 7.89543 7 9 7C10.1046 7 11 7.89543 11 9C11 10.1046 10.1046 11 9 11ZM9 18C7.89543 18 7 17.1046 7 16C7 14.8954 7.89543 14 9 14C10.1046 14 11 14.8954 11 16C11 17.1046 10.1046 18 9 18ZM9 25C7.89543 25 7 24.1046 7 23C7 21.8954 7.89543 21 9 21C10.1046 21 11 21.8954 11 23C11 24.1046 10.1046 25 9 25Z" stroke="#444444" stroke-width="2" stroke-linecap="round"/>
</svg>
