<svg width="32" height="32" viewBox="0 0 32 32" fill="none" xmlns="http://www.w3.org/2000/svg">
<path d="M24 17.1113C24 16.7912 23.8717 16.4812 23.6387 16.251C23.4052 16.0204 23.0855 15.8887 22.75 15.8887H9.25C8.9145 15.8887 8.59482 16.0204 8.36133 16.251C8.12829 16.4812 8 16.7912 8 17.1113V23.7773C8 24.0974 8.12836 24.4075 8.36133 24.6377C8.59482 24.8683 8.9145 25 9.25 25H22.75C23.0855 25 23.4052 24.8683 23.6387 24.6377C23.8716 24.4075 24 24.0974 24 23.7773V17.1113ZM15 21.5557V19.333C15.0002 18.7809 15.4478 18.333 16 18.333C16.5522 18.333 16.9998 18.7809 17 19.333V21.5557C16.9999 22.1079 16.5522 22.5557 16 22.5557C15.4478 22.5557 15.0001 22.1079 15 21.5557ZM19.5 10.4443C19.5 9.53504 19.1343 8.66056 18.4795 8.01367C17.824 7.36631 16.9322 7 16 7C15.0678 7 14.176 7.36631 13.5205 8.01367C12.8657 8.66056 12.5 9.53504 12.5 10.4443V13.8887H19.5V10.4443ZM21.5 13.8887H22.75C23.608 13.8887 24.4335 14.2252 25.0439 14.8281C25.6548 15.4314 26 16.2527 26 17.1113V23.7773C26 24.6359 25.6547 25.4573 25.0439 26.0605C24.4335 26.6634 23.608 27 22.75 27H9.25C8.39203 27 7.56648 26.6634 6.95605 26.0605C6.34531 25.4573 6 24.6359 6 23.7773V17.1113C6 16.2527 6.34525 15.4314 6.95605 14.8281C7.56648 14.2252 8.39203 13.8887 9.25 13.8887H10.5V10.4443C10.5 8.99638 11.0825 7.60987 12.1152 6.58984C13.1476 5.57031 14.5454 5 16 5C17.4546 5 18.8524 5.57031 19.8848 6.58984C20.9175 7.60987 21.5 8.99638 21.5 10.4443V13.8887Z" fill="#444444"/>
</svg>
