<svg width="32" height="32" viewBox="0 0 32 32" fill="none" xmlns="http://www.w3.org/2000/svg">
<path d="M24.6133 6.01465C24.7515 6.03325 24.8869 6.06938 25.0156 6.12305L25.2031 6.21583L25.377 6.33301C25.4873 6.41813 25.5862 6.51722 25.6709 6.62794L25.7871 6.80176L25.8789 6.98926C25.9587 7.1825 26.0001 7.39017 26 7.60059V21.5352C25.9996 21.8151 25.926 22.0905 25.7861 22.333C25.6461 22.5755 25.4445 22.7776 25.2021 22.918C24.9598 23.0583 24.6844 23.133 24.4043 23.1338C24.1241 23.1345 23.8486 23.061 23.6055 22.9219L17.7344 19.5674H16.1533L16.667 23.166L16.668 23.1758C16.7711 23.9541 16.5631 24.7415 16.0889 25.3672C15.6146 25.9929 14.9129 26.4065 14.1357 26.5176C13.3585 26.6286 12.569 26.4279 11.9385 25.96C11.308 25.4921 10.8874 24.7946 10.7686 24.0186L10.7666 24.0088L10.1201 19.4883C9.12098 19.3096 8.19242 18.8301 7.46484 18.1025C6.5272 17.1649 6.00004 15.8934 6 14.5674C6 13.2413 6.52716 11.9689 7.46484 11.0313C8.40249 10.0938 9.67411 9.56739 11 9.56739H17.7344L23.6055 6.21094L23.7939 6.11915C23.987 6.04013 24.1943 5.99944 24.4043 6.00001L24.6133 6.01465ZM12.7461 23.7246C12.787 23.9763 12.925 24.2024 13.1299 24.3545C13.3372 24.5083 13.597 24.5736 13.8525 24.5371C14.1081 24.5006 14.3392 24.365 14.4951 24.1592C14.651 23.9534 14.7195 23.6944 14.6855 23.4385V23.4375L14.1328 19.5674H12.1533L12.7461 23.7246ZM19 11.1475V17.9863L24 20.8428V8.28907L19 11.1475ZM8 14.5674C8.00004 15.363 8.31633 16.1259 8.87891 16.6885C9.3711 17.1806 10.0165 17.4845 10.7031 17.5527L11 17.5674H17V11.5674H11C10.2044 11.5674 9.44152 11.8837 8.87891 12.4463C8.31634 13.0089 8 13.7718 8 14.5674Z" fill="#444444"/>
</svg>
