<svg width="28" height="28" viewBox="0 0 28 28" fill="none" xmlns="http://www.w3.org/2000/svg">
<path d="M6.125 13.0378C6.125 12.5546 6.51675 12.1628 7 12.1628C7.48325 12.1628 7.875 12.5546 7.875 13.0378C7.87509 14.5814 8.51172 16.0689 9.65662 17.171C10.8029 18.2744 12.365 18.8997 14 18.8997C15.635 18.8997 17.1971 18.2744 18.3434 17.171C19.4883 16.0689 20.1249 14.5814 20.125 13.0378C20.125 12.5546 20.5168 12.1628 21 12.1628C21.4833 12.1628 21.875 12.5546 21.875 13.0378C21.8749 15.0677 21.037 17.0075 19.5568 18.4323C18.2867 19.6547 16.6326 20.411 14.875 20.601V22.75H17.9999C18.4831 22.75 18.8749 23.1418 18.8749 23.625C18.8749 24.1082 18.4831 24.5 17.9999 24.5H10.0001C9.51687 24.5 9.12512 24.1082 9.12512 23.625C9.12512 23.1418 9.51687 22.75 10.0001 22.75H13.125V20.601C11.3674 20.411 9.71335 19.6547 8.44324 18.4323C6.96301 17.0075 6.12509 15.0677 6.125 13.0378ZM16.1251 7.26233C16.1251 6.73967 15.9091 6.23174 15.5142 5.85156C15.118 5.47025 14.5741 5.25 14 5.25C13.4259 5.25 12.882 5.47025 12.4858 5.85156C12.0909 6.23174 11.8749 6.73967 11.8749 7.26233V13.0378C11.875 13.5604 12.0909 14.0685 12.4858 14.4486C12.882 14.8299 13.4259 15.0502 14 15.0502C14.5741 15.0502 15.118 14.8299 15.5142 14.4486C15.9091 14.0685 16.125 13.5604 16.1251 13.0378V7.26233ZM17.8751 13.0378C17.875 14.0466 17.4584 15.0071 16.7284 15.7098C15.9993 16.4115 15.0172 16.8002 14 16.8002C12.9828 16.8002 12.0007 16.4115 11.2716 15.7098C10.5416 15.0071 10.125 14.0466 10.1249 13.0378V7.26233C10.1249 6.25356 10.5416 5.29308 11.2716 4.59033C12.0007 3.88862 12.9828 3.5 14 3.5C15.0172 3.5 15.9993 3.88862 16.7284 4.59033C17.4584 5.29308 17.8751 6.25356 17.8751 7.26233V13.0378Z" fill="#444444"/>
</svg>
