<svg width="32" height="32" viewBox="0 0 32 32" fill="none" xmlns="http://www.w3.org/2000/svg">
<path d="M11.4 27C9.88333 27 8.604 26.4793 7.562 25.438C6.52 24.3967 5.99933 23.1173 6 21.6C6 20.9667 6.10833 19.35 6.325 18.75C6.54167 18.15 6.85 17.6083 7.25 17.125L10.8 11.85L9.1 7.45C8.93333 7.11667 8.946 6.79167 9.138 6.475C9.33 6.15833 9.61733 6 10 6H22C22.3833 6 22.671 6.15833 22.863 6.475C23.055 6.79167 23.0673 7.11667 22.9 7.45L21.2 11.85L24.75 17.125C25.15 17.6083 25.4583 18.15 25.675 18.75C25.8917 19.35 26 20.9667 26 21.6C26 23.1167 25.475 24.396 24.425 25.438C23.375 26.48 22.1 27.0007 20.6 27H11.4ZM16 21C15.45 21 14.9793 20.8043 14.588 20.413C14.1967 20.0217 14.0007 19.5507 14 19C13.9993 18.4493 14.1953 17.9787 14.588 17.588C14.9807 17.1973 15.4513 17.0013 16 17C16.5487 16.9987 17.0197 17.1947 17.413 17.588C17.8063 17.9813 18.002 18.452 18 19C17.998 19.548 17.8023 20.019 17.413 20.413C17.0237 20.807 16.5527 21.0027 16 21ZM12.625 11H19.375L20.375 8H11.625L12.625 11ZM11.4 25H20.6C21.55 25 22.3543 24.671 23.013 24.013C23.6717 23.355 24.0007 22.5507 24 21.6C24 21.2 23.929 19.8127 23.787 19.438C23.645 19.0633 23.4493 18.7257 23.2 18.425L19.525 13H12.5L8.8 18.4C8.55 18.7 8.35433 19.0417 8.213 19.425C8.07167 19.8083 8.00067 21.2 8 21.6C8 22.55 8.32933 23.3543 8.988 24.013C9.64667 24.6717 10.4507 25.0007 11.4 25Z" fill="#444444"/>
</svg>
