<svg width="18" height="18" viewBox="0 0 18 18" fill="none" xmlns="http://www.w3.org/2000/svg">
<path d="M15.725 14.3C16.153 14.3 16.5 14.647 16.5 15.075C16.5 15.503 16.153 15.85 15.725 15.85H1.775C1.34698 15.85 1 15.503 1 15.075C1 14.647 1.34698 14.3 1.775 14.3H15.725ZM15.725 8.09999C16.153 8.09999 16.5 8.44697 16.5 8.87499C16.5 9.30301 16.153 9.64999 15.725 9.64999H1.775C1.34698 9.64999 1 9.30301 1 8.87499C1 8.44697 1.34698 8.09999 1.775 8.09999H15.725ZM15.725 1.89999C16.153 1.89999 16.5 2.24697 16.5 2.67499C16.5 3.10301 16.153 3.44999 15.725 3.44999H1.775C1.34698 3.44999 1 3.10301 1 2.67499C1 2.24697 1.34698 1.89999 1.775 1.89999H15.725Z" fill="#444444"/>
</svg>
