<svg width="32" height="32" viewBox="0 0 32 32" fill="none" xmlns="http://www.w3.org/2000/svg">
<path d="M12.5556 25.167C12.5556 24.946 12.4678 24.7335 12.3115 24.5772C12.1553 24.4211 11.9434 24.3331 11.7226 24.333C11.5016 24.333 11.2891 24.4209 11.1328 24.5772C10.9765 24.7335 10.8886 24.946 10.8886 25.167C10.8887 25.3879 10.9767 25.5997 11.1328 25.7559C11.2891 25.9122 11.5016 26 11.7226 26C11.9435 25.9999 12.1553 25.9121 12.3115 25.7559C12.4677 25.5997 12.5556 25.3879 12.5556 25.167ZM22.333 25.167C22.333 24.9461 22.246 24.7335 22.0898 24.5772C21.9335 24.4209 21.721 24.333 21.5 24.333C21.2791 24.3331 21.0673 24.4211 20.9111 24.5772C20.7548 24.7335 20.667 24.946 20.667 25.167C20.6671 25.3879 20.7549 25.5997 20.9111 25.7559C21.0674 25.9121 21.2791 26 21.5 26C21.721 26 21.9335 25.9122 22.0898 25.7559C22.2459 25.5997 22.3329 25.3878 22.333 25.167ZM4.71677 4.04105C5.24623 3.88469 5.80233 4.18739 5.95896 4.71683L6.61521 6.93363H24.4629C26.6922 6.93367 28.4146 8.94785 27.915 11.1202L27.8603 11.3311L25.8388 18.1748L25.8379 18.1768C25.3944 19.6714 23.9952 20.667 22.4414 20.667H11.248C9.69335 20.667 8.29169 19.6706 7.84958 18.1758L4.04099 5.28324C3.88463 4.75378 4.18733 4.19768 4.71677 4.04105ZM9.76755 17.6084C9.94642 18.2133 10.5368 18.667 11.248 18.667H22.4414C23.1508 18.667 23.7408 18.2147 23.9209 17.6075L25.9424 10.7647C26.2003 9.89179 25.5299 8.93366 24.4629 8.93363H7.20603L9.76755 17.6084ZM17.7373 11.0147C18.1277 10.6244 18.7608 10.6246 19.1513 11.0147C19.5419 11.4052 19.5419 12.0392 19.1513 12.4297L18.0254 13.5547L19.1513 14.6817C19.5419 15.0722 19.5419 15.7052 19.1513 16.0957C18.7608 16.4863 18.1278 16.4863 17.7373 16.0957L16.6103 14.9698L15.4853 16.0957C15.0948 16.4863 14.4608 16.4863 14.0703 16.0957C13.6802 15.7052 13.68 15.0721 14.0703 14.6817L15.1963 13.5547L14.0703 12.4297C13.6798 12.0392 13.6798 11.4052 14.0703 11.0147C14.4608 10.6242 15.0948 10.6242 15.4853 11.0147L16.6103 12.1407L17.7373 11.0147ZM14.5556 25.167C14.5556 25.9184 14.2568 26.6387 13.7256 27.17C13.1943 27.7012 12.4739 27.9999 11.7226 28C10.9712 28 10.2501 27.7013 9.71872 27.17C9.18753 26.6387 8.88873 25.9183 8.88865 25.167C8.88865 24.4156 9.18737 23.6945 9.71872 23.1631C10.2501 22.6318 10.9712 22.333 11.7226 22.333C12.4739 22.3331 13.1943 22.6319 13.7256 23.1631C14.2569 23.6945 14.5556 24.4156 14.5556 25.167ZM24.333 25.167C24.3329 25.9182 24.035 26.6387 23.5039 27.17C22.9725 27.7013 22.2514 28 21.5 28C20.7486 28 20.0284 27.7012 19.497 27.17C18.9658 26.6387 18.6671 25.9184 18.667 25.167C18.667 24.4156 18.9657 23.6945 19.497 23.1631C20.0283 22.632 20.7487 22.3331 21.5 22.333C22.2514 22.333 22.9725 22.6318 23.5039 23.1631C24.0352 23.6945 24.333 24.4156 24.333 25.167Z" fill="#444444"/>
</svg>
