<svg width="32" height="32" viewBox="0 0 32 32" fill="none" xmlns="http://www.w3.org/2000/svg">
<path d="M23.7996 7.75C23.7996 7.72348 23.7891 7.69844 23.7703 7.67969C23.7516 7.66093 23.7265 7.65039 23.7 7.65039H20.8504V8.2998L20.8445 8.40234C20.7933 8.90641 20.3679 9.29961 19.8504 9.2998H12.1502C11.5979 9.2998 11.1502 8.85209 11.1502 8.2998V7.65039H8.29962C8.27324 7.65049 8.24797 7.66103 8.22931 7.67969C8.21068 7.69842 8.20001 7.72357 8.20001 7.75V25.9004C8.20012 25.9268 8.21065 25.952 8.22931 25.9707C8.24797 25.9894 8.27324 25.9999 8.29962 26H23.7C23.7264 26 23.7516 25.9893 23.7703 25.9707C23.789 25.952 23.7995 25.9268 23.7996 25.9004V7.75ZM20.9998 18C21.5521 18 21.9998 18.4477 21.9998 19C21.9998 19.5523 21.5521 20 20.9998 20H10.9998C10.4476 19.9999 9.99982 19.5522 9.99982 19C9.99982 18.4478 10.4476 18.0001 10.9998 18H20.9998ZM20.9998 13C21.5521 13 21.9998 13.4477 21.9998 14C21.9998 14.5523 21.5521 15 20.9998 15H10.9998C10.4477 14.9999 9.99982 14.5522 9.99982 14C9.99982 13.4478 10.4477 13.0001 10.9998 13H20.9998ZM13.1502 7.2998H18.8504V6H13.1502V7.2998ZM25.7996 25.9004C25.7995 26.4571 25.5789 26.9911 25.1854 27.3848C24.7915 27.7786 24.257 28 23.7 28H8.29962C7.74281 27.9999 7.20898 27.7785 6.81525 27.3848C6.42151 26.991 6.20012 26.4572 6.20001 25.9004V7.75C6.20001 7.19304 6.42142 6.65847 6.81525 6.26465C7.20895 5.8711 7.74295 5.65049 8.29962 5.65039H11.1502V5C11.1502 4.44772 11.5979 4 12.1502 4H19.8504C20.4025 4.00021 20.8504 4.44785 20.8504 5V5.65039H23.7C24.257 5.65039 24.7915 5.87082 25.1854 6.26465C25.5792 6.65848 25.7996 7.19305 25.7996 7.75V25.9004Z" fill="#444444"/>
</svg>
