<svg width="32" height="32" viewBox="0 0 32 32" fill="none" xmlns="http://www.w3.org/2000/svg">
<path d="M22.1111 22.1111H24.5556C25.2039 22.1111 25.8256 21.8536 26.284 21.3951C26.7425 20.9367 27 20.315 27 19.6667V14.7778C27 14.1295 26.7425 13.5077 26.284 13.0493C25.8256 12.5909 25.2039 12.3333 24.5556 12.3333H7.44444C6.79614 12.3333 6.17438 12.5909 5.71596 13.0493C5.25754 13.5077 5 14.1295 5 14.7778V19.6667C5 20.315 5.25754 20.9367 5.71596 21.3951C6.17438 21.8536 6.79614 22.1111 7.44444 22.1111H9.88889M12.3333 27H19.6667C20.315 27 20.9367 26.7425 21.3951 26.284C21.8536 25.8256 22.1111 25.2039 22.1111 24.5556V19.6667C22.1111 19.0184 21.8536 18.3966 21.3951 17.9382C20.9367 17.4798 20.315 17.2222 19.6667 17.2222H12.3333C11.685 17.2222 11.0633 17.4798 10.6048 17.9382C10.1464 18.3966 9.88889 19.0184 9.88889 19.6667V24.5556C9.88889 25.2039 10.1464 25.8256 10.6048 26.284C11.0633 26.7425 11.685 27 12.3333 27ZM22.1111 12.3333V7.44444C22.1111 6.79614 21.8536 6.17438 21.3951 5.71596C20.9367 5.25754 20.315 5 19.6667 5H12.3333C11.685 5 11.0633 5.25754 10.6048 5.71596C10.1464 6.17438 9.88889 6.79614 9.88889 7.44444V12.3333H22.1111Z" stroke="#444444" stroke-width="2" stroke-linecap="round" stroke-linejoin="round"/>
</svg>
