<svg width="20" height="20" viewBox="0 0 20 20" fill="none" xmlns="http://www.w3.org/2000/svg">
<path d="M14.214 8.8515C14.6281 9.24267 14.8351 9.43825 14.9157 9.66482C14.9928 9.88162 14.9928 10.1184 14.9157 10.3352C14.8351 10.5618 14.6281 10.7573 14.214 11.1485L9.84474 15.2764C9.02246 16.0533 8.61132 16.4417 8.26153 16.4704C7.93011 16.4976 7.60684 16.3583 7.39902 16.0987C7.17969 15.8247 7.17969 15.2591 7.17969 14.1279L7.17969 5.87209C7.17969 4.74088 7.17969 4.17527 7.39902 3.90129C7.60684 3.64168 7.93011 3.50237 8.26154 3.52959C8.61132 3.55831 9.02246 3.94674 9.84474 4.72359L14.214 8.8515Z" fill="#E51E25"/>
</svg>
