<svg width="32" height="32" viewBox="0 0 32 32" fill="none" xmlns="http://www.w3.org/2000/svg">
<path d="M23.3682 8.4248C23.3681 8.06354 23.2286 7.72277 22.9893 7.47656C22.751 7.23149 22.4344 7.09967 22.1113 7.09961C21.7883 7.09961 21.4717 7.23158 21.2334 7.47656L8.1084 20.9785L7.50195 23.4775L9.86914 22.8691L22.9893 9.37305C23.2286 9.12682 23.3682 8.78609 23.3682 8.4248ZM26 23.9004C26.6075 23.9004 27.0996 24.3925 27.0996 25C27.0996 25.6075 26.6075 26.0996 26 26.0996H16C15.3925 26.0996 14.9004 25.6075 14.9004 25C14.9004 24.3925 15.3925 23.9004 16 23.9004H26ZM25.5684 8.4248C25.5684 9.34975 25.2111 10.243 24.5664 10.9062L11.2334 24.624C11.0926 24.7688 10.9143 24.8715 10.7187 24.9219L6.27441 26.0654C5.90025 26.1617 5.50259 26.0545 5.22754 25.7832C4.9525 25.5118 4.83945 25.1157 4.93066 24.7402L6.04199 20.168L6.08594 20.0283C6.13911 19.8918 6.21948 19.7669 6.32226 19.6611L19.6553 5.94336C20.301 5.27901 21.1842 4.90039 22.1113 4.90039C23.0383 4.90045 23.9207 5.27916 24.5664 5.94336C25.2111 6.60663 25.5683 7.4999 25.5684 8.4248Z" fill="#444444"/>
</svg>
