<svg width="32" height="32" viewBox="0 0 32 32" fill="none" xmlns="http://www.w3.org/2000/svg">
<path d="M15.9991 4C18.3819 3.99785 20.6682 4.96265 22.3624 6.68475L22.3633 6.68565C23.1971 7.53479 23.8594 8.54551 24.3118 9.65881C24.7642 10.772 24.9978 11.9664 25 13.1729V13.1747C25 16.3327 23.6632 19.1617 22.1058 21.3933C20.5439 23.6312 18.7078 25.3433 17.5873 26.2884C17.3158 26.5174 17.0085 26.7976 16.5572 26.9272L16.5563 26.9263C16.2161 27.0245 15.7828 27.0246 15.4428 26.9263V26.9272C14.9912 26.7975 14.6814 26.5151 14.4136 26.2902L14.4127 26.2884C13.2922 25.3433 11.4561 23.6312 9.89424 21.3933C8.33677 19.1617 7 16.3327 7 13.1747V13.1738L7.01143 12.7218C7.06283 11.6693 7.29042 10.6324 7.68643 9.65791C8.13909 8.54404 8.80235 7.53328 9.6376 6.68475L9.96191 6.37117C11.6174 4.84632 13.7658 3.99841 15.9991 4ZM15.9991 5.83925C14.0946 5.83755 12.2648 6.60979 10.9067 7.99028C10.2406 8.66706 9.71107 9.47396 9.34932 10.3641C8.98758 11.2543 8.80062 12.2101 8.8 13.1756C8.80025 15.8031 9.91886 18.2588 11.3603 20.3241C12.7974 22.3832 14.5041 23.9798 15.5579 24.8688H15.557C15.726 25.0107 15.8063 25.0776 15.8717 25.123C15.9165 25.1542 15.9265 25.1545 15.9297 25.1554L15.9323 25.1563C15.924 25.1539 15.9271 25.1552 15.9429 25.1572C15.9579 25.159 15.9778 25.1608 16 25.1608C16.0222 25.1608 16.0421 25.159 16.0571 25.1572C16.0729 25.1552 16.076 25.1539 16.0677 25.1563L16.0703 25.1554C16.0747 25.1542 16.085 25.1537 16.1292 25.123C16.1936 25.0783 16.2738 25.0107 16.4421 24.8688C17.4959 23.9798 19.2026 22.3832 20.6397 20.3241C22.081 18.2591 23.1995 15.8037 23.2 13.1765L23.1903 12.8153C23.1484 11.9732 22.9655 11.1442 22.6489 10.365C22.2872 9.47502 21.7584 8.66787 21.0933 7.99028L20.8331 7.7387C19.5061 6.51632 17.7864 5.83766 16.0009 5.83925H15.9991ZM18.7 13.1998C18.7 12.4678 18.4153 11.7659 17.909 11.2483C17.466 10.7954 16.8852 10.5159 16.2672 10.4531L16 10.4396C15.2839 10.4396 14.5974 10.7306 14.091 11.2483C13.5847 11.7659 13.3 12.4678 13.3 13.1998C13.3 13.9319 13.5847 14.6338 14.091 15.1514C14.5974 15.669 15.2839 15.9601 16 15.9601C16.7161 15.9601 17.4026 15.669 17.909 15.1514C18.4153 14.6338 18.7 13.9319 18.7 13.1998ZM20.5 13.1998C20.5 14.4199 20.0256 15.5897 19.1816 16.4524C18.3377 17.3152 17.1935 17.8002 16 17.8002C14.8065 17.8002 13.6623 17.3152 12.8184 16.4524C11.9744 15.5897 11.5 14.4199 11.5 13.1998C11.5 11.9797 11.9744 10.81 12.8184 9.94723C13.6623 9.0845 14.8065 8.59947 16 8.59947L16.2232 8.60486C17.3354 8.66129 18.3905 9.13844 19.1816 9.94723C20.0256 10.81 20.5 11.9797 20.5 13.1998Z" fill="#444444"/>
</svg>
