<svg width="32" height="32" viewBox="0 0 32 32" fill="none" xmlns="http://www.w3.org/2000/svg">
<path fill-rule="evenodd" clip-rule="evenodd" d="M19.3269 5.07715C19.9056 5.07715 20.4513 5.18542 20.9588 5.4043C21.4653 5.62236 21.9345 5.95257 22.367 6.38574L26.7136 10.7314C27.1495 11.1673 27.4889 11.6606 27.7283 12.209C27.968 12.7583 28.0893 13.3273 28.0886 13.9121C28.0886 14.4976 27.9676 15.0459 27.7215 15.5498C27.4817 16.0405 27.1431 16.5004 26.7136 16.9307L17.617 26.0186C17.3404 26.2959 17.0316 26.5068 16.6883 26.6396C16.3563 26.7684 16.0087 26.832 15.6463 26.832C14.9362 26.832 14.3206 26.5669 13.8201 26.0527C13.4029 25.6241 13.1798 25.1084 13.1433 24.5254C12.562 24.4612 12.0491 24.2416 11.6228 23.8516C11.17 23.4371 10.9319 22.8921 10.8787 22.2529C10.2451 22.1921 9.70184 21.9617 9.27908 21.5342C8.8609 21.1112 8.64244 20.582 8.60134 19.9736C8.03438 19.9143 7.53138 19.7111 7.10818 19.3496C6.56853 18.8895 6.31333 18.2525 6.31326 17.4922C6.31329 17.1401 6.38113 16.7912 6.51345 16.4492C6.64925 16.0975 6.85142 15.787 7.11697 15.5205L11.6619 10.9756L11.8308 10.8223C12.2353 10.4895 12.7201 10.3233 13.2674 10.3232C13.8933 10.3232 14.4381 10.5409 14.8738 10.9766L16.5662 12.6699L16.573 12.6758C16.633 12.7386 16.7122 12.7964 16.8172 12.8447C16.9028 12.884 17.008 12.9078 17.1394 12.9072C17.2855 12.9072 17.4124 12.8598 17.533 12.75C17.6338 12.6582 17.6895 12.5418 17.6902 12.3643C17.6902 12.2322 17.666 12.127 17.6267 12.042C17.5782 11.9367 17.5211 11.8559 17.4588 11.7959L17.4529 11.791L13.4392 7.77734L13.4383 7.77539C13.1773 7.51096 12.9168 7.32857 12.6599 7.21582C12.4032 7.10319 12.1171 7.04398 11.7967 7.04395C11.4816 7.04396 11.2061 7.10265 10.9646 7.21289C10.7803 7.29738 10.5885 7.42177 10.3914 7.5918L10.1931 7.77734L6.64041 11.3359C6.2913 11.6844 6.06549 12.1094 5.96365 12.6211C5.86202 13.132 5.90817 13.611 6.09939 14.0684L6.10916 14.0898L6.11502 14.1123C6.19014 14.3729 6.15266 14.6312 6.01736 14.8623C5.88369 15.0906 5.68089 15.2506 5.42068 15.3164C5.16586 15.3807 4.91472 15.3425 4.6863 15.2217C4.45044 15.0969 4.28035 14.8981 4.20974 14.6357C3.94113 13.8225 3.88279 12.9964 4.03591 12.1641C4.19316 11.3098 4.60011 10.5579 5.24294 9.91504L8.77029 6.38574L8.77224 6.38477C9.20888 5.95232 9.67978 5.62194 10.1863 5.40332C10.6936 5.18529 11.2397 5.07721 11.8181 5.07715C12.3968 5.07715 12.9397 5.18519 13.4402 5.40527L13.4392 5.40625C13.9382 5.62448 14.4036 5.95372 14.8357 6.38574L15.5681 7.11914L16.3025 6.38574L16.3045 6.38477C16.7401 5.95333 17.2065 5.62311 17.7049 5.4043C18.2058 5.18523 18.7485 5.0772 19.3269 5.07715ZM19.3269 7.04395C19.0121 7.04399 18.7267 7.10258 18.4666 7.21582C18.2095 7.32783 17.9558 7.5084 17.7088 7.76855L17.7019 7.77637L16.9656 8.51074L18.8396 10.3896C19.0421 10.5887 19.2081 10.811 19.3357 11.0547L19.451 11.3057C19.5818 11.64 19.6491 11.9845 19.6492 12.335C19.6492 13.039 19.4142 13.6461 18.9353 14.125C18.5162 14.5442 17.9993 14.7765 17.4051 14.8271L17.1463 14.8379C16.8059 14.8378 16.473 14.7851 16.1492 14.6816C15.7995 14.5698 15.4886 14.3753 15.2195 14.1064L13.5037 12.3984L13.5027 12.3975C13.4511 12.3459 13.3846 12.3126 13.2703 12.3125C13.1545 12.3125 13.0873 12.3461 13.0359 12.3975L8.51541 16.918C8.43538 16.9987 8.37804 17.0871 8.33962 17.1846C8.29794 17.2904 8.27911 17.3928 8.27908 17.4932C8.2791 17.6741 8.333 17.7961 8.42752 17.8916L8.42849 17.8926C8.52128 17.987 8.64062 18.0419 8.82009 18.042C8.91127 18.042 9.01412 18.0209 9.13162 17.9707C9.25593 17.9168 9.34008 17.8589 9.39529 17.8037L12.6795 14.5195C12.8586 14.3406 13.0834 14.2409 13.3347 14.2246C13.6246 14.206 13.8752 14.3234 14.0701 14.5195C14.256 14.7055 14.3747 14.9413 14.3748 15.2158C14.3747 15.4902 14.2568 15.7252 14.0711 15.9111L10.7927 19.1953C10.7127 19.2754 10.6543 19.3629 10.616 19.459C10.5744 19.5666 10.5565 19.6704 10.5564 19.7705C10.5565 19.9253 10.6066 20.0452 10.7146 20.1533C10.8228 20.2615 10.9428 20.3117 11.0974 20.3125C11.188 20.3125 11.2906 20.2929 11.408 20.2422C11.5335 20.1879 11.6181 20.1293 11.6736 20.0742L15.2263 16.5283C15.4048 16.3493 15.6291 16.2487 15.8806 16.2324C16.1707 16.2137 16.421 16.3318 16.616 16.5273C16.8019 16.7133 16.9196 16.9491 16.9197 17.2236C16.9197 17.4979 16.8026 17.7331 16.617 17.9189L13.0642 21.4785C13.0087 21.5319 12.9514 21.6121 12.9011 21.7324C12.8519 21.8505 12.8318 21.9552 12.8318 22.0479C12.8318 22.1626 12.8598 22.2591 12.9197 22.3457L12.991 22.4297L12.992 22.4307C13.1017 22.5408 13.2222 22.5908 13.3748 22.5908C13.4742 22.5908 13.577 22.5713 13.6844 22.5293C13.7816 22.4911 13.8679 22.4337 13.9461 22.3545L13.949 22.3525L17.5037 18.8057C17.6821 18.6267 17.9065 18.5261 18.158 18.5098H18.2664C18.4755 18.5213 18.6616 18.6048 18.8181 18.7354L18.8943 18.8037L18.8953 18.8057C19.0803 18.9918 19.197 19.2273 19.197 19.501C19.197 19.7755 19.0792 20.0103 18.8933 20.1963L15.3416 23.7471L15.3426 23.748C15.269 23.8221 15.2111 23.9132 15.1707 24.0264C15.1229 24.1602 15.1053 24.2656 15.1052 24.3457C15.1052 24.5147 15.159 24.6241 15.2586 24.7109C15.3827 24.819 15.5094 24.864 15.6521 24.8643C15.7433 24.8643 15.8462 24.845 15.9636 24.7949C16.088 24.7418 16.1714 24.6838 16.2263 24.6289L25.322 15.5322C25.5916 15.2627 25.7913 14.996 25.9285 14.7334C26.0561 14.4863 26.1219 14.2126 26.1219 13.9062C26.1218 13.6724 26.0845 13.4429 26.0086 13.2168L25.9197 12.9922C25.782 12.69 25.5854 12.4109 25.325 12.1553L20.9451 7.77539C20.6837 7.50976 20.426 7.32726 20.1756 7.21484C19.9287 7.10381 19.6475 7.04395 19.3269 7.04395Z" fill="#444444"/>
</svg>
