<svg width="16" height="16" viewBox="0 0 16 16" fill="none" xmlns="http://www.w3.org/2000/svg">
<path d="M6.10208 3.60533C6.94674 2.09066 7.36874 1.33333 8.00008 1.33333C8.63141 1.33333 9.05341 2.09066 9.89808 3.60533L10.1167 3.99733C10.3567 4.42799 10.4767 4.64333 10.6634 4.78533C10.8501 4.92733 11.0834 4.97999 11.5501 5.08533L11.9741 5.18133C13.6141 5.55266 14.4334 5.738 14.6287 6.36533C14.8234 6.992 14.2647 7.646 13.1467 8.95333L12.8574 9.29133C12.5401 9.66266 12.3807 9.84866 12.3094 10.078C12.2381 10.308 12.2621 10.556 12.3101 11.0513L12.3541 11.5027C12.5227 13.2473 12.6074 14.1193 12.0967 14.5067C11.5861 14.894 10.8181 14.5407 9.28341 13.834L8.88541 13.6513C8.44941 13.45 8.23141 13.35 8.00008 13.35C7.76874 13.35 7.55074 13.45 7.11474 13.6513L6.71741 13.834C5.18208 14.5407 4.41408 14.894 3.90408 14.5073C3.39274 14.1193 3.47741 13.2473 3.64608 11.5027L3.69008 11.052C3.73808 10.556 3.76208 10.308 3.69008 10.0787C3.61941 9.84866 3.46008 9.66266 3.14274 9.292L2.85341 8.95333C1.73541 7.64666 1.17674 6.99266 1.37141 6.36533C1.56608 5.738 2.38674 5.55199 4.02674 5.18133L4.45074 5.08533C4.91674 4.97999 5.14941 4.92733 5.33674 4.78533C5.52408 4.64333 5.64341 4.42799 5.88341 3.99733L6.10208 3.60533Z" fill="#DADADA"/>
</svg>
