<svg width="32" height="32" viewBox="0 0 32 32" fill="none" xmlns="http://www.w3.org/2000/svg">
<path fill-rule="evenodd" clip-rule="evenodd" d="M20.5195 7.86914C20.8303 7.86925 21.1243 8.01517 21.3135 8.26172C21.5022 8.50825 21.5657 8.82895 21.4854 9.12891L20.8066 11.6611H24.1465L24.2656 11.668C24.5403 11.701 24.7916 11.8474 24.9561 12.0742L27.7344 15.9062C27.9184 16.1605 27.9731 16.4871 27.8809 16.7871L26.7266 20.5381C26.5973 20.957 26.2099 21.2438 25.7715 21.2441H25.3105C25.0878 22.775 23.7702 23.951 22.1777 23.9512C20.5853 23.951 19.2676 22.775 19.0449 21.2441H14.9678C14.745 22.7751 13.4266 23.9512 11.834 23.9512C10.2415 23.951 8.92379 22.775 8.70117 21.2441H6.81543C6.26346 21.2441 5.81595 20.796 5.81543 20.2441C5.81543 19.6919 6.26314 19.2441 6.81543 19.2441H9.06934C9.61057 18.2749 10.645 17.6183 11.834 17.6182C13.0231 17.6182 14.0581 18.2747 14.5996 19.2441H16.7051L19.2168 9.87012H10.0645C9.5125 9.86992 9.06472 9.42206 9.06445 8.87012C9.06445 8.31795 9.51233 7.86934 10.0645 7.86914H20.5195ZM11.834 19.6182C11.1902 19.6184 10.6683 20.1404 10.668 20.7842C10.668 21.4282 11.19 21.9509 11.834 21.9512C12.4782 21.9512 13.001 21.4284 13.001 20.7842C13.0006 20.1403 12.4779 19.6182 11.834 19.6182ZM22.1777 19.6182C21.5339 19.6184 21.0121 20.1404 21.0117 20.7842C21.0117 21.4282 21.5337 21.951 22.1777 21.9512C22.8217 21.951 23.3447 21.4282 23.3447 20.7842C23.3444 20.1404 22.8215 19.6184 22.1777 19.6182ZM18.7754 19.2441H19.4121C19.9533 18.2747 20.9887 17.6183 22.1777 17.6182C23.3668 17.6183 24.402 18.2747 24.9434 19.2441H25.0322L25.8213 16.6758L23.6367 13.6611H20.2715L18.7754 19.2441Z" fill="#444444"/>
<path d="M10.0645 15.4521C10.6165 15.4523 11.0643 15.9001 11.0645 16.4521C11.0642 17.0041 10.6164 17.452 10.0645 17.4521H5.04004C4.48792 17.4521 4.0403 17.0042 4.04004 16.4521C4.04022 15.9 4.48787 15.4521 5.04004 15.4521H10.0645Z" fill="#444444"/>
<path d="M12.7725 11.6611C13.3245 11.6613 13.7724 12.109 13.7725 12.6611C13.7722 13.2131 13.3244 13.6609 12.7725 13.6611H6.81543C6.26331 13.6611 5.81569 13.2132 5.81543 12.6611C5.81552 12.1089 6.2632 11.6611 6.81543 11.6611H12.7725Z" fill="#444444"/>
</svg>
