<svg width="32" height="32" viewBox="0 0 32 32" fill="none" xmlns="http://www.w3.org/2000/svg">
<path fill-rule="evenodd" clip-rule="evenodd" d="M16.6756 5.44H15.3244L14.5504 8.5336L13.774 8.7736C13.3216 8.91301 12.8833 9.09461 12.4648 9.316L11.746 9.6964L9.01 8.0548L8.0548 9.0112L9.6964 11.7472L9.316 12.4648C9.09419 12.8832 8.9122 13.3215 8.7724 13.774L8.5336 14.5504L5.44 15.3244V16.6756L8.5336 17.4496L8.7736 18.226C8.912 18.6804 9.0928 19.1168 9.316 19.5352L9.6964 20.254L8.0548 22.99L9.0112 23.9452L11.7472 22.3036L12.4648 22.684C12.8832 22.9064 13.3196 23.0876 13.774 23.2276L14.5504 23.4664L15.3244 26.56H16.6756L17.4496 23.4664L18.226 23.2264C18.6784 23.087 19.1167 22.9054 19.5352 22.684L20.254 22.3036L22.99 23.9452L23.9452 22.9888L22.3036 20.2528L22.684 19.5352C22.9064 19.1168 23.0876 18.6804 23.2276 18.226L23.4664 17.4496L26.56 16.6756V15.3244L23.4664 14.5504L23.2264 13.774C23.087 13.3216 22.9054 12.8833 22.684 12.4648L22.3036 11.746L23.9452 9.01L22.9888 8.0548L20.2528 9.6964L19.5352 9.316C19.1168 9.09419 18.6785 8.9122 18.226 8.7724L17.4496 8.5336L16.6756 5.44ZM20.2096 8.044L22.4092 6.724C22.6386 6.58643 22.9073 6.52943 23.1728 6.56204C23.4382 6.59465 23.6852 6.71501 23.8744 6.904L25.096 8.1256C25.285 8.31484 25.4053 8.56179 25.438 8.82725C25.4706 9.0927 25.4136 9.36144 25.276 9.5908L23.956 11.7904C24.22 12.2864 24.436 12.8064 24.604 13.3504L27.0916 13.9732C27.3511 14.0382 27.5814 14.1881 27.746 14.399C27.9106 14.6098 28 14.8697 28 15.1372V16.8628C28 17.1303 27.9106 17.3902 27.746 17.601C27.5814 17.8119 27.3511 17.9618 27.0916 18.0268L24.604 18.6496C24.436 19.1936 24.22 19.7136 23.956 20.2096L25.276 22.4092C25.4136 22.6386 25.4706 22.9073 25.438 23.1728C25.4053 23.4382 25.285 23.6852 25.096 23.8744L23.8744 25.096C23.6852 25.285 23.4382 25.4053 23.1728 25.438C22.9073 25.4706 22.6386 25.4136 22.4092 25.276L20.2096 23.956C19.7136 24.22 19.1936 24.436 18.6496 24.604L18.0268 27.0916C17.9618 27.3511 17.8119 27.5814 17.601 27.746C17.3902 27.9106 17.1303 28 16.8628 28H15.1372C14.8697 28 14.6098 27.9106 14.399 27.746C14.1881 27.5814 14.0382 27.3511 13.9732 27.0916L13.3504 24.604C12.8112 24.4374 12.2889 24.2204 11.7904 23.956L9.5908 25.276C9.36144 25.4136 9.0927 25.4706 8.82725 25.438C8.56179 25.4053 8.31484 25.285 8.1256 25.096L6.904 23.8744C6.71501 23.6852 6.59465 23.4382 6.56204 23.1728C6.52943 22.9073 6.58643 22.6386 6.724 22.4092L8.044 20.2096C7.77957 19.7111 7.56261 19.1888 7.396 18.6496L4.9084 18.0268C4.6491 17.9618 4.41892 17.8122 4.25436 17.6015C4.08979 17.3909 4.00027 17.1313 4 16.864V15.1384C4.00001 14.8709 4.0894 14.611 4.25399 14.4002C4.41857 14.1893 4.6489 14.0394 4.9084 13.9744L7.396 13.3516C7.564 12.8076 7.78 12.2876 8.044 11.7916L6.724 9.592C6.58643 9.36264 6.52943 9.0939 6.56204 8.82845C6.59465 8.56299 6.71501 8.31604 6.904 8.1268L8.1256 6.904C8.31484 6.71501 8.56179 6.59465 8.82725 6.56204C9.0927 6.52943 9.36144 6.58643 9.5908 6.724L11.7904 8.044C12.2864 7.78 12.8064 7.564 13.3504 7.396L13.9732 4.9084C14.0382 4.6491 14.1878 4.41892 14.3985 4.25436C14.6091 4.08979 14.8687 4.00027 15.136 4H16.8616C17.1291 4.00001 17.389 4.0894 17.5999 4.25399C17.8107 4.41857 17.9606 4.6489 18.0256 4.9084L18.6484 7.396C19.1924 7.564 19.7124 7.78 20.2084 8.044H20.2096ZM16 19.36C16.8911 19.36 17.7458 19.006 18.3759 18.3759C19.006 17.7458 19.36 16.8911 19.36 16C19.36 15.1089 19.006 14.2542 18.3759 13.6241C17.7458 12.994 16.8911 12.64 16 12.64C15.1089 12.64 14.2542 12.994 13.6241 13.6241C12.994 14.2542 12.64 15.1089 12.64 16C12.64 16.8911 12.994 17.7458 13.6241 18.3759C14.2542 19.006 15.1089 19.36 16 19.36ZM16 20.8C14.727 20.8 13.5061 20.2943 12.6059 19.3941C11.7057 18.4939 11.2 17.273 11.2 16C11.2 14.727 11.7057 13.5061 12.6059 12.6059C13.5061 11.7057 14.727 11.2 16 11.2C17.273 11.2 18.4939 11.7057 19.3941 12.6059C20.2943 13.5061 20.8 14.727 20.8 16C20.8 17.273 20.2943 18.4939 19.3941 19.3941C18.4939 20.2943 17.273 20.8 16 20.8Z" fill="#444444" stroke="#444444" stroke-width="0.3"/>
</svg>
