<svg width="32" height="32" viewBox="0 0 32 32" fill="none" xmlns="http://www.w3.org/2000/svg">
<path d="M14.9154 4.68858C17.2224 4.48356 19.5443 5.00895 21.5411 6.18638C23.5381 7.36413 25.1086 9.13484 26.018 11.2419C26.9275 13.3494 27.1273 15.6819 26.5847 17.896C26.042 20.11 24.7858 22.0845 23.005 23.5301C21.2247 24.9752 19.0148 25.8151 16.7007 25.9316C14.3862 26.0477 12.0849 25.435 10.1355 24.182C8.6964 23.257 7.50367 22.0173 6.64546 20.5711C6.62687 20.5399 6.59101 20.5218 6.55483 20.5254C6.51893 20.5292 6.48816 20.5536 6.47609 20.5876L5.77663 22.5707L5.7748 22.578L5.74642 22.665C5.58581 23.0874 5.12852 23.3281 4.68257 23.2088C4.20687 23.0813 3.92447 22.5923 4.05177 22.1166L5.45345 17.5096L5.45528 17.5078C5.58281 17.0323 6.07104 16.75 6.54659 16.877L11.224 18.2494L11.2258 18.2503C11.7016 18.3778 11.9849 18.8667 11.8576 19.3425C11.7301 19.8178 11.2416 20.0999 10.7663 19.9733L8.06819 19.131C8.03201 19.1197 7.99178 19.1312 7.96749 19.1603C7.94343 19.1894 7.93906 19.2303 7.9565 19.2638C8.68127 20.6399 9.7624 21.8204 11.1004 22.6805C12.7364 23.732 14.6678 24.2483 16.6101 24.1509C18.5521 24.0533 20.3997 23.3488 21.8817 22.1459C23.3632 20.9431 24.4034 19.3039 24.8526 17.4712C25.3017 15.6384 25.1364 13.7032 24.3792 11.9487C23.6218 10.1939 22.3109 8.71112 20.6347 7.72264C18.9583 6.73421 17.0084 6.29447 15.0729 6.46654C13.1375 6.63869 11.3215 7.41367 9.89009 8.67296C9.52034 8.99786 8.95662 8.96115 8.63124 8.59147C8.30608 8.22162 8.34222 7.65796 8.71181 7.33262C10.4326 5.81886 12.608 4.89377 14.9154 4.68858Z" fill="#767676"/>
<path d="M16.0377 9.87451C16.5554 9.87458 16.9752 10.2943 16.9752 10.812V14.7552L19.2119 16.9753C19.5768 17.3375 19.5822 17.9261 19.2238 18.2946L19.1743 18.3459C18.9998 18.5251 18.7607 18.6266 18.5106 18.6288C18.2604 18.6309 18.0198 18.533 17.8422 18.3569L15.3099 15.8419C15.1329 15.666 15.0335 15.4268 15.0334 15.1772V10.812C15.0334 10.2942 15.4531 9.87451 15.9709 9.87451H16.0377Z" fill="#767676"/>
</svg>
