<svg width="32" height="32" viewBox="0 0 32 32" fill="none" xmlns="http://www.w3.org/2000/svg">
<path d="M11 21C10.7348 21 10.4805 21.1054 10.293 21.293C10.1054 21.4805 10 21.7348 10 22C10 22.2652 10.1054 22.5195 10.293 22.707C10.4805 22.8946 10.7348 23 11 23C11.2652 23 11.5195 22.8946 11.707 22.707C11.8946 22.5195 12 22.2652 12 22C12 21.7348 11.8946 21.4805 11.707 21.293C11.5195 21.1054 11.2652 21 11 21ZM22 21C21.7348 21 21.4805 21.1054 21.293 21.293C21.1054 21.4805 21 21.7348 21 22C21 22.2652 21.1054 22.5195 21.293 22.707C21.4805 22.8946 21.7348 23 22 23C22.2652 23 22.5195 22.8946 22.707 22.707C22.8946 22.5195 23 22.2652 23 22C23 21.7348 22.8946 21.4805 22.707 21.293C22.5195 21.1054 22.2652 21 22 21ZM18.1113 21H19C19.0579 21 19.1147 21.0052 19.1699 21.0146C19.3173 20.5915 19.556 20.2018 19.8789 19.8789C20.4415 19.3163 21.2043 19 22 19C22.7957 19 23.5585 19.3163 24.1211 19.8789C24.4402 20.198 24.6764 20.5826 24.8242 21H25V16H18.1113V21ZM18.1113 14H24.2773L22.0869 10.167H18.1113V14ZM27 22C27 22.5523 26.5523 23 26 23H24.8242C24.6764 23.4174 24.4402 23.802 24.1211 24.1211C23.5585 24.6837 22.7957 25 22 25C21.2043 25 20.4415 24.6837 19.8789 24.1211C19.5558 23.798 19.3172 23.4079 19.1699 22.9844C19.1146 22.9939 19.058 23 19 23H13.8242C13.6764 23.4174 13.4402 23.802 13.1211 24.1211C12.5585 24.6837 11.7957 25 11 25C10.2043 25 9.44151 24.6837 8.87891 24.1211C8.55984 23.802 8.32358 23.4174 8.17578 23H6C5.44772 23 5 22.5523 5 22V9.16699C5 8.60768 5.21143 8.062 5.60156 7.65234C5.99329 7.24103 6.53525 7 7.11133 7H17.1113C17.6635 7.00012 18.1113 7.44779 18.1113 8V8.16699H22.667L22.7998 8.17578C23.106 8.21688 23.3794 8.39831 23.5352 8.6709L26.8682 14.5039C26.9545 14.655 27 14.826 27 15V22ZM7 21H8.17578C8.32358 20.5826 8.55984 20.198 8.87891 19.8789C9.44151 19.3163 10.2043 19 11 19C11.7957 19 12.5585 19.3163 13.1211 19.8789C13.4402 20.198 13.6764 20.5826 13.8242 21H16.1113V9H7.11133C7.09807 9 7.07476 9.00513 7.0498 9.03125C7.0232 9.05918 7 9.10747 7 9.16699V21Z" fill="#444444"/>
</svg>
