<svg width="32" height="32" viewBox="0 0 32 32" fill="none" xmlns="http://www.w3.org/2000/svg">
<path d="M24.4375 22.5625C24.9553 22.5625 25.375 22.9822 25.375 23.5C25.375 24.0178 24.9553 24.4375 24.4375 24.4375H7.5625C7.04473 24.4375 6.625 24.0178 6.625 23.5C6.625 22.9822 7.04473 22.5625 7.5625 22.5625H24.4375ZM24.4375 15.0625C24.9553 15.0625 25.375 15.4822 25.375 16C25.375 16.5178 24.9553 16.9375 24.4375 16.9375H7.5625C7.04473 16.9375 6.625 16.5178 6.625 16C6.625 15.4822 7.04473 15.0625 7.5625 15.0625H24.4375ZM24.4375 7.5625C24.9553 7.5625 25.375 7.98223 25.375 8.5C25.375 9.01777 24.9553 9.4375 24.4375 9.4375H7.5625C7.04473 9.4375 6.625 9.01777 6.625 8.5C6.625 7.98223 7.04473 7.5625 7.5625 7.5625H24.4375Z" fill="#767676"/>
</svg>
