<svg width="11" height="11" viewBox="0 0 11 11" fill="none" xmlns="http://www.w3.org/2000/svg">
<path d="M4.875 8.125H5.95833V4.875H4.875V8.125ZM5.41667 3.79167C5.57014 3.79167 5.69888 3.73967 5.80288 3.63567C5.90688 3.53167 5.9587 3.40311 5.95833 3.25C5.95797 3.09689 5.90597 2.96833 5.80233 2.86433C5.6987 2.76033 5.57014 2.70833 5.41667 2.70833C5.2632 2.70833 5.13464 2.76033 5.031 2.86433C4.92736 2.96833 4.87536 3.09689 4.875 3.25C4.87464 3.40311 4.92664 3.53185 5.031 3.63621C5.13536 3.74057 5.26392 3.79239 5.41667 3.79167ZM5.41667 10.8333C4.66736 10.8333 3.9632 10.6911 3.30417 10.4065C2.64514 10.1219 2.07188 9.7361 1.58438 9.24896C1.09688 8.76182 0.711029 8.18856 0.426834 7.52917C0.14264 6.86978 0.000361797 6.16561 6.85654e-07 5.41667C-0.000360425 4.66772 0.141917 3.96356 0.426834 3.30417C0.711751 2.64478 1.0976 2.07151 1.58438 1.58438C2.07115 1.09724 2.64442 0.711389 3.30417 0.426833C3.96392 0.142278 4.66808 0 5.41667 0C6.16525 0 6.86942 0.142278 7.52917 0.426833C8.18892 0.711389 8.76218 1.09724 9.24896 1.58438C9.73574 2.07151 10.1218 2.64478 10.407 3.30417C10.6923 3.96356 10.8344 4.66772 10.8333 5.41667C10.8323 6.16561 10.69 6.86978 10.4065 7.52917C10.123 8.18856 9.73718 8.76182 9.24896 9.24896C8.76074 9.7361 8.18747 10.1221 7.52917 10.407C6.87086 10.692 6.1667 10.8341 5.41667 10.8333Z" fill="#989898"/>
</svg>
