<svg width="35" height="26" viewBox="0 0 35 26" fill="none" xmlns="http://www.w3.org/2000/svg">
<path d="M12.7463 7.74688C12.6682 7.66733 12.6063 7.57268 12.564 7.4684C12.5218 7.36413 12.5 7.25228 12.5 7.13931C12.5 7.02635 12.5218 6.9145 12.564 6.81022C12.6063 6.70594 12.6682 6.6113 12.7463 6.53175L16.9089 2.25312C16.9863 2.17292 17.0784 2.10926 17.1798 2.06581C17.2813 2.02237 17.3901 2 17.5 2C17.6099 2 17.7187 2.02237 17.8202 2.06581C17.9216 2.10926 18.0137 2.17292 18.0911 2.25312L22.2537 6.53175C22.3318 6.6113 22.3937 6.70594 22.436 6.81022C22.4782 6.9145 22.5 7.02635 22.5 7.13931C22.5 7.25228 22.4782 7.36413 22.436 7.46841C22.3937 7.57268 22.3318 7.66733 22.2537 7.74688C22.1763 7.82708 22.0843 7.89074 21.9828 7.93419C21.8814 7.97763 21.7725 8 21.6626 8C21.5527 8 21.4439 7.97763 21.3425 7.93419C21.241 7.89074 21.1489 7.82708 21.0716 7.74688L17.5 4.06726L13.9285 7.74688C13.8511 7.82708 13.759 7.89074 13.6575 7.93419C13.5561 7.97763 13.4473 8 13.3374 8C13.2275 8 13.1186 7.97763 13.0172 7.93419C12.9157 7.89074 12.8237 7.82708 12.7463 7.74688Z" fill="#444444"/>
<path d="M4.03362 15.8011V14.0994H12.1407V15.8011H9.10959V24H7.07436V15.8011H4.03362ZM22.0432 19.0497C22.0432 22.279 20.0418 24.1354 17.4168 24.1354C14.7821 24.1354 12.7953 22.2693 12.7953 19.0497C12.7953 15.8204 14.7821 13.9641 17.4168 13.9641C20.0418 13.9641 22.0432 15.8204 22.0432 19.0497ZM14.8788 19.0497C14.8788 21.1623 15.8892 22.3128 17.4168 22.3128C18.9493 22.3128 19.9596 21.1623 19.9596 19.0497C19.9596 16.9372 18.9493 15.7866 17.4168 15.7866C15.8892 15.7866 14.8788 16.9372 14.8788 19.0497ZM23.5248 24V14.0994H27.4019C29.6546 14.0994 30.9454 15.4869 30.9454 17.4448C30.9454 19.4123 29.6353 20.7756 27.3584 20.7756H25.5794V24H23.5248ZM25.5794 19.1174H27.0248C28.243 19.1174 28.8328 18.4358 28.8328 17.4448C28.8328 16.4489 28.243 15.7866 27.02 15.7866H25.5794V19.1174Z" fill="#444444"/>
</svg>
