<svg width="32" height="32" viewBox="0 0 32 32" fill="none" xmlns="http://www.w3.org/2000/svg">
<path d="M16 4.5C16.6202 4.5 17.2229 4.69234 17.7266 5.04688L17.9365 5.20898L17.9414 5.21289L24.9365 11.209L25.0586 11.3174C25.3355 11.5786 25.561 11.891 25.7217 12.2373C25.9051 12.6328 26 13.064 26 13.5V22.5C25.9999 23.2955 25.6836 24.0596 25.1211 24.6221C24.5585 25.1844 23.7954 25.5 23 25.5H20V18C20 17.4696 19.7891 16.961 19.4141 16.5859C19.039 16.2109 18.5304 16 18 16H14C13.4696 16 12.961 16.2109 12.5859 16.5859C12.2109 16.961 12 17.4696 12 18V25.5H9C8.20458 25.5 7.44147 25.1844 6.87891 24.6221C6.31641 24.0596 6.00013 23.2955 6 22.5V13.5C6 13.064 6.09491 12.6328 6.27832 12.2373C6.46193 11.8416 6.73035 11.4906 7.06348 11.209L14.0586 5.21289L14.0635 5.20898C14.605 4.75135 15.291 4.5 16 4.5Z" fill="#E51E25" stroke="#E51E25" stroke-linecap="round" stroke-linejoin="round"/>
</svg>
