<svg width="32" height="32" viewBox="0 0 32 32" fill="none" xmlns="http://www.w3.org/2000/svg">
<path d="M22.6112 14.9139C22.611 10.6828 19.1735 7.25 14.9302 7.25C10.687 7.2502 7.25016 10.6829 7.25 14.9139C7.25 19.1451 10.6869 22.5785 14.9302 22.5787C17.0435 22.5787 18.9566 21.7277 20.3459 20.3494C21.7462 18.96 22.6112 17.0383 22.6112 14.9139ZM24.3612 14.9139C24.3612 17.2075 23.5377 19.3098 22.1729 20.9424L26.2428 25.0055C26.5847 25.3468 26.5856 25.9007 26.2445 26.2428C25.9032 26.5847 25.3493 26.5856 25.0072 26.2445L20.9304 22.1763C19.3003 23.5197 17.2092 24.3287 14.9302 24.3287C9.72357 24.3285 5.5 20.1147 5.5 14.9139C5.50016 9.71329 9.72367 5.5002 14.9302 5.5C20.1369 5.5 24.361 9.71316 24.3612 14.9139Z" fill="#1B1B1B" stroke="#1B1B1B" stroke-width="0.3"/>
</svg>
