<svg width="32" height="32" viewBox="0 0 32 32" fill="none" xmlns="http://www.w3.org/2000/svg">
<path d="M20.2598 11.6201C20.2598 9.27032 18.2971 7.32734 15.8281 7.32715C13.359 7.32715 11.3955 9.27021 11.3955 11.6201C11.3958 13.8963 13.2379 15.79 15.5977 15.9062L15.8281 15.9121L16.0576 15.9062C18.4175 15.7901 20.2595 13.8964 20.2598 11.6201ZM21.9141 11.6201C21.9139 13.6647 20.8621 15.4541 19.2695 16.5225C20.5692 16.9968 21.765 17.737 22.7676 18.7129C24.6129 20.5091 25.6543 22.9499 25.6543 25.5C25.6543 25.9567 25.2839 26.3271 24.8271 26.3271C24.3704 26.3271 24 25.9567 24 25.5C24 23.4031 23.1446 21.3872 21.6143 19.8975C20.0832 18.4072 18.0026 17.5665 15.8281 17.5664C13.6534 17.5664 11.5711 18.4072 10.04 19.8975C8.50966 21.3872 7.6543 23.4031 7.6543 25.5C7.65429 25.9567 7.28388 26.3271 6.82715 26.3271C6.37042 26.3271 6 25.9567 6 25.5C6 22.9499 7.04144 20.5091 8.88672 18.7129C9.88896 17.7373 11.0844 16.9968 12.3838 16.5225C10.7921 15.454 9.74137 13.6641 9.74121 11.6201C9.74121 8.31502 12.4878 5.67285 15.8281 5.67285C19.1683 5.67304 21.9141 8.31514 21.9141 11.6201Z" fill="#1B1B1B" stroke="#1B1B1B" stroke-width="0.3" stroke-linecap="round" stroke-linejoin="round"/>
</svg>
