<svg width="20" height="20" viewBox="0 0 20 20" fill="none" xmlns="http://www.w3.org/2000/svg">
<path d="M2 4.6625C2 3.7448 2.81928 3 3.82875 3H12.6684C13.6779 3 14.4972 3.7448 14.4972 4.6625V5.85H15.4178C15.7091 5.85001 15.9946 5.92379 16.2423 6.06306C16.49 6.20234 16.6901 6.4016 16.8202 6.6385L18.511 9.71175C18.6199 9.90933 18.6768 10.1272 18.6772 10.3482V13.925C18.6772 14.3029 18.512 14.6654 18.218 14.9326C17.9241 15.1999 17.5254 15.35 17.1097 15.35H15.4899C15.37 15.8869 15.0496 16.3696 14.583 16.7163C14.1164 17.063 13.5323 17.2524 12.9297 17.2524C12.327 17.2524 11.7429 17.063 11.2763 16.7163C10.8097 16.3696 10.4893 15.8869 10.3694 15.35H9.2199C9.09998 15.8869 8.77958 16.3696 8.31298 16.7163C7.84638 17.063 7.26228 17.2524 6.65965 17.2524C6.05703 17.2524 5.47293 17.063 5.00633 16.7163C4.53973 16.3696 4.21933 15.8869 4.09941 15.35H3.82875C3.34374 15.35 2.87859 15.1748 2.53563 14.8631C2.19267 14.5513 2 14.1284 2 13.6875V4.6625ZM14.4972 6.8V9.65H17.3082L15.886 7.0622C15.8425 6.9834 15.7758 6.91714 15.6933 6.87084C15.6108 6.82453 15.5158 6.8 15.4188 6.8H14.4972ZM6.65965 13.45C6.24393 13.45 5.84523 13.6001 5.55127 13.8674C5.2573 14.1346 5.09215 14.4971 5.09215 14.875C5.09215 15.2529 5.2573 15.6154 5.55127 15.8826C5.84523 16.1499 6.24393 16.3 6.65965 16.3C7.07538 16.3 7.47408 16.1499 7.76804 15.8826C8.06201 15.6154 8.22716 15.2529 8.22716 14.875C8.22716 14.4971 8.06201 14.1346 7.76804 13.8674C7.47408 13.6001 7.07538 13.45 6.65965 13.45ZM11.3622 14.875C11.3622 15.2529 11.5273 15.6154 11.8213 15.8826C12.1152 16.1499 12.5139 16.3 12.9297 16.3C13.3454 16.3 13.7441 16.1499 14.038 15.8826C14.332 15.6154 14.4972 15.2529 14.4972 14.875C14.4972 14.4971 14.332 14.1346 14.038 13.8674C13.7441 13.6001 13.3454 13.45 12.9297 13.45C12.5139 13.45 12.1152 13.6001 11.8213 13.8674C11.5273 14.1346 11.3622 14.4971 11.3622 14.875Z" fill="#E51E25"/>
</svg>
