<svg width="32" height="32" viewBox="0 0 32 32" fill="none" xmlns="http://www.w3.org/2000/svg">
<path d="M20.9609 27.7823C21.6637 27.7823 22.0657 27.28 22.0657 26.5064V23.8951H22.538C25.5311 23.8951 27.1383 22.2477 27.1383 19.2944V11.6003C27.1383 8.64743 25.5311 7 22.538 7H9.60029C6.61743 7 5 8.65729 5 11.6003V19.2944C5 22.2379 6.617 23.8951 9.60029 23.8951H16.049L19.5247 26.9787C20.1273 27.5213 20.4689 27.7823 20.9609 27.7823ZM20.5494 25.9441L17.345 22.75C16.9631 22.3583 16.6721 22.2777 16.1094 22.2777H9.61057C7.58129 22.2777 6.617 21.2431 6.617 19.2846V11.6003C6.617 9.64171 7.58129 8.61743 9.61057 8.61743H22.538C24.5771 8.61743 25.5209 9.64171 25.5209 11.6003V19.2846C25.5209 21.2431 24.5771 22.2777 22.538 22.2777H21.3123C20.7599 22.2777 20.5494 22.4886 20.5494 23.0311V25.9441Z" fill="#444444"/>
</svg>
