<svg width="32" height="32" viewBox="0 0 32 32" fill="none" xmlns="http://www.w3.org/2000/svg">
<path d="M20 10C20 7.79086 18.2091 6 16 6C13.7909 6 12 7.79086 12 10C12 12.2091 13.7909 14 16 14C18.2091 14 20 12.2091 20 10ZM22 10C22 12.3319 20.6686 14.3507 18.7256 15.3438C20.6215 15.8287 22.3711 16.8144 23.7783 18.2217C25.8412 20.2846 27 23.0826 27 26C27 26.5523 26.5523 27 26 27C25.4477 27 25 26.5523 25 26C25 23.6131 24.0521 21.3236 22.3643 19.6357C20.6764 17.9479 18.3869 17 16 17C13.6131 17 11.3236 17.9479 9.63574 19.6357C7.94791 21.3236 7 23.6131 7 26C7 26.5523 6.55228 27 6 27C5.44772 27 5 26.5523 5 26C5 23.0826 6.15878 20.2846 8.22168 18.2217C9.62869 16.8147 11.3779 15.8288 13.2734 15.3438C11.3308 14.3506 10 12.3315 10 10C10 6.68629 12.6863 4 16 4C19.3137 4 22 6.68629 22 10Z" fill="#444444"/>
</svg>
