<svg width="32" height="32" viewBox="0 0 32 32" fill="none" xmlns="http://www.w3.org/2000/svg">
<path d="M5 22.25V21C5 20.4477 5.44772 20 6 20C6.55228 20 7 20.4477 7 21V22.25C7 22.9794 7.28994 23.6786 7.80566 24.1943C8.32139 24.7101 9.02065 25 9.75 25H22.25L22.5215 24.9863C23.1511 24.9239 23.743 24.6457 24.1943 24.1943C24.6457 23.743 24.9239 23.1511 24.9863 22.5215L25 22.25V21C25 20.4477 25.4477 20 26 20C26.5523 20 27 20.4477 27 21V22.25C27 23.5098 26.4992 24.7176 25.6084 25.6084C24.7176 26.4992 23.5098 27 22.25 27H9.75C8.49022 27 7.2824 26.4992 6.3916 25.6084C5.5008 24.7176 5 23.5098 5 22.25ZM15 21V8.41407L11.707 11.707C11.3165 12.0976 10.6835 12.0976 10.293 11.707C9.90244 11.3165 9.90244 10.6835 10.293 10.293L15.293 5.29298L15.3691 5.22462C15.7619 4.90427 16.3409 4.92686 16.707 5.29298L21.707 10.293C22.0976 10.6835 22.0976 11.3165 21.707 11.707C21.3165 12.0976 20.6835 12.0976 20.293 11.707L17 8.41407V21C17 21.5523 16.5523 22 16 22C15.4477 22 15 21.5523 15 21Z" fill="#444444"/>
</svg>
