<svg width="32" height="32" viewBox="0 0 32 32" fill="none" xmlns="http://www.w3.org/2000/svg">
<path d="M6 5C6 4.44772 6.44772 4 7 4C7.55228 4 8 4.44772 8 5V8.41895C9.23126 7.21681 10.7382 6.3075 12.4053 5.77441C14.6634 5.05234 17.0992 5.05559 19.3555 5.7832C21.6118 6.51095 23.5739 7.92679 24.9512 9.82715C26.3288 11.728 27.0471 14.0126 26.9971 16.3457C26.947 18.6787 26.1322 20.9319 24.6748 22.7744C23.2177 24.6164 21.1964 25.95 18.9111 26.585C16.626 27.2199 14.1924 27.1242 11.9668 26.3105C9.741 25.4968 7.83619 24.0069 6.53613 22.0547C6.23004 21.595 6.35482 20.9741 6.81445 20.668C7.27408 20.3619 7.89502 20.4858 8.20117 20.9453C9.26171 22.538 10.8208 23.7617 12.6533 24.4316C14.486 25.1017 16.4919 25.1813 18.375 24.6582C20.258 24.135 21.9152 23.038 23.1055 21.5332C24.2954 20.0289 24.9575 18.1957 24.998 16.3027C25.0386 14.4097 24.456 12.551 23.332 11C22.2077 9.44875 20.5997 8.28585 18.7412 7.68652C16.8825 7.08711 14.875 7.08486 13.0146 7.67969C11.4931 8.16623 10.1385 9.03068 9.07812 10.1768H13.333C13.8853 10.1768 14.333 10.6245 14.333 11.1768C14.3329 11.7289 13.8852 12.1768 13.333 12.1768H7C6.44779 12.1768 6.00012 11.7289 6 11.1768V5Z" fill="#444444"/>
</svg>
