<svg width="32" height="32" viewBox="0 0 32 32" fill="none" xmlns="http://www.w3.org/2000/svg">
<path d="M17.6324 6.16197L17.7316 6.17626L17.7356 6.17705L18.1342 6.26121L18.1389 6.2628C22.3255 7.24837 26 10.9553 26 16.3065C25.9999 18.7029 24.9286 20.5796 23.6999 21.9913C23.0117 22.7819 22.2462 23.4529 21.5641 24.004H23.2846C23.5469 24.004 23.7977 24.1102 23.9817 24.2977C24.1656 24.4853 24.2683 24.7388 24.2684 25.002C24.2684 25.2652 24.1656 25.5187 23.9817 25.7062C23.7977 25.8938 23.547 26 23.2846 26H18.848C18.5856 26 18.3349 25.8939 18.1509 25.7062C17.967 25.5187 17.8642 25.2652 17.8642 25.002V20.4772C17.8642 20.214 17.967 19.9605 18.1509 19.7729C18.3349 19.5852 18.5856 19.4792 18.848 19.4792C19.1103 19.4792 19.3611 19.5853 19.5451 19.7729C19.7289 19.9604 19.8309 20.2141 19.8309 20.4772V22.7622C20.5881 22.1731 21.4341 21.4809 22.1778 20.6272C23.2113 19.442 23.9697 18.0308 23.9698 16.3081C23.9698 11.8931 20.8696 8.8757 17.3553 8.20167L17.3434 8.19929L17.3315 8.19532L17.1806 8.15006L17.1679 8.14688L17.1568 8.14133C16.9402 8.05093 16.7618 7.88775 16.6511 7.68003C16.5404 7.47227 16.5033 7.23207 16.5462 7.0004C16.5702 6.86823 16.6196 6.74201 16.6915 6.62882C16.7638 6.51525 16.8578 6.41682 16.9678 6.33982C17.0779 6.26284 17.2019 6.20835 17.3331 6.18023C17.4315 6.15912 17.5325 6.15294 17.6324 6.16197Z" fill="#444444"/>
<path d="M13.1536 6C13.416 6 13.6667 6.1061 13.8507 6.29377C14.0346 6.4813 14.1374 6.73483 14.1374 6.99802V11.5228C14.1374 11.786 14.0346 12.0395 13.8507 12.2271C13.6667 12.4148 13.416 12.5208 13.1536 12.5208C12.8913 12.5208 12.6406 12.4148 12.4565 12.2271C12.2727 12.0396 12.1699 11.786 12.1699 11.5228V9.237C11.4127 9.82609 10.5675 10.5191 9.82374 11.3728C8.79025 12.558 8.03184 13.9692 8.03176 15.6935C8.03176 20.1551 11.1991 23.1919 14.759 23.8206L14.767 23.8222L14.7733 23.8237C15.0265 23.8843 15.2464 24.0407 15.3886 24.2596C15.5308 24.4785 15.5854 24.7443 15.5419 25.002C15.4983 25.2596 15.3597 25.4921 15.1528 25.6507C14.9459 25.8092 14.6866 25.8816 14.4279 25.8523L14.42 25.8515L14.4129 25.8499C10.0018 25.0713 6 21.2783 6 15.6935C6.00008 13.2985 7.07144 11.4218 8.30012 10.0087L8.30091 10.0079C8.98947 9.21813 9.75528 8.54779 10.4375 7.99603H8.71695C8.45469 7.99603 8.20386 7.88979 8.01985 7.70226C7.83599 7.51475 7.73325 7.26117 7.73323 6.99802C7.73323 6.73483 7.83597 6.4813 8.01985 6.29377C8.20387 6.10619 8.45466 6 8.71695 6H13.1536Z" fill="#444444"/>
</svg>
