<svg width="32" height="32" viewBox="0 0 32 32" fill="none" xmlns="http://www.w3.org/2000/svg">
<path d="M24.0731 11.6003C24.2066 11.5986 24.3391 11.6251 24.4608 11.6784C24.5826 11.7317 24.691 11.8105 24.7782 11.9089C24.8653 12.0071 24.9293 12.1229 24.9657 12.2477C25.002 12.3727 25.0095 12.5043 24.9881 12.6325L22.535 25.8707L22.493 26.0192C22.438 26.1637 22.3455 26.2931 22.2225 26.3932L22.0917 26.4811C22.0003 26.5323 21.9006 26.5684 21.7968 26.5865L21.6386 26.6002H10.3613C10.2013 26.5996 10.0453 26.5579 9.90822 26.4811L9.77736 26.3932C9.61364 26.26 9.50334 26.0749 9.46486 25.8707L7.01176 12.6325C6.99066 12.5059 6.99802 12.3763 7.03325 12.2526C7.06851 12.1289 7.13066 12.0138 7.21586 11.9157C7.30107 11.8176 7.40782 11.7387 7.52738 11.6843C7.64683 11.6299 7.77733 11.6012 7.90921 11.6003H24.0731ZM11.2637 24.6002H20.7362L22.7743 13.6003H9.22561L11.2637 24.6002Z" fill="#444444"/>
<path d="M24.8 9.2002C24.8 9.41237 24.7157 9.61585 24.5657 9.76588C24.4157 9.91591 24.2122 10.0002 24 10.0002H8.00001C7.78784 10.0002 7.58436 9.91591 7.43433 9.76588C7.2843 9.61585 7.20001 9.41237 7.20001 9.2002C7.20001 8.98802 7.2843 8.78454 7.43433 8.63451C7.58436 8.48448 7.78784 8.4002 8.00001 8.4002H12V6.0002C12 5.78802 12.0843 5.58454 12.2343 5.43451C12.3844 5.28448 12.5878 5.2002 12.8 5.2002H19.2C19.4122 5.2002 19.6157 5.28448 19.7657 5.43451C19.9157 5.58454 20 5.78802 20 6.0002V8.4002H24C24.2122 8.4002 24.4157 8.48448 24.5657 8.63451C24.7157 8.78454 24.8 8.98802 24.8 9.2002ZM18.4 8.4002V6.8002H13.6V8.4002H18.4Z" fill="#444444"/>
<path d="M6.99982 9.2002C6.99982 8.93502 7.10531 8.68069 7.29279 8.49316C7.48028 8.30567 7.73467 8.20025 7.99982 8.2002L8.00001 8.4002L7.92072 8.4043C7.73767 8.42253 7.56554 8.50329 7.43433 8.63451L7.38165 8.69336C7.26495 8.83574 7.20001 9.01449 7.20001 9.2002L7.20392 9.2793C7.2221 9.46238 7.30312 9.63462 7.43433 9.76588C7.58436 9.91591 7.78784 10.0002 8.00001 10.0002H24C24.2122 10.0002 24.4157 9.91591 24.5657 9.76588C24.697 9.63462 24.7775 9.46241 24.7957 9.2793L24.8 9.2002C24.8 9.01461 24.7355 8.83569 24.619 8.69336L24.5657 8.63451C24.4344 8.50326 24.2621 8.42245 24.0789 8.4043L24 8.4002L23.9998 8.2002C24.265 8.2002 24.5193 8.30569 24.7068 8.49316C24.8944 8.6807 24.9998 8.93498 24.9998 9.2002C24.9998 9.46541 24.8944 9.71969 24.7068 9.90723C24.5193 10.0947 24.265 10.2002 23.9998 10.2002H7.99982C7.73467 10.2001 7.48028 10.0947 7.29279 9.90723C7.10531 9.7197 6.99982 9.46537 6.99982 9.2002ZM20 6.0002C20 5.81467 19.9357 5.63545 19.8192 5.49316L19.7657 5.43451C19.6157 5.28448 19.4122 5.2002 19.2 5.2002V5C19.4652 5 19.7195 5.10549 19.907 5.29297C20.0945 5.48046 20.2 5.73485 20.2 6V8.2002H23.9998L24 8.4002H20V6.0002ZM11.7996 6C11.7997 5.7349 11.9052 5.48045 12.0926 5.29297C12.28 5.10552 12.5345 5.0001 12.7996 5L12.8 5.2002C12.5878 5.2002 12.3844 5.28448 12.2343 5.43451L12.1815 5.49316C12.0648 5.63549 12.0001 5.81455 12 6.0002V8.4002H8.00001L7.99982 8.2002H11.7996V6ZM18.4 6.8002V8.4002H13.6V6.8002H18.4ZM13.7996 8.2002H18.2V7H13.7996V8.2002ZM19.2 5V5.2002H12.8L12.7996 5H19.2Z" fill="#444444"/>
<path d="M12.0585 16.3353C12.4928 16.2544 12.9102 16.5406 12.9911 16.975L13.786 21.2435C13.8669 21.6779 13.5808 22.0962 13.1464 22.1771C12.7121 22.2579 12.2947 21.9708 12.2138 21.5365L11.4189 17.2679C11.338 16.8336 11.6242 16.4162 12.0585 16.3353ZM19.0087 16.975C19.0896 16.5407 19.507 16.2545 19.9413 16.3353C20.3757 16.4162 20.6628 16.8336 20.5819 17.2679L19.786 21.5365C19.7052 21.9708 19.2878 22.258 18.8534 22.1771C18.4191 22.0962 18.1329 21.6779 18.2138 21.2435L19.0087 16.975ZM15.2001 21.3548V17.1214C15.2002 16.6797 15.5582 16.3217 15.9999 16.3216C16.4417 16.3216 16.7997 16.6797 16.7997 17.1214V21.3548C16.7997 21.7967 16.4417 22.1556 15.9999 22.1556C15.5581 22.1556 15.2001 21.7966 15.2001 21.3548Z" fill="#444444"/>
</svg>
